<svg width="94" height="80" viewBox="0 0 94 80" fill="none" xmlns="http://www.w3.org/2000/svg">
<path d="M46.8397 13.6827C47.8513 12.1881 48.7052 10.6051 49.8415 9.18945C60.2169 -3.7459 81.0688 -2.97098 89.9907 11.1717C96.2295 21.0611 94.9259 34.2142 87.0883 42.8062C75.5039 53.8698 64.7008 65.8029 53.1353 76.8759C49.2797 80.5675 45.8312 81.2398 41.6283 77.5262C34.6209 71.3331 27.5787 63.4624 20.8806 56.7658C16.2816 52.1684 11.1381 47.5899 6.82785 42.7257C-1.16441 33.706 -2.3118 20.2341 4.66407 10.2548C14.173 -3.34503 34.8781 -3.31188 44.6933 9.90913C45.5013 10.9981 46.4609 12.3996 46.8397 13.6827ZM66.7825 60.3027C72.4863 54.6147 78.6052 48.9977 84.088 43.1219C91.3637 35.3269 94.6039 25.5875 89.9512 15.3131C81.6385 -3.04201 54.9487 -1.84253 47.8592 16.6798C46.341 17.9945 46.1831 16.38 45.6607 15.4141C32.1951 -9.44813 -2.9652 3.55824 2.53501 30.2891C4.3058 38.8953 11.086 44.1351 16.9381 49.9778C25.8868 58.9091 34.7976 67.8925 43.7621 76.8128C45.7444 78.4621 48.4732 78.2443 50.4523 76.7244C55.9951 71.352 61.3201 65.7524 66.7809 60.3059L66.7825 60.3027Z" fill="#A35B5B"/>
<path d="M44.5971 23.0416C54.6521 22.3345 67.3302 27.8348 73.6638 35.7039C74.1467 36.3036 74.6786 36.826 74.3708 37.6657C74.1199 38.3538 70.9492 41.2231 70.1979 41.8575C55.7869 54.0227 38.6345 54.422 24.1082 42.1732C23.267 41.463 19.7128 38.237 19.5581 37.399C19.3814 36.4378 21.4268 34.5565 22.1339 33.881C27.9797 28.2814 36.3997 23.6177 44.5955 23.0416H44.5971ZM45.3831 25.7215C37.9306 26.5595 33.6945 35.1878 36.7106 41.8812C40.4558 50.1938 52.1932 50.8251 56.7512 42.9276C61.587 34.5486 54.9504 24.6451 45.3831 25.7199V25.7215ZM39.4204 25.9945C34.4426 27.527 29.8042 30.1374 25.7733 33.4139C25.2367 33.8495 21.8971 36.7471 21.8971 37.1196C25.3898 41.0289 30.235 44.5863 35.0534 46.6949C35.9846 47.102 37.94 47.9496 38.8681 48.09C38.9612 48.1042 39.1285 48.1311 39.1048 48.0095C31.6965 42.5267 31.859 31.2501 39.4204 25.9945ZM54.8873 48.0869C60.0387 46.5591 64.9187 43.6472 69.0079 40.1925C70.0922 39.2771 71.2506 38.2654 72.095 37.1196C72.095 36.8024 69.4593 34.4303 69.0079 34.0468C64.9297 30.5683 60.2234 27.8426 55.1256 26.1492L57.6366 28.8464C62.2925 35.0474 60.9478 43.4247 54.8873 48.0869Z" fill="#A35B5B"/>
<path d="M46.1691 31.2423C53.923 30.1912 55.192 42.0171 47.8468 42.863C39.9713 43.7705 38.9944 32.2145 46.1691 31.2423Z" fill="#A35B5B"/>
</svg>
