<svg width="130" height="80" viewBox="0 0 130 80" fill="none" xmlns="http://www.w3.org/2000/svg">
<path fill-rule="evenodd" clip-rule="evenodd" d="M120.29 0.690449C118.721 1.58505 117.309 2.57172 114.845 4.49632C110.143 8.16957 107.753 9.40446 103.801 10.2042C101.186 10.7334 99.2153 10.8616 92.0406 10.9694C83.66 11.0955 84.4162 10.9337 79.9032 13.5673C78.288 14.5099 75.5098 16.0947 73.7293 17.0889C69.5925 19.399 69.0894 19.7398 67.326 21.4257C65.5021 23.1696 60.0973 29.1308 58.7464 30.8887C58.3691 31.3796 58.2477 32.3689 58.4922 32.9596C59.0112 34.214 61.2576 34.6698 62.9745 33.8693C63.8795 33.4473 65.0007 32.5763 67.1876 30.5959C67.9317 29.9222 68.5404 29.4366 68.5404 29.5167C68.5404 29.5969 68.1917 30.8553 67.7655 32.3133C66.7491 35.7908 66.0667 38.6108 66.0667 39.333C66.0667 40.1895 66.4959 41.1324 67.0058 41.3963C67.9096 41.8641 69.2151 41.6143 70.1965 40.7859C70.8 40.2768 71.7066 38.8154 72.1027 37.7139L72.3944 36.9027L72.4006 39.1465C72.4059 41.1074 72.4454 41.4541 72.7143 41.8953C73.3729 42.9766 74.7039 43.122 75.7253 42.2245C76.4168 41.6168 76.7358 40.7364 77.7092 36.748L78.5023 33.4982L78.6761 36.4578C78.8268 39.0237 78.8938 39.4884 79.1798 39.9517C79.5719 40.5866 80.0815 40.8488 80.9239 40.8488C82.5943 40.8488 83.3728 39.5896 83.6982 36.3611C83.951 33.8539 84.3344 32.5763 85.3288 30.9277L85.8527 30.0596L87.13 29.8103C90.7599 29.1022 93.5709 29.0299 97.3568 29.5472C101.184 30.0703 103.534 29.9089 106.481 28.9206C109.323 27.9676 111.807 26.4089 114.408 23.9461C116.045 22.3952 117.001 21.6675 118.92 20.5082C121.595 18.8931 123.497 18.0139 127.136 16.7106C129.877 15.7292 129.75 15.7861 129.929 15.4519C130.141 15.0563 129.852 14.5416 129.419 14.5416C128.995 14.5416 124.563 16.0975 122.733 16.8892C119.539 18.2707 115.941 20.6042 113.454 22.9076C110.618 25.5331 108.664 26.7474 105.801 27.6632C103.059 28.5397 100.93 28.6583 96.92 28.1576C92.7761 27.6403 90.1333 27.7699 85.8564 28.7004C82.5543 29.4188 81.0911 29.6071 79.5564 29.5113C77.9286 29.4096 77.453 29.1262 77.3844 28.2162C77.334 27.5473 77.7455 26.7876 78.4352 26.2768C79.0857 25.795 80.8417 25.1511 84.2355 24.1498C92.538 21.7001 95.3158 20.6128 95.4126 19.7747C95.4471 19.4767 95.3659 19.3089 95.125 19.1799C94.8406 19.0275 94.5821 19.0968 93.423 19.6358C92.6714 19.9852 91.4094 20.4832 90.6184 20.7421L89.1804 21.2128L87.8295 20.9647C85.8646 20.604 84.094 20.5188 82.6934 20.7175C81.1453 20.9372 77.9892 21.9906 75.575 23.0933C74.5546 23.5594 73.4414 24.0291 73.1013 24.1369C71.6481 24.5976 70.9114 25.1321 68.6177 27.3896C66.3855 29.5862 63.4124 32.103 62.4784 32.5865C61.8359 32.919 60.6562 33.012 60.1916 32.7666C59.4616 32.3811 59.6078 31.9257 60.9753 30.3259C64.4073 26.3111 69.007 21.5774 70.4077 20.6187C70.797 20.3523 73.0929 19.0244 75.5098 17.6675C77.9266 16.3109 80.6693 14.7378 81.6047 14.1719C84.4357 12.4592 84.1897 12.5011 92.1952 12.3663C100.513 12.2261 102.928 12.0008 106.16 11.0632C109.408 10.1211 111.157 9.11972 115.753 5.57151C118.363 3.55669 119.978 2.43059 121.107 1.83961C121.489 1.63921 121.924 1.37521 122.073 1.25296C122.56 0.852781 122.325 -0.011642 121.733 0.000118806C121.601 0.00274952 120.952 0.313328 120.29 0.690449ZM86.0805 22.0987C85.9998 22.1698 84.577 22.6288 82.9188 23.1184C78.1072 24.5396 77.2362 25.0651 75.2231 27.7634C73.9028 29.5328 73.2817 30.7838 72.0297 34.1946C70.5594 38.2003 69.7463 39.6391 68.7104 40.0687C68.4629 40.1713 68.0974 40.2321 67.898 40.2038C67.5892 40.16 67.5282 40.0509 67.4866 39.4683C67.4283 38.6523 67.6613 37.6248 68.8573 33.4209C69.3538 31.6761 69.9119 29.6692 70.0976 28.961C70.3839 27.8696 70.5441 27.5565 71.1498 26.9044C71.7873 26.2181 72.1563 26.0098 74.5701 24.9732C77.8842 23.5497 81.4934 22.3046 82.7964 22.1353C84.119 21.9633 86.2616 21.9395 86.0805 22.0987ZM77.3401 30.3974C77.6872 30.5542 77.9714 30.7306 77.9714 30.7894C77.9714 30.8483 77.8371 31.2875 77.6727 31.7655C77.3074 32.8285 76.7738 34.8309 76.1186 37.5991C75.4025 40.6245 74.9866 41.4678 74.2103 41.4678C74.0861 41.4678 73.9349 41.3458 73.8742 41.197C73.8134 41.0481 73.7755 39.1588 73.7901 36.9988L73.8163 33.0713L74.4136 31.6851C74.742 30.9225 75.201 30.0238 75.4335 29.688L75.8562 29.0774L76.2825 29.5949C76.517 29.8796 76.9929 30.2408 77.3401 30.3974ZM83.5569 31.3705C82.9046 32.6642 82.6286 33.7192 82.3734 35.8968C82.1155 38.0967 81.9562 38.7578 81.5853 39.1679C81.2965 39.4873 80.5251 39.556 80.3531 39.2775C80.1719 38.9842 79.8463 33.3221 79.9396 32.088L80.026 30.9449L80.9698 30.9381C81.489 30.9344 82.3313 30.837 82.8415 30.7219C83.3517 30.6066 83.8223 30.5053 83.8873 30.4964C83.9524 30.4878 83.8036 30.881 83.5569 31.3705ZM42.7782 37.2565C42.3419 37.4118 41.1592 38.136 40.1499 38.8658C36.0315 41.8433 33.6064 43.2396 29.5795 44.9518C26.5193 46.2529 25.0124 47.0458 23.5803 48.1086C21.6733 49.5238 19.9728 51.222 18.2823 53.3996C16.5051 55.6888 15.407 56.725 13.1911 58.2031C11.5808 59.2775 4.57042 62.8575 1.75023 64.0458C0.0882081 64.746 -0.231364 65.0495 0.137682 65.5769C0.268943 65.7644 0.473643 65.9179 0.592536 65.9179C1.13737 65.9179 8.1123 62.7051 11.0692 61.092C14.9713 58.9634 16.9113 57.3974 19.0506 54.6489C20.6389 52.6085 22.6259 50.5813 24.2853 49.3085C25.526 48.3567 27.1699 47.4895 30.3525 46.1077C34.7894 44.1814 36.7191 43.0606 41.2294 39.7901C42.9296 38.5574 43.7362 38.2434 44.4466 38.5379C45.0966 38.8073 45.3495 39.2594 45.348 40.1482C45.3443 42.0971 43.5106 43.9335 38.3921 47.1147C35.2429 49.0718 34.4952 49.8164 34.8874 50.6039C35.5692 51.9728 39.7382 53.0152 43.9579 52.8721C47.958 52.7362 50.2784 51.9646 53.7088 49.6298C56.0673 48.0244 56.4925 47.8121 57.345 47.8148C58.7917 47.8192 58.6848 47.9681 55.8385 49.9144C51.8534 52.6393 50.2393 53.3456 46.3064 54.0854C45.1422 54.3044 44.0683 54.5192 43.9196 54.5627C43.5287 54.6773 43.3957 55.363 43.7043 55.6719C43.9352 55.903 44.085 55.9009 45.6184 55.6476C50.0921 54.9082 53.0573 53.7199 55.9443 51.5094C57.1292 50.6021 60.7862 48.158 61.9017 47.5278C64.4158 46.1077 67.0978 46.0334 66.7567 47.3934C66.6291 47.9016 66.0382 48.4094 64.2703 49.5297C63.5447 49.9896 61.6533 51.3206 60.0673 52.4877C57.0764 54.6883 54.3781 56.3044 52.3441 57.1131C51.1601 57.584 47.8885 58.49 47.3727 58.49C47.0103 58.49 46.5454 59.0162 46.6113 59.3517C46.7192 59.901 47.1239 59.9691 48.5429 59.6768C50.4608 59.2816 52.6273 58.5638 54.2393 57.7896C55.837 57.0221 58.8091 55.1065 60.9568 53.46C61.7689 52.8374 63.229 51.8274 64.2015 51.2156C65.8436 50.1824 66.0136 50.1103 66.5913 50.2028C67.642 50.371 68.5404 50.8427 68.5404 51.2263C68.5404 51.6344 68.1364 52.0313 64.6907 55.0082C59.2749 59.6872 58.2102 60.2695 53.2059 61.291C51.7498 61.5882 50.1522 61.8043 49.057 61.8522C46.8815 61.9474 46.6051 61.8609 41.8707 59.6065C36.6275 57.11 34.1411 56.3776 31.3918 56.5199C28.7079 56.6589 27.507 57.2581 28.3069 58.0589C28.6065 58.3587 28.6379 58.3594 29.8189 58.0965C31.9984 57.6112 34.9102 58.0543 38.027 59.3456C38.7568 59.648 40.7166 60.5555 42.382 61.3623C44.0474 62.169 45.7569 62.9321 46.1808 63.0582C48.3334 63.6979 53.2216 62.9785 58.3363 61.2688C61.3756 60.2531 62.7972 59.9558 63.962 60.0929C65.0317 60.2187 66.1291 60.6075 66.4659 60.9801C66.7142 61.2546 66.718 61.3089 66.5039 61.5233C66.373 61.6542 65.5775 61.9626 64.7361 62.2086C63.8949 62.4545 60.8758 63.6054 58.0271 64.7658C48.6901 68.5697 47.313 68.9434 43.1076 68.8145C41.747 68.7729 38.6162 68.5502 36.1503 68.3199C30.397 67.7825 27.3225 67.821 25.1959 68.4567C22.6631 69.2141 20.7536 70.3369 14.6806 74.6397C12.9685 75.8528 10.8979 77.3088 10.0789 77.8755C9.2601 78.4421 8.54721 79.0178 8.4948 79.1546C8.35797 79.5116 8.66533 80 9.0268 80C9.38209 80 11.4889 78.609 16.5024 75.0642C22.3312 70.9428 23.7451 70.1644 26.4 69.6159C28.7038 69.1401 32.2554 69.2647 40.17 70.0989C42.3038 70.3238 46.0748 70.2845 47.4398 70.0229C49.4789 69.6325 51.1103 69.0578 57.3314 66.538C60.6477 65.1948 64.1921 63.8377 65.2078 63.522C67.4417 62.8279 68.0766 62.3343 68.0766 61.291C68.0766 60.7602 67.9784 60.5582 67.4759 60.0553C66.6055 59.1841 65.3915 58.7681 63.7522 58.7791L62.4428 58.7879L62.8539 58.4456C64.0365 57.461 67.8232 54.1032 68.7473 53.2201C69.6914 52.3174 69.8171 52.1284 69.8873 51.5049C70.0053 50.4577 69.6648 49.9272 68.5395 49.4037C67.8587 49.0871 67.6395 48.9116 67.7112 48.7409C68.2808 47.3884 68.3052 46.7512 67.8174 45.9811C67.2604 45.1019 65.2949 44.7726 63.5825 45.2718C63.1205 45.4062 62.0854 45.8654 61.2822 46.2917L59.8218 47.067L59.2723 46.7994C58.9701 46.6523 58.2301 46.4982 57.6278 46.457C56.232 46.3618 55.8803 46.5144 52.7957 48.5544C49.1142 50.9891 47.5973 51.4495 43.2622 51.4482C40.501 51.4475 38.9367 51.2204 37.1864 50.5666C36.1877 50.1935 36.1901 50.1895 38.2031 48.8859C42.4203 46.1549 43.3424 45.4985 44.4517 44.4378C46.0051 42.9523 46.7408 41.584 46.7408 40.1804C46.7408 37.8394 44.9179 36.4942 42.7782 37.2565Z" fill="#A35B5B"/>
</svg>
