<svg width="37" height="37" viewBox="0 0 37 37" fill="none" xmlns="http://www.w3.org/2000/svg">
<path fill-rule="evenodd" clip-rule="evenodd" d="M18.4995 36C28.1645 36 35.9995 28.165 35.9995 18.5C35.9995 8.83502 28.1645 1 18.4995 1C8.83453 1 0.999512 8.83502 0.999512 18.5C0.999512 28.165 8.83453 36 18.4995 36Z" stroke="#FFD0D5" stroke-width="1.5"/>
<path d="M21.0376 11.3333H23.5759C23.8094 11.3333 23.9989 11.1467 23.9989 10.9167V8.41667C23.9989 8.18667 23.8094 8 23.5759 8H21.0376C18.4722 8 16.384 10.0558 16.384 12.5833V15.5H13.4226C13.189 15.5 12.9995 15.6867 12.9995 15.9167V18.4167C12.9995 18.6467 13.189 18.8333 13.4226 18.8333H16.384V27.5833C16.384 27.8133 16.5735 28 16.807 28H19.3453C19.5789 28 19.7684 27.8133 19.7684 27.5833V18.8333H22.7298C22.9117 18.8333 23.0733 18.7183 23.1317 18.5483L23.9778 16.0483C24.0209 15.9217 23.9989 15.7817 23.9194 15.6725C23.839 15.5642 23.7121 15.5 23.5759 15.5H19.7684V12.5833C19.7684 11.8942 20.3378 11.3333 21.0376 11.3333Z" fill="#FFD0D5"/>
</svg>
