<svg width="37" height="37" viewBox="0 0 37 37" fill="none" xmlns="http://www.w3.org/2000/svg">
<circle cx="18.4995" cy="18.5" r="17.25" stroke="#FFD0D5" stroke-width="1.5"/>
<g clip-path="url(#clip0_155_3369)">
<path d="M18.5004 8.875C15.8864 8.875 15.5583 8.88643 14.5317 8.93315C13.507 8.98007 12.8076 9.14229 12.1956 9.38032C11.5625 9.62615 11.0255 9.95501 10.4905 10.4902C9.95514 11.0252 9.62627 11.5622 9.37963 12.195C9.141 12.8072 8.97858 13.5068 8.93246 14.5311C8.88655 15.5578 8.87451 15.886 8.87451 18.5C8.87451 21.114 8.88615 21.441 8.93266 22.4677C8.97979 23.4924 9.14201 24.1918 9.37983 24.8038C9.62587 25.4368 9.95473 25.9738 10.4899 26.5088C11.0247 27.0442 11.5617 27.3739 12.1944 27.6197C12.8068 27.8577 13.5064 28.0199 14.5309 28.0669C15.5575 28.1136 15.8854 28.125 18.4992 28.125C21.1134 28.125 21.4405 28.1136 22.4672 28.0668C23.4918 28.0199 24.1921 27.8577 24.8045 27.6197C25.4373 27.3739 25.9735 27.0442 26.5083 26.5088C27.0437 25.9738 27.3726 25.4368 27.6192 24.804C27.8558 24.1918 28.0182 23.4922 28.0664 22.4679C28.1125 21.4412 28.1245 21.114 28.1245 18.5C28.1245 15.886 28.1125 15.558 28.0664 14.5313C28.0182 13.5066 27.8558 12.8072 27.6192 12.1952C27.3726 11.5622 27.0437 11.0252 26.5083 10.4902C25.9729 9.9548 25.4375 9.62595 24.8039 9.38031C24.1902 9.14229 23.4904 8.98007 22.4658 8.93315C21.4391 8.88643 21.1122 8.875 18.4974 8.875H18.5004ZM17.637 10.6095C17.8932 10.6091 18.1792 10.6095 18.5004 10.6095C21.0703 10.6095 21.3749 10.6187 22.3898 10.6648C23.3282 10.7078 23.8375 10.8646 24.1768 10.9963C24.626 11.1708 24.9462 11.3793 25.2829 11.7162C25.6198 12.0531 25.8283 12.3739 26.0032 12.8231C26.1349 13.1619 26.2919 13.6713 26.3346 14.6097C26.3808 15.6243 26.3908 15.9291 26.3908 18.4978C26.3908 21.0665 26.3808 21.3713 26.3346 22.3859C26.2917 23.3243 26.1349 23.8337 26.0032 24.1725C25.8287 24.6217 25.6198 24.9415 25.2829 25.2782C24.946 25.6151 24.6262 25.8236 24.1768 25.9981C23.8379 26.1304 23.3282 26.2868 22.3898 26.3297C21.3751 26.3759 21.0703 26.3859 18.5004 26.3859C15.9303 26.3859 15.6257 26.3759 14.6111 26.3297C13.6726 26.2864 13.1633 26.1296 12.8238 25.9979C12.3746 25.8234 12.0538 25.6149 11.7169 25.278C11.38 24.9411 11.1715 24.6211 10.9966 24.1717C10.8649 23.8329 10.7079 23.3235 10.6652 22.3851C10.6191 21.3705 10.6098 21.0657 10.6098 18.4954C10.6098 15.9251 10.6191 15.6219 10.6652 14.6073C10.7081 13.6688 10.8649 13.1595 10.9966 12.8203C11.1711 12.3711 11.38 12.0502 11.7169 11.7134C12.0538 11.3765 12.3746 11.168 12.8238 10.9931C13.1631 10.8608 13.6726 10.7044 14.6111 10.6612C15.499 10.6211 15.8431 10.6091 17.637 10.6071L17.637 10.6095ZM23.6382 12.2077C23.0006 12.2077 22.4832 12.7244 22.4832 13.3623C22.4832 13.9999 23.0006 14.5173 23.6382 14.5173C24.2759 14.5173 24.7932 13.9999 24.7932 13.3623C24.7932 12.7246 24.2759 12.2073 23.6382 12.2073L23.6382 12.2077ZM18.5004 13.5572C15.7707 13.5572 13.5575 15.7703 13.5575 18.5C13.5575 21.2297 15.7707 23.4418 18.5004 23.4418C21.2301 23.4418 23.4425 21.2297 23.4425 18.5C23.4425 15.7703 21.2299 13.5572 18.5002 13.5572H18.5004ZM18.5004 15.2917C20.2722 15.2917 21.7088 16.728 21.7088 18.5C21.7088 20.2718 20.2722 21.7083 18.5004 21.7083C16.7284 21.7083 15.292 20.2718 15.292 18.5C15.292 16.728 16.7284 15.2917 18.5004 15.2917Z" fill="#FFD0D5"/>
</g>
<defs>
<clipPath id="clip0_155_3369">
<rect width="19.25" height="19.25" fill="white" transform="translate(8.87451 8.875)"/>
</clipPath>
</defs>
</svg>
