<svg width="96" height="86" viewBox="0 0 96 86" fill="none" xmlns="http://www.w3.org/2000/svg">
<path d="M44.2209 7.84797C44.2847 7.92187 44.4895 7.91515 44.4895 8.01256L36.4229 21.4435L49.1683 32.5399L40.2724 45.4452L51.0082 53.5488L46.8314 63.8441L52.1565 53.3455L42.9719 44.9548L53.3602 32.2108L42.1325 20.77L47.5214 12.5556C50.429 9.24699 53.0798 6.06939 57.0199 3.75168C76.1362 -7.48415 99.2061 8.37365 95.6303 30.1181C94.4618 37.2257 89.1116 44.5366 84.7635 50.1495C74.2845 63.6761 61.3277 75.2798 48.0653 86C35.8035 76.2891 23.9009 65.6008 13.9306 53.5101C9.25014 47.8334 2.47121 39.0749 0.747098 31.9336C-4.02736 12.1592 14.9009 -5.28737 34.2019 1.48772C37.3312 2.58611 42.0636 5.31865 44.2226 7.84461L44.2209 7.84797Z" fill="#B57273" fill-opacity="0.6"/>
</svg>
