<svg width="92" height="88" viewBox="0 0 92 88" fill="none" xmlns="http://www.w3.org/2000/svg">
<path d="M19.4873 0.435477C30.5522 -0.468579 38.9215 6.89409 44.5227 15.3394L44.5074 15.6259C42.7702 18.431 40.9757 21.2288 39.3912 24.1195C38.9902 24.8487 37.5775 27.1888 37.6043 27.8325C37.6119 28.0111 37.6997 28.2417 37.7837 28.4054C38.0128 28.8481 40.7275 30.4926 41.3804 30.9688C44.1371 32.9666 46.8365 35.0389 49.597 37.0293L40.0479 48.1421C39.7959 48.5923 39.8188 49.1913 39.9486 49.6824C40.632 52.242 42.3616 56.1745 43.4078 58.7415C43.782 59.6605 44.5074 61.7737 45.0572 62.4619C45.6071 63.1502 46.6379 62.5512 46.218 61.6286L42.3311 49.0425C44.5265 46.3973 46.7525 43.7706 48.9937 41.1664C49.6123 40.4521 52.0711 38.0152 52.262 37.3939C52.3919 36.9698 52.3804 36.568 52.0979 36.2108L40.5595 27.6204L40.3571 27.2781C45.4734 18.6729 50.3263 8.14414 59.6768 3.17369C72.7272 -3.76485 87.5033 2.85374 90.8442 16.8127C94.9296 33.8818 81.6234 47.625 69.6536 57.8896C62.2312 64.2552 54.3696 70.1594 46.26 75.6656L45.966 75.6507C41.0062 72.7265 36.413 69.1996 31.9076 65.654C19.7698 56.1 2.46609 42.3941 0.557027 26.3406C-0.905313 14.0596 5.91386 1.53672 19.4949 0.428038L19.4873 0.435477ZM73.8955 11.1949V7.71629C73.8955 7.37774 73.2617 6.68946 72.8761 6.62994C72.5592 6.56297 71.9674 6.93873 71.849 7.19916C71.8185 7.2624 71.6199 8.51246 71.6199 8.60175V11.0423C70.9441 10.7298 69.6269 8.86217 69.0809 8.7022C68.3707 8.49386 67.6873 8.89194 67.6911 9.63602C67.6987 10.7335 70.9365 13.3304 71.6199 14.3721V18.7398C70.7074 18.3045 68.2256 17.6163 67.6033 16.9578C66.8587 16.169 66.3471 13.3081 65.5758 12.2701C64.8618 11.3065 63.6019 11.8273 63.556 12.8988C63.5293 13.5424 64.8924 15.797 64.7817 15.9309C63.8615 15.6035 60.7421 13.5796 60.3794 15.4175C60.0739 16.9689 62.8192 17.2591 63.8691 17.8581L60.975 19.4393C60.7039 19.8634 60.807 20.8121 61.2843 21.039C62.4717 21.5934 65.3773 19.3277 66.6793 19.1081L70.7036 20.6707L68.1225 24.0005C66.6716 24.3651 64.5717 23.993 63.2162 24.4023C62.8917 24.499 62.5022 24.9938 62.4832 25.3324C62.3839 27.014 65.3391 26.2662 66.2936 26.1471C66.0798 27.226 62.8573 29.3727 64.5411 30.2991C66.1104 31.1622 67.1527 28.1264 68.2676 27.479C68.5501 28.2417 68.5998 30.5893 69.2718 31.0171C69.9438 31.445 70.9288 30.9874 71.0014 30.2061C71.1236 28.9188 70.0736 26.5006 70.1194 25.0794L72.6012 22.0063L75.2319 25.0719C75.4839 25.8941 74.4682 28.9486 74.5484 30.0536C74.6133 30.9464 75.5717 31.5938 76.3162 30.9539C76.7858 30.5521 76.9615 28.1896 77.0798 27.4828C77.3815 27.4046 77.3738 27.6055 77.5075 27.732C78.2253 28.4166 79.764 31.3743 80.9896 30.2545C82.2534 29.1011 79.6876 27.3079 79.2065 26.2997C80.2298 26.0578 82.0816 26.9321 82.7727 25.9983C83.4217 25.124 82.7879 24.4023 81.8258 24.2646C80.3596 24.0563 78.7102 24.1753 77.2364 24.0005L74.6553 20.8939C74.6553 20.6744 78.6033 19.1974 78.8324 19.1826C79.0614 19.1677 79.2982 19.1826 79.5234 19.2607C80.5391 19.6848 82.4405 21.0502 83.4256 21.2362C84.2503 21.3962 85.0368 20.6744 84.8039 19.8894C84.6015 19.2123 81.4554 18.0925 81.6387 17.8618C82.597 17.4414 85.6668 16.902 85.2201 15.4882C84.6092 13.5387 81.3027 16.1058 80.8789 15.7858C81.1347 14.9413 82.2343 13.1778 81.864 12.3854C81.4936 11.5929 80.4322 11.779 79.9663 12.3445C79.1989 13.2783 78.9278 15.8156 78.1527 16.902L73.8955 18.7473V14.5283C74.8997 13.2076 76.4117 11.9724 77.3891 10.6777C77.7938 10.142 78.1413 9.2863 77.5342 8.76173C76.4079 7.78698 74.7279 10.6889 73.8955 11.1986V11.1949Z" fill="#B57273" fill-opacity="0.6"/>
<path d="M34.0988 70.1074C33.1214 71.0672 32.5066 72.0122 32.1936 73.3516C31.2199 77.4849 31.2238 82.1019 30.4296 86.2874C30.3952 86.4697 30.3952 86.9756 30.1509 86.9756C30.1203 86.4139 30.189 85.8372 30.1509 85.2754C29.9027 81.8117 29.5018 78.0876 29.0703 74.6351C28.6694 71.4281 28.1616 68.2137 27.4209 65.0699L34.1026 70.1036L34.0988 70.1074Z" fill="#B57273" fill-opacity="0.6"/>
<path d="M75.1121 56.1929L71.4697 73.9504C70.9848 69.9026 70.1142 65.7469 67.9761 62.1939L75.1121 56.1892V56.1929Z" fill="#B57273" fill-opacity="0.6"/>
<path d="M11.918 66.6995C11.7232 66.9487 11.6431 66.6809 11.6163 66.48C10.8565 60.5832 10.6274 54.6119 9.33691 48.7932L13.8576 53.1758C12.8267 57.6143 12.2387 62.1606 11.918 66.6995Z" fill="#B57273" fill-opacity="0.6"/>
<path d="M52.1744 74.3966L49.4406 87.2729C49.0092 84.0399 48.8068 80.7213 47.7988 77.5999L52.1744 74.3966Z" fill="#B57273" fill-opacity="0.6"/>
</svg>
