<svg width="113" height="82" viewBox="0 0 113 82" fill="none" xmlns="http://www.w3.org/2000/svg">
<path d="M28.7522 28.7085C28.5095 28.518 31.0385 24.7467 30.9948 23.7013C30.9948 23.7013 24.6795 18.4255 22.7232 16.7695C20.4903 14.8888 18.0681 13.2425 15.806 11.4106C11.1751 7.67361 6.56842 3.89262 2.054 0.0188036C-0.183788 -0.284067 0.000672446 3.15009 0.00552666 4.6791C0.00552666 5.0699 0.0249435 5.46559 0.058923 5.86127C0.0686314 5.96386 0.0783399 6.06645 0.0880483 6.16903C0.0880483 6.1788 0.0880483 6.19346 0.0929025 6.213C0.0977567 6.27162 0.107465 6.33024 0.112319 6.38397C0.112319 6.40351 0.117174 6.42794 0.122028 6.45236C0.122028 6.48656 0.131736 6.52564 0.13659 6.56472C0.151153 6.65753 0.160861 6.74546 0.175424 6.83339C0.180278 6.88224 0.189987 6.93109 0.199695 6.98483C0.199695 7.00437 0.204549 7.01902 0.209404 7.03856C0.384155 8.14257 0.777346 9.98422 1.50548 10.8342C9.7091 17.2922 18.102 23.545 25.3542 31.0875C25.3494 31.0875 25.3397 31.0923 25.3397 31.0972C25.4028 31.0826 25.4659 31.063 25.5047 31.0435C27.0483 30.2961 28.6648 30.1935 28.6648 30.1935C28.6648 30.1935 28.6697 30.1837 28.6745 30.1593C28.7182 29.9786 28.9124 29.1188 28.8104 28.8062C28.8007 28.7622 28.7764 28.728 28.7522 28.7085ZM4.46169 10.629C3.96171 10.2431 2.09284 8.82159 1.90352 8.40148C1.70936 7.96183 1.69479 6.80897 1.67052 6.2765C1.65596 5.97363 1.66081 2.29522 1.85013 2.3343L4.67043 4.80123L4.79664 10.6779C4.51024 10.8879 4.59276 10.7219 4.46169 10.629ZM6.51988 12.2509L6.26746 11.8601C6.29173 10.0868 6.16552 8.21096 6.20436 6.44748C6.20921 6.29116 6.03446 6.25208 6.37911 6.15438L9.16543 8.61154L9.56347 14.6836L6.51988 12.2509ZM13.6896 18.0543C13.3595 17.8198 11.1265 16.0172 11.0634 15.856C11.0974 14.0437 10.6314 12.0555 10.7139 10.2627C10.7188 10.1552 10.7333 9.8279 10.845 9.85233L14.0245 12.4463L14.0342 18.0787C13.7818 18.2643 13.8352 18.1617 13.6896 18.0543ZM18.6166 22.0209L15.3837 19.3048C15.3691 18.8945 15.3303 13.4965 15.6118 13.5552L19.034 16.3347L18.6166 22.0209ZM22.9611 25.7823L22.6796 25.8263L20.1457 23.3203C20.0826 22.6511 20.3544 17.7221 20.6214 17.5951L23.4805 20.1353L22.9611 25.7823ZM28.4124 25.8263L26.9998 29.8369L24.2717 27.1941C24.5824 25.4111 24.4319 23.3594 24.8154 21.6154C24.8494 21.4787 24.7038 21.3907 25.0241 21.3223C25.8591 22.2944 27.0483 22.9832 27.6842 24.1312L28.4124 25.8263C28.5434 24.8884 30.6987 23.843 30.9657 23.716C30.6842 23.9065 28.49 25.8263 28.4124 25.8263Z" fill="#B57273" fill-opacity="0.6"/>
<path d="M51.8045 35.8698V35.9675C51.7996 36.0407 51.7899 36.1238 51.7754 36.2117C51.7656 36.2606 51.7559 36.3045 51.7462 36.3534C51.7317 36.412 51.7171 36.4755 51.6977 36.5439C51.6734 36.6416 51.6443 36.7442 51.6055 36.8565C51.5715 36.964 51.5326 37.0812 51.489 37.1985C51.4259 37.3695 51.3579 37.5502 51.2802 37.7358C51.2026 37.9215 51.12 38.1169 51.0278 38.3123C50.9841 38.4149 50.9404 38.5126 50.8919 38.6151C50.8239 38.7715 50.7511 38.9278 50.6734 39.0841C50.5472 39.343 50.4162 39.6117 50.2851 39.8804C49.8531 40.7401 49.3871 41.6194 48.9599 42.401C48.8531 42.5915 48.7512 42.782 48.6492 42.9628C48.2997 43.593 47.9988 44.1303 47.7998 44.4918C47.1978 45.5812 46.5425 46.8171 45.8726 47.9455C45.6493 48.3265 45.426 48.688 45.2028 49.03C44.9649 49.3964 44.7319 49.7285 44.4989 50.0216C44.2756 50.2952 44.0523 50.5346 43.8193 50.7348C43.7659 50.7788 43.7125 50.8228 43.6591 50.8619C43.5669 50.9351 43.4747 50.9986 43.3776 51.0573C43.2465 51.1354 43.1057 51.2038 42.965 51.2575C42.8921 51.2869 42.8193 51.3113 42.7465 51.3308C42.6689 51.3552 42.5912 51.3699 42.5135 51.3846C42.4456 51.3992 42.3727 51.409 42.2951 51.4139C42.2077 51.4236 42.1203 51.4285 42.0281 51.4285C41.9359 51.4285 41.8388 51.4236 41.7417 51.4139C41.6446 51.409 41.5427 51.3943 41.4407 51.3748C41.3048 51.3504 41.1592 51.3162 41.0136 51.2771C40.8679 51.238 40.7126 51.1892 40.5573 51.1305C40.4747 51.1012 40.3971 51.0719 40.3146 51.0377C38.8195 50.4271 37.1884 48.8785 37.97 47.1444C40.3437 43.2217 44.2125 39.4114 46.1493 35.2787C46.261 35.0393 46.3483 34.7999 46.4309 34.5606C46.4697 34.4531 46.5037 34.3456 46.5425 34.2382C46.5668 34.1698 46.5862 34.1014 46.6153 34.0379C46.6396 33.9744 46.6639 33.906 46.6881 33.8425C46.7367 33.7252 46.7852 33.6129 46.8435 33.5103C46.8677 33.4615 46.8969 33.4126 46.926 33.3686C46.9503 33.3247 46.9794 33.2856 47.0085 33.2465C47.0765 33.1537 47.1493 33.0707 47.2367 32.9974C47.2804 32.9583 47.324 32.9241 47.3677 32.8948C47.4114 32.8655 47.4551 32.8362 47.4988 32.8117C47.5425 32.7922 47.591 32.7678 47.6396 32.7482C47.6881 32.7238 47.7415 32.7043 47.7949 32.6896C47.8774 32.6652 47.9697 32.6408 48.0619 32.6261C48.2075 32.6017 48.3628 32.587 48.5376 32.587C48.7415 32.587 48.9453 32.6115 49.1492 32.6603C49.1978 32.675 49.2463 32.6847 49.2949 32.6994C49.3774 32.7238 49.4599 32.7531 49.5424 32.7873C49.7026 32.8508 49.8628 32.929 50.0181 33.0267C50.0861 33.0658 50.154 33.1097 50.2172 33.1537C50.2366 33.1635 50.2608 33.1781 50.2803 33.1977C50.3385 33.2416 50.3919 33.2807 50.4502 33.3247C50.5036 33.3686 50.5569 33.4175 50.6103 33.4615C50.7657 33.6031 50.9162 33.7546 51.0472 33.9206C51.0715 33.95 51.0909 33.9793 51.1152 34.0086C51.2123 34.1307 51.2948 34.2577 51.3725 34.3847C51.4113 34.4531 51.4453 34.5215 51.4792 34.5899C51.5229 34.6729 51.5618 34.7609 51.5957 34.8439C51.6297 34.927 51.6589 35.01 51.6831 35.0979C51.688 35.1028 51.688 35.1077 51.688 35.1077C51.7074 35.1761 51.7268 35.2445 51.7414 35.3129C51.7511 35.3471 51.7559 35.3813 51.7608 35.4106C51.7754 35.479 51.7851 35.5522 51.7899 35.6206C51.7996 35.7037 51.8045 35.7867 51.8045 35.8698Z" fill="#B57273" fill-opacity="0.6"/>
<path d="M59.0422 38.1365C58.8869 39.9244 56.1879 45.2735 55.2656 47.1493C55.1055 47.4766 54.9064 47.8967 54.6734 48.3657C54.6055 48.4976 54.5375 48.6343 54.4696 48.776C54.3676 48.9861 54.256 49.201 54.1443 49.4208C54.0715 49.5674 53.9938 49.7139 53.9162 49.8605C53.9065 49.8751 53.9016 49.8898 53.8919 49.9044C53.7608 50.1487 53.6298 50.3881 53.4939 50.6274C53.3919 50.8082 53.29 50.984 53.188 51.155C53.0667 51.3651 52.9405 51.5605 52.8143 51.7461C52.7317 51.8731 52.6492 51.9903 52.5667 52.1076C52.3386 52.4202 52.1153 52.6889 51.9017 52.8843C51.8434 52.938 51.7852 52.9869 51.7269 53.0308C50.3969 54.0469 48.9649 53.7636 47.7125 52.7622C46.795 52.0294 46.3387 51.3602 46.7368 50.1682C46.7999 49.9777 46.8873 49.7677 46.9989 49.5332C47.1106 49.3036 47.2368 49.0545 47.3776 48.7955C47.4455 48.6636 47.5232 48.5318 47.6008 48.395C47.7562 48.1263 47.9212 47.843 48.096 47.5596C48.6785 46.6022 49.3241 45.6007 49.8192 44.7703C49.8775 44.6775 49.9309 44.5847 49.9794 44.4967C50.0862 44.3209 50.1784 44.1548 50.261 44.0034C51.0134 42.5965 51.7318 41.1554 52.4502 39.729C52.5182 39.5922 52.591 39.4359 52.6638 39.2747C52.7026 39.1916 52.7366 39.1086 52.7754 39.0206C52.8871 38.7617 53.0036 38.4784 53.1298 38.1853C53.2123 37.9899 53.2997 37.7945 53.3919 37.5991C53.4502 37.4672 53.5133 37.3353 53.5764 37.2034C53.6443 37.0715 53.7074 36.9445 53.7754 36.8175C53.9113 36.5684 54.0521 36.329 54.2026 36.1043C54.2511 36.0261 54.3045 35.948 54.3628 35.8747C54.421 35.8014 54.4744 35.7281 54.5327 35.6598C54.5909 35.5914 54.654 35.523 54.7123 35.4595C54.7899 35.3667 54.8725 35.2885 54.9598 35.2201C54.989 35.1957 55.0181 35.1761 55.0472 35.1517C55.1103 35.098 55.1783 35.0491 55.2511 35.0052C55.3093 34.9661 55.3676 34.9319 55.4258 34.8977C55.5812 34.8195 55.7462 34.756 55.9161 34.7218C55.9938 34.7072 56.0714 34.6925 56.1491 34.6828H56.1588C56.1879 34.6779 56.2219 34.673 56.2559 34.673C56.353 34.6632 56.4452 34.6583 56.5375 34.6583C56.6248 34.6583 56.7122 34.6632 56.7996 34.6779C56.8724 34.6828 56.9452 34.6974 57.0132 34.7169C57.0229 34.7169 57.0277 34.7169 57.0374 34.7218C57.086 34.7316 57.1297 34.7463 57.1782 34.7609C57.2122 34.7658 57.2462 34.7756 57.2753 34.7902C57.3044 34.8 57.3335 34.8146 57.3675 34.8244C57.3869 34.8244 57.4015 34.8342 57.4161 34.844C57.4598 34.8586 57.5034 34.8782 57.5423 34.8977C57.5471 34.8977 57.5471 34.8977 57.5471 34.8977C57.5714 34.9075 57.5908 34.9172 57.6102 34.9319C57.683 34.9661 57.7461 35.01 57.8093 35.054C57.8821 35.1029 57.9549 35.1566 58.018 35.2152C58.0859 35.2738 58.149 35.3325 58.2122 35.4008C58.3335 35.5327 58.4403 35.6744 58.5374 35.8307C58.6733 36.0506 58.785 36.2948 58.8675 36.5488C58.882 36.5928 58.8966 36.6416 58.9063 36.6856C58.9306 36.7491 58.9451 36.8175 58.9597 36.8859C58.9791 36.9787 58.9985 37.0764 59.0131 37.1741C59.018 37.2181 59.0228 37.2572 59.0277 37.3011C59.0374 37.3695 59.0422 37.4379 59.0471 37.5063C59.0616 37.7115 59.0616 37.9215 59.0422 38.1316V38.1365Z" fill="#B57273" fill-opacity="0.6"/>
<path d="M46.999 49.5332C47.1056 49.3036 47.2316 49.0544 47.3769 48.7955C47.2364 49.0544 47.1104 49.3036 46.999 49.5332Z" fill="white"/>
<path d="M42.3927 37.7018C40.7131 40.1882 38.4656 43.4514 36.5142 45.679C34.791 47.6476 33.5337 48.4781 31.228 46.5583C30.9658 46.3385 30.7426 46.1284 30.5629 45.9183C30.5047 45.85 30.4513 45.7864 30.4028 45.7181C30.3105 45.5959 30.2329 45.4787 30.1698 45.3615C30.1406 45.3077 30.1115 45.254 30.0872 45.1954C30.0727 45.1612 30.0581 45.127 30.0484 45.0977C30.029 45.0488 30.0096 44.9951 29.995 44.9462C29.9756 44.8974 29.961 44.8485 29.9513 44.7948C29.9368 44.7459 29.927 44.6971 29.9222 44.6434C29.9125 44.5945 29.9076 44.5457 29.9028 44.4919C29.8979 44.4284 29.8931 44.3698 29.8931 44.3063C29.8931 44.1597 29.9076 44.0083 29.9368 43.852C29.9465 43.808 29.9562 43.7641 29.9659 43.7152C29.9901 43.598 30.0241 43.4758 30.0678 43.3488C30.0969 43.2609 30.1309 43.173 30.1649 43.0802C30.194 43.002 30.228 42.9189 30.2668 42.8359C30.2911 42.7773 30.3202 42.7138 30.3542 42.6503C30.4319 42.4793 30.5241 42.2985 30.6261 42.1129C34.3881 43.4172 37.2278 38.6592 37.82 35.5279C37.8637 35.2886 37.8928 35.0492 37.9171 34.8098C37.9365 34.5998 37.9511 34.3897 37.9705 34.1797C37.9802 34.0575 37.9899 33.9403 37.9996 33.8279C37.9996 33.8084 37.9996 33.7889 38.0045 33.7693C38.0142 33.657 38.0287 33.5495 38.0433 33.442C38.0773 33.188 38.1258 32.9389 38.1938 32.6995C38.2132 32.6213 38.2375 32.5432 38.2666 32.4699C38.553 32.3234 38.8637 32.1328 39.1937 31.9277C39.4753 31.7567 39.7762 31.5711 40.0772 31.4001C40.15 31.3561 40.2228 31.317 40.2956 31.278C40.3685 31.2389 40.4413 31.1998 40.5141 31.1607C40.6306 31.0972 40.7519 31.0435 40.8684 30.9898C40.9607 30.9458 41.0529 30.9116 41.1451 30.8774C41.2374 30.8383 41.3247 30.809 41.417 30.7797C41.4801 30.7553 41.548 30.7357 41.616 30.7211C41.6888 30.7015 41.7616 30.6869 41.8344 30.6722C41.9024 30.6576 41.9703 30.6478 42.0335 30.6429C42.0529 30.6429 42.0723 30.6429 42.0966 30.638C42.2131 30.6283 42.3247 30.6234 42.4364 30.6283C42.4558 30.6283 42.4703 30.6283 42.4897 30.6331C42.5286 30.6331 42.5626 30.638 42.5965 30.6429C42.616 30.6429 42.6402 30.6478 42.6596 30.6527C42.7033 30.6625 42.7422 30.6673 42.781 30.6771C42.8198 30.682 42.8538 30.6918 42.8878 30.7064C42.9266 30.7162 42.9655 30.7308 42.9994 30.7406C43.0771 30.765 43.1499 30.7992 43.2227 30.8334C43.2858 30.8676 43.3441 30.9018 43.4023 30.936C43.4557 30.9702 43.5043 31.0093 43.5577 31.0533C43.5917 31.0728 43.6256 31.1021 43.6548 31.1314C43.7179 31.1851 43.7858 31.2487 43.8489 31.317C43.9072 31.3806 43.9654 31.4489 44.0237 31.5222C45.6207 33.5642 43.5334 36.0115 42.3927 37.7018Z" fill="#B57273" fill-opacity="0.6"/>
<path d="M38.043 33.4419C38.0774 33.1878 38.1216 32.9387 38.1952 32.6993C38.1265 32.9387 38.0774 33.1878 38.043 33.4419Z" fill="white"/>
<path d="M28.9851 38.239C28.9754 38.278 28.9608 38.3074 28.9414 38.3367C28.8929 38.4197 28.8201 38.4637 28.7375 38.5321C25.4075 41.3263 20.1164 36.9493 23.9901 33.2123C24.3639 32.8459 27.2133 30.6232 27.5385 30.9114C27.558 31.0043 27.5774 31.0922 27.6016 31.1801C27.6453 31.356 27.7036 31.5221 27.7667 31.6882C27.8589 31.9373 27.9657 32.1767 28.0774 32.4111C28.1113 32.4893 28.1502 32.5724 28.189 32.6505C28.223 32.7287 28.2618 32.8068 28.3007 32.885C28.3638 33.0267 28.4317 33.1634 28.49 33.3051C28.5385 33.4028 28.5773 33.5054 28.621 33.608C28.6841 33.7741 28.7472 33.9402 28.8006 34.1111C28.854 34.2821 28.8977 34.4629 28.9317 34.6436C28.9511 34.7364 28.9657 34.8292 28.9754 34.9269C29.0433 35.4985 29.121 37.7895 28.9851 38.2341V38.239Z" fill="#B57273" fill-opacity="0.6"/>
<path d="M59.0829 66.826C59.0485 66.8847 58.9945 66.9579 58.9355 67.0312C58.9945 66.9579 59.0436 66.8896 59.0829 66.826Z" fill="white"/>
<path d="M58.7026 57.0853H58.7074L54.8823 61.1985L58.7026 57.0853Z" fill="white"/>
<path d="M58.1683 55.4685L54.751 58.8392V58.8343L58.1683 55.4685Z" fill="white"/>
<path d="M75.7943 15.8119L74.9351 16.149C75.1098 16.0757 75.304 15.9975 75.503 15.9242C75.6001 15.8852 75.6972 15.8461 75.7943 15.8119Z" fill="white"/>
<path d="M63.9453 17.9174C64.0374 17.9419 64.1246 17.9616 64.2118 17.9813C64.2021 17.9813 64.1875 17.9764 64.1779 17.9764C64.1003 17.9567 64.0228 17.937 63.9453 17.9174Z" fill="white"/>
<path d="M68.0176 18.5034H67.9985C67.9985 18.5034 68.0081 18.5034 68.0129 18.4987H68.0176V18.5034Z" fill="white"/>
<path d="M111.507 24.1067C110.806 28.6627 107.452 32.3588 102.985 33.4938C93.8891 35.8046 84.7822 38.1299 75.7896 40.6913C73.3916 44.6384 69.1539 47.7697 64.8725 49.3964C64.1735 49.6602 59.9746 50.9791 59.5814 50.603C59.3921 48.9274 58.5863 47.4473 57.8582 45.972C59.1348 43.3536 60.5328 40.706 61.0619 37.8043C63.2026 37.7945 65.4113 37.4477 67.421 36.7149C67.9938 36.5049 70.0762 35.7135 70.0228 35.0247C69.9985 34.7218 69.7607 34.546 69.4646 34.5753C68.8724 34.6437 67.7365 35.2054 67.0326 35.3813C65.3628 35.7965 62.7997 36.1189 61.1105 35.9138C60.5522 35.8454 60.3921 35.0442 60.0328 34.5655C58.3873 32.3819 55.5621 31.825 53.4797 33.7448C51.9943 31.4147 49.1594 29.3923 46.3876 30.8969C45.5285 29.8954 44.3829 29.0552 43.0868 28.7524C42.9703 28.6253 44.31 27.2478 44.4848 26.9889C44.7129 26.6518 45.2857 25.919 45.0382 25.5136C44.9362 25.4159 44.7663 25.2938 44.6256 25.2938C44.2712 25.2986 40.4509 28.8256 39.7228 29.3483C39.417 29.573 37.985 30.6184 37.7229 30.4523C37.4947 29.9052 36.4462 27.8926 35.7035 28.811C35.4365 29.1383 35.9996 30.8724 36.0822 31.4245C36.4802 34.1601 35.854 37.687 33.6405 39.5482C33.1551 39.9586 31.8007 40.8281 31.2813 40.1295C30.6357 39.2551 30.9901 35.8307 30.893 34.6192C30.6988 32.0888 28.9999 30.9555 29.2814 28.1515C29.4028 26.94 30.3687 26.1633 31.2279 25.3866C33.7036 23.1541 37.2811 20.3648 40.0189 18.4499C41.9752 17.0821 42.5237 16.6913 45.0285 16.7499C52.3583 16.9306 59.4552 18.6746 66.4404 20.697C69.5374 21.5958 69.2801 22.2357 71.3674 24.1067C71.8189 24.517 72.4936 24.6147 72.6441 23.9113C72.8091 23.1737 70.2655 20.8289 70.5665 20.3941C75.4741 18.616 80.1438 16.237 84.7796 13.8531C91.2355 10.5271 97.4608 7.65574 103.649 4.10657C104.795 3.44941 106.224 3.52012 107.281 4.31166C107.442 4.43185 107.578 4.58206 107.681 4.75396L109.593 7.93488C110.204 8.95101 110.726 10.0182 111.152 11.1245L111.261 11.4085C112.398 14.3594 112.7 17.5668 112.132 20.6779L111.507 24.1067Z" fill="#B57273" fill-opacity="0.6"/>
<path d="M50.7024 55.6932C50.8772 55.659 51.1879 55.5955 51.5131 55.4978C51.4063 55.5369 51.2995 55.5711 51.1927 55.5955C51.0956 55.6248 50.9937 55.6492 50.8966 55.6639C50.8578 55.6737 50.8141 55.6834 50.7704 55.6883C50.7558 55.6883 50.7413 55.6883 50.7316 55.6883C50.7121 55.6932 50.6879 55.6981 50.6685 55.6932C50.6782 55.6883 50.6927 55.6883 50.7024 55.6883V55.6932Z" fill="#B57273" fill-opacity="0.6"/>
<path d="M60.6444 76.2982C60.9356 69.0293 61.3288 62.161 60.5133 54.8579C60.4308 54.1154 60.3337 53.3484 60.1104 52.6303C60.1104 52.6303 59.6638 51.0964 59.5813 50.603C59.5085 50.1732 59.3386 49.4355 59.1833 48.9177C59.159 48.8395 59.1396 48.7712 59.1153 48.7077C59.1153 48.7077 59.1137 48.7044 59.1105 48.6979C59.1008 48.6637 59.0862 48.6246 59.0668 48.5758C59.0474 48.5318 59.0279 48.4829 59.0085 48.4341C58.9503 48.2973 58.8775 48.1312 58.7949 47.9456C58.7658 47.887 58.7415 47.8235 58.7124 47.7648C58.5668 47.4522 58.4115 47.1151 58.2707 46.8172C58.2124 46.6999 58.159 46.5876 58.1105 46.485C58.0814 46.4263 58.0571 46.3726 58.0328 46.3238C57.926 46.1088 57.8581 45.972 57.8581 45.972L55.9746 49.9631L56.727 48.4878L57.028 48.3168L57.3338 49.7579C56.4843 50.7642 55.6397 51.7901 54.6155 52.6303C54.3194 53.2263 53.0912 54.3791 52.6058 54.9263L53.0136 60.9202C53.1252 67.6859 52.8145 74.3881 52.499 81.1343C52.7029 81.8427 53.533 82.2921 54.1592 81.7792C54.5038 81.4958 54.3679 79.4783 54.5524 78.9361L58.9066 75.2968C58.6736 76.8795 58.8046 78.4867 58.7755 80.089C58.7707 80.6361 58.4406 80.9438 58.8435 81.4958C59.2755 82.0967 60.3095 82.0527 60.4842 81.2662C60.8191 79.7959 60.5813 77.837 60.6444 76.2982ZM59.1736 62.8839V66.5917C59.1736 66.6503 59.1396 66.7285 59.0813 66.8262C59.0425 66.8897 58.994 66.958 58.9357 67.0313C58.6542 67.3879 58.1445 67.8715 57.5814 68.3698C57.3629 68.5652 57.1396 68.7606 56.9115 68.9511C56.6931 69.1368 56.4795 69.3126 56.2707 69.4885C56.1834 69.5569 56.096 69.6301 56.0086 69.6985C55.7125 69.9379 55.4407 70.148 55.2319 70.3092C55.1834 70.3482 55.1349 70.3824 55.0912 70.4166C55.0038 70.485 54.9358 70.5339 54.8824 70.573V66.9971L59.1736 62.8839ZM58.858 57.0854C58.858 57.0854 58.8872 57.1001 58.8969 57.1099C58.9406 57.1636 58.8969 57.2906 58.9066 57.4176C58.9066 57.442 58.9114 57.4665 58.9114 57.4909C58.9114 57.5153 58.9163 57.5446 58.9163 57.5739C58.9211 57.6277 58.926 57.6863 58.9309 57.7547C58.9406 57.8377 58.9503 57.9257 58.9551 58.0185C58.9648 58.0869 58.9697 58.1601 58.9745 58.2334C58.9843 58.3067 58.9891 58.38 58.994 58.4581C59.0037 58.5656 59.0134 58.6682 59.0182 58.7757C59.0328 58.9906 59.0474 59.2153 59.0522 59.4351C59.0619 59.6745 59.0619 59.909 59.0474 60.1239C59.0425 60.1874 59.0376 60.2509 59.0328 60.3095C59.0231 60.4268 59.0037 60.5391 58.9843 60.6368C58.9648 60.7394 58.9357 60.8274 58.9017 60.9006C58.8823 60.9397 58.8629 60.9739 58.8435 61.0032C58.7512 61.1449 58.6347 61.2914 58.5085 61.4331C58.4454 61.5064 58.3775 61.5748 58.3095 61.648C57.8095 62.1512 57.1639 62.6446 56.562 63.1575C56.4795 63.2259 56.3921 63.2992 56.3096 63.3724C56.1785 63.4897 56.0475 63.6069 55.9261 63.7242C55.6785 63.9587 55.4601 64.1931 55.2853 64.4374L54.8824 64.6377V61.1986L58.7076 57.0854C58.7804 57.0708 58.8289 57.0708 58.858 57.0854ZM54.4116 55.1998L57.9649 51.5507C58.0425 52.7866 59.1008 54.4133 58.1687 55.4685L54.7514 58.8343L54.4116 55.1998ZM59.0376 72.527C59.0182 72.6344 58.6784 73.1669 58.5765 73.2792L54.8145 76.6401C54.5087 76.6988 54.63 76.5082 54.6155 76.308C54.5329 75.1942 54.7999 73.9973 54.8193 72.8689L59.1056 68.956C59.324 69.0537 59.0376 69.2687 59.0376 69.2931C59.0376 70.1382 59.1833 71.8137 59.0376 72.527Z" fill="#B57273" fill-opacity="0.6"/>
</svg>
