<svg width="80" height="100" viewBox="0 0 80 100" fill="none" xmlns="http://www.w3.org/2000/svg">
<path d="M37.8809 0.0695653C50.2414 -0.790107 61.7967 6.38108 65.9748 18.0791C67.694 22.8781 67.6831 27.4485 67.5961 32.4977C69.337 33.5424 71.0235 34.4564 72.5685 35.7949C78.7705 41.2032 81.012 49.4626 79.5866 57.4717C77.0296 71.7814 60.0449 85.7321 48.9248 94.0676C46.8357 95.6346 43.713 98.2789 41.5803 99.4868C40.1659 100.292 39.6762 100.085 38.3706 99.3127C35.4981 97.6042 31.8639 94.6117 29.1328 92.5115C18.0672 84.0018 1.76793 70.1383 0.146705 55.4477C-0.745511 47.4059 2.45341 39.1139 9.15591 34.4564C10.1896 33.7382 11.332 33.205 12.3548 32.4868C12.3331 28.4714 12.3331 24.5865 13.2906 20.669C16.0869 9.24303 26.1407 0.874829 37.8592 0.0586852L37.8809 0.0695653ZM63.6029 31.2354C64.049 24.7171 63.0915 19.1021 59.2615 13.759C49.4144 0.0478033 28.3712 0.820418 19.7319 15.3804C16.7833 20.3644 16.076 25.4789 16.3589 31.2354C25.2267 29.1461 34.8779 32.7262 39.8068 40.3762C45.3995 32.8677 54.2781 29.059 63.6029 31.2354ZM61.0894 78.7241C66.9759 73.0002 74.4944 64.8605 75.8001 56.4488C79.0534 35.5229 53.9299 26.2297 42.6684 43.4884C42.2223 44.174 41.5804 45.7845 40.971 46.1001C38.5882 47.2971 37.8592 44.3481 36.8908 42.8682C29.2852 31.2789 11.9305 31.7577 5.7829 44.5331C1.11509 54.2398 5.94611 63.7397 12.0611 71.3244C19.7755 80.8896 30.0359 88.1914 39.7633 95.5367L40.2529 95.5802C47.5321 90.2589 54.6154 85.0139 61.0894 78.7241Z" fill="#B57273" fill-opacity="0.6"/>
<path d="M61.0897 78.724C54.6157 85.0137 47.5324 90.2588 40.2532 95.5801L39.7636 95.5366C30.0362 88.1913 19.7649 80.8895 12.0613 71.3243C5.9464 63.7396 1.11538 54.2397 5.78319 44.533C11.9308 31.7576 29.2855 31.2788 36.8911 42.8681C37.8595 44.348 38.5885 47.297 40.9713 46.1C41.5806 45.7953 42.2226 44.1739 42.6687 43.4883C53.9193 26.2187 79.0537 35.5228 75.8004 56.4487C74.4947 64.8604 66.9762 73.011 61.0897 78.724ZM44.1485 67.9944C50.3505 64.3816 49.0013 54.6423 41.8853 53.0427C32.7346 50.986 28.0124 63.3696 36.0315 68.0706C35.3895 71.6072 34.3776 75.1438 34.1383 78.724C34.3885 79.6163 35.0087 80.1278 35.9336 80.2039C37.8812 80.378 42.4946 80.4216 44.3987 80.2039C45.1604 80.1169 45.7153 79.5619 45.9982 78.8763C45.835 75.22 44.5619 71.6507 44.1702 67.9944H44.1485Z" fill="#B57273" fill-opacity="0.6"/>
</svg>
