<svg width="91" height="112" viewBox="0 0 91 112" fill="none" xmlns="http://www.w3.org/2000/svg">
<path d="M66.8959 5.50337C70.8367 3.71882 75.8213 4.29847 78.6594 7.73079C83.2461 13.2733 82.6523 21.1279 87.8458 25.7847C89.7378 27.478 93.2545 28.7155 88.9484 30.754C87.8784 31.262 86.717 31.5681 85.5492 31.3011C85.6405 31.8612 85.908 32.5711 85.9667 33.1052C86.1755 35.1437 85.3534 36.049 84.688 37.8141C84.4009 38.563 84.427 39.6572 83.7615 40.1848C82.2935 41.3571 81.1843 39.2143 79.1944 40.0675C77.5764 40.7644 76.539 42.8225 74.4512 43.6496C71.2803 44.9001 70.2951 43.5454 67.4962 43.2328C65.4606 43.0049 65.5062 43.9883 64.097 44.4898C62.1527 45.1867 61.5003 43.1742 61.7221 41.6176C58.0489 44.2879 57.1289 41.7023 57.7031 38.1788C55.5696 38.9799 53.0903 40.1327 50.8525 38.9213C49.0322 37.9378 50.9047 36.4007 51.5897 35.3001C55.4652 29.0151 52.6858 24.4104 53.1034 17.8975C53.3709 13.7227 56.7048 7.81546 61.1414 7.00786C61.9439 6.85806 62.5377 7.04693 63.301 7.00786C62.7725 5.2168 62.3811 3.15871 60.1758 2.81352C55.7719 2.12315 51.7006 7.29443 49.5998 10.5314C45.1828 17.3309 42.5991 25.4264 40.831 33.3006C37.5036 48.0915 37.5101 63.1885 37.6014 78.2985L40.4983 72.8081C43.4473 63.5923 49.9847 55.0017 60.763 59.691C64.8995 61.4886 68.9642 65.9109 70.8367 69.9815C72.4939 73.5831 70.2038 71.6553 68.7554 70.9128C62.1984 67.5652 57.951 73.4919 51.8638 74.4103C49.5215 74.762 47.5772 74.3842 45.3198 73.8176C44.7913 73.6873 43.369 73.023 42.9775 73.2705C42.423 73.6287 41.4639 75.2309 41.1116 75.8626C36.9686 83.2353 36.0747 91.9496 33.1127 99.8368C32.0883 102.559 29.0741 109.73 26.9014 111.404C26.1772 111.957 24.7549 112.498 24.6766 111.189C24.5657 109.333 27.2603 105.197 28.1541 103.334C31.8469 95.5903 35.2592 83.9126 33.3671 75.4328C32.669 72.2935 30.3398 66.2821 28.4477 63.7225C27.1298 61.9445 24.9898 62.6479 23.0325 62.5372C18.485 62.2767 13.8722 60.5442 10.8253 57.0924C7.89589 53.7708 6.61711 49.8565 2.61766 47.375C2.2001 47.1145 -0.0638615 46.105 0.00138236 45.7208C0.144919 44.8936 4.58803 43.9883 5.44272 43.832C12.8218 42.4903 20.3379 42.9788 25.316 49.2247C28.4738 53.1911 28.5391 56.4736 29.6286 61.1108C30.1767 63.436 31.7491 65.5787 32.7473 67.741C33.3541 69.0696 33.7781 70.4374 34.287 71.7986C34.3523 71.9809 34.3197 72.2414 34.5872 72.2805C34.3653 69.8121 34.4045 67.246 34.4371 64.7516C34.7046 46.6391 37.3144 19.2261 50.0173 5.21028C55.0737 -0.364793 63.3075 -3.10022 66.8894 5.49685L66.8959 5.50337ZM87.7087 28.5787C87.7087 28.5787 87.376 28.5201 87.2325 28.4159C82.8611 25.2311 81.615 22.2872 80.2579 17.1746C79.5272 14.4326 79.3901 11.619 77.2371 9.43718C75.208 7.37909 72.3047 7.37909 69.6231 7.43771C73.9488 9.93217 76.5977 15.6961 76.2323 20.6329C76.2128 20.8804 76.2454 21.1084 76.0105 21.2712C75.6321 19.8644 75.5407 18.412 75.1167 17.0052C74.2946 14.2698 72.2981 11.1892 69.845 9.65862C68.1225 8.5905 67.1047 8.43419 65.4149 9.68467C62.5181 11.8339 62.5311 16.8945 63.288 20.0663C64.11 23.4986 66.2696 25.967 67.444 29.0997C67.5353 29.3342 67.7311 29.3277 67.3983 29.5752C65.565 26.5597 63.1183 23.7787 62.1984 20.2943C61.4285 17.3765 61.5916 14.2828 62.3028 11.378L60.9522 12.9672C55.6609 20.7241 64.2275 27.1784 64.7429 34.8116C64.9191 37.4363 63.8752 39.5139 63.7381 42.0475C64.9452 41.2073 65.6694 39.8721 66.8242 38.9017C67.979 37.9313 68.8728 37.7229 70.1451 37.0586C73.7857 35.1568 72.3112 30.1027 76.552 27.9795C80.4667 26.0191 82.9981 29.243 86.7692 29.0086C86.9062 29.0021 88.0089 28.8913 87.7022 28.5852L87.7087 28.5787ZM52.8294 37.1758C56.7048 36.6678 60.8478 33.8607 61.2393 29.725C58.4664 24.8403 56.3069 20.7111 58.2446 14.9927L60.0062 11.2348C58.1598 12.4527 55.9611 14.0028 55.3412 16.2497C53.8928 21.5057 57.1159 27.4129 54.8063 33.3462C54.2778 34.7009 53.3056 35.8341 52.8294 37.1758ZM80.2448 29.2951C76.2323 28.8978 75.5342 32.493 74.3859 35.4108L73.2115 37.4624C75.0579 38.2895 79.6837 35.3717 79.9512 33.6588C80.0622 32.9294 79.9056 32.0045 79.9643 31.236C79.9904 30.9103 80.3623 29.4124 80.2514 29.3016L80.2448 29.2951ZM67.4701 41.4743C69.6427 41.7739 71.6261 42.6662 73.7857 41.8325C76.5194 40.7774 77.4263 37.4558 80.8973 37.7424C81.504 37.7945 81.8498 38.0746 82.3979 38.1202C82.6132 37.9834 83.7876 34.8181 83.8333 34.3817C83.9703 33.0336 83.0112 30.3958 81.5367 30.0116C81.367 30.2004 81.5823 34.2124 81.1387 35.1307C80.6494 36.1337 78.0266 38.0876 76.9761 38.5696C74.5947 39.6572 74.0271 38.9278 71.8414 38.8952C70.7127 38.8822 68.1225 40.4648 67.4701 41.4743ZM62.4463 33.737C61.9374 34.1342 61.6699 34.8051 61.2262 35.3131C60.5934 36.0491 59.7517 36.531 59.3994 37.5014C59.0471 38.4719 59.021 39.7289 59.5038 40.6146C59.7126 40.6537 61.1936 39.7354 61.4285 39.527C62.6551 38.4588 62.6094 35.2545 62.4463 33.737ZM26.2686 58.9551C22.3474 53.6014 16.88 49.5178 10.4796 47.6356L13.8788 49.3289C17.95 51.5043 21.3361 54.6239 24.6897 57.7371L26.2686 58.9485V58.9551ZM57.4225 65.4094C54.8258 65.3312 52.203 65.4745 49.7042 66.23C47.6359 66.8553 46.455 67.8061 44.7717 69.0501C44.7 69.1022 44.2498 69.1999 44.4977 69.4213C44.6347 69.5386 47.251 67.8843 47.7012 67.6759C49.8477 66.6924 52.1704 66.1063 54.4931 65.7155L57.416 65.4094H57.4225Z" fill="#B57273" fill-opacity="0.6"/>
<path d="M87.7095 28.5787C88.0162 28.8849 86.9135 28.9956 86.7765 29.0021C83.0054 29.2366 80.474 26.0126 76.5593 27.973C72.3185 30.0963 73.793 35.1503 70.1524 37.0521C68.8801 37.7164 68.032 37.8857 66.8315 38.8952C65.631 39.9047 64.9525 41.2073 63.7454 42.041C63.8759 39.5075 64.9264 37.4298 64.7502 34.8051C64.2348 27.1785 55.6682 20.7176 60.9595 12.9607L62.3101 11.3716C61.6054 14.2763 61.4423 17.37 62.2057 20.2878C63.1256 23.7722 65.5723 26.5597 67.4056 29.5687C67.7384 29.3277 67.5426 29.3342 67.4513 29.0933C66.2769 25.9605 64.1173 23.4921 63.2953 20.0598C62.5319 16.888 62.5254 11.8275 65.4222 9.6782C67.112 8.42771 68.1298 8.58402 69.8523 9.65215C72.312 11.1762 74.3019 14.2633 75.124 16.9987C75.5481 18.4055 75.6394 19.8579 76.0178 21.2647C76.2592 21.1019 76.2266 20.8739 76.2396 20.6264C76.5985 15.6962 73.9561 9.9322 69.6304 7.43123C72.312 7.37262 75.2153 7.37262 77.2444 9.43071C79.3909 11.6125 79.5345 14.4196 80.2652 17.1681C81.6223 22.2807 82.8684 25.2246 87.2398 28.4094C87.3898 28.5136 87.6965 28.5527 87.716 28.5722L87.7095 28.5787Z" fill="#B57273" fill-opacity="0.6"/>
</svg>
