<svg width="90" height="106" viewBox="0 0 90 106" fill="none" xmlns="http://www.w3.org/2000/svg">
<path d="M45.4284 15.6466C48.7391 24.0708 55.7183 30.8414 63.5196 35.2076C67.1098 37.2198 70.9406 38.6939 74.6818 40.3865C74.7825 40.5267 74.9223 42.2586 74.9391 42.6341C75.42 52.8462 73.5802 66.6846 67.9543 75.3777C57.5582 91.4413 38.1528 94.0363 25.078 79.402C17.6402 71.0788 15.3418 60.5753 15.0006 49.6402C14.9056 46.6135 15.1964 43.5477 14.8608 40.5435C18.0652 39.2375 21.3927 38.2735 24.4908 36.6985C32.7059 32.5341 40.0207 25.8251 44.3156 17.6252C44.612 17.0591 44.8021 16.3304 45.1376 15.8148C45.2215 15.6859 45.1209 15.5794 45.4284 15.6466ZM36.1843 39.826C35.2113 39.9606 34.9205 40.8237 34.3109 41.3898C32.0908 43.4412 28.6403 44.9265 25.6149 45.0834C24.3957 45.1451 21.8904 44.3884 21.4262 45.8961C20.5762 48.6425 24.4517 48.4968 26.1461 48.3791C29.7084 48.1325 35.3455 45.6439 37.5377 42.7686C38.5946 41.3842 37.9012 39.5962 36.1955 39.826H36.1843ZM53.3024 39.8373C51.7925 39.9213 51.401 41.3562 52.1224 42.5388C53.9511 45.5318 60.153 48.1325 63.542 48.3847C65.0519 48.4968 68.7204 48.7322 68.452 46.3781C68.2227 44.3268 65.7677 45.1227 64.4591 45.089C61.7356 45.0218 58.3075 43.7439 56.2272 41.9895C55.4051 41.2945 54.4768 39.7756 53.2968 39.8429L53.3024 39.8373ZM34.9988 52.4987C34.2214 52.6051 33.1869 53.8831 32.3536 54.3427C30.2565 55.4973 27.7847 55.3684 25.7267 54.2137C24.7536 53.6645 23.5904 52.3025 22.595 53.8046C21.0851 56.0746 25.2066 57.8345 26.8899 58.1988C29.9769 58.8714 34.8142 57.9074 36.5926 55.0321C37.3643 53.7822 36.3801 52.3193 35.0044 52.5043L34.9988 52.4987ZM54.2196 52.5043C53.0508 52.7397 52.6369 54.1353 53.2745 55.1105C54.9018 57.6047 59.1632 58.664 61.9593 58.4174C63.8383 58.2492 69.1902 56.1474 67.1658 53.5972C66.1144 52.2745 64.7834 53.7766 63.911 54.3034C62.0376 55.4356 59.6665 55.4804 57.7203 54.4828C56.5516 53.8831 55.4946 52.2464 54.2196 52.5099V52.5043ZM43.8234 68.2259C41.1056 68.4669 38.3318 69.7112 36.2794 71.488C35.3287 72.3119 32.6724 75.0639 34.3221 76.2185C36.1676 77.502 37.5209 74.6939 38.7121 73.6626C42.2967 70.5632 47.6542 70.5239 51.2277 73.6626C52.4021 74.6939 53.3248 77.02 55.187 76.4427C55.5505 76.3306 56.0427 75.7477 56.0986 75.3721C56.3391 73.7131 53.4199 71.2133 52.1392 70.3782C49.6227 68.7304 46.8489 67.9569 43.829 68.2259H43.8234Z" fill="#B57273" fill-opacity="0.6"/>
<path d="M82.1815 46.0082C81.0127 45.3693 79.7041 45.2123 78.4179 44.9601C78.0656 43.1329 78.5353 39.3833 77.1093 38.0886C75.4316 36.5752 70.0518 34.6976 67.7086 33.515C59.225 29.2329 51.6922 22.8489 48.1355 13.7971C47.5427 12.2893 47.2183 10.4622 46.6423 9.08896C46.2676 8.20339 45.2498 7.85029 44.3886 8.33231C43.5274 8.81433 43.259 11.0619 42.929 12.0203C39.6519 21.6271 31.6437 29.5411 22.601 33.8905C19.7601 35.2581 16.3488 36.1381 13.6365 37.5785C12.6355 38.111 12.2216 38.4361 11.9364 39.5682C11.5058 41.2721 11.5729 43.2114 11.394 44.9601L8.49155 45.6159C8.37412 45.6159 8.40767 45.1563 8.41885 45.0162C9.69949 27.1815 14.5984 9.1338 33.1145 2.58171C48.6052 -2.89985 66.1819 2.89558 74.8052 16.9022C80.2801 25.7915 81.1078 35.841 82.1759 46.0138L82.1815 46.0082Z" fill="#B57273" fill-opacity="0.6"/>
<path d="M84.5511 60.1323C84.7524 60.25 84.8475 60.7937 84.909 61.0291C85.6025 63.669 86.0051 66.4434 86.5923 69.1113C88.3595 77.1991 92.0392 88.6499 88.0016 96.3902C84.456 103.178 76.5765 105.605 69.3624 105.655C68.9877 105.526 67.7182 101.782 67.5281 101.16C65.8672 95.7232 65.2632 89.7877 65.0898 84.1212C69.9496 79.4635 73.3161 73.4327 75.2679 66.9983C79.1825 66.1071 82.7168 63.7643 84.5567 60.1379L84.5511 60.1323Z" fill="#B57273" fill-opacity="0.6"/>
<path d="M20.381 105.644C19.7714 105.997 14.5034 104.876 13.5024 104.607C6.1709 102.64 1.04834 97.8475 0.254228 90.0287C-0.154011 85.9988 0.684836 82.109 1.47894 78.1912C2.70366 72.166 4.32543 66.2192 5.25935 60.1323L7.55779 63.1702C8.85521 64.3696 10.2533 65.3897 11.8862 66.0959C12.6748 66.4378 13.5136 66.6172 14.2742 67.0039C16.5838 73.3374 19.9727 79.3178 24.7206 84.1212C24.5976 88.7508 24.111 93.3916 23.1268 97.9147C22.5508 100.56 21.8573 103.368 20.3754 105.649L20.381 105.644Z" fill="#B57273" fill-opacity="0.6"/>
<path d="M80.4029 48.5134C80.7496 48.6031 81.6109 49.64 81.8401 49.9763C85.0222 54.7068 81.1187 61.5167 76.2534 63.299C77.3663 58.4452 78.1268 53.5017 78.3617 48.5134C78.9265 48.6087 79.8996 48.3845 80.4029 48.5134Z" fill="#B57273" fill-opacity="0.6"/>
<path d="M11.4556 48.5132C11.8302 53.4231 12.0819 58.389 13.2954 63.1644C8.7377 61.0401 4.75597 54.8916 7.97714 50.1106C8.20084 49.78 9.05087 48.7374 9.35285 48.5861C10.0239 48.2554 10.7509 48.5861 11.4556 48.5132Z" fill="#B57273" fill-opacity="0.6"/>
</svg>
