<svg width="239" height="260" viewBox="0 0 239 260" fill="none" xmlns="http://www.w3.org/2000/svg">
<path d="M89.1157 199.26C94.7242 209.903 101.888 220.717 114.012 224.477C120.644 226.536 131.387 225.495 136.691 229.706C140.54 232.758 135.212 233.32 135.592 236.496C136.077 240.566 144.423 240.642 147.476 240.49C152.4 240.238 160.389 237.852 164.336 241.56C164.787 241.981 166.535 245.063 167.301 244.303C167.325 242.946 166.208 241.385 165.255 240.484C158.751 234.332 146.932 241.028 139.393 237.8C135.241 236.022 139.042 235.267 139.785 233.443C141.733 228.659 133.627 225.887 130.194 225.115C125.404 224.039 120.31 224.232 115.532 222.963C103.748 219.834 96.4728 209.167 91.1743 198.95L94.461 198.043C97.6425 201.628 102.239 203.388 106.982 203.757C110.819 213.974 120.919 219.442 131.615 218.927C146.4 218.208 157.687 216.377 171.413 210.833C189.823 203.394 204.947 189.926 225.486 188.785C228.545 188.616 233.674 189.493 236.194 188.709C243.165 186.545 235.317 177.533 232.323 175.001C230.592 173.533 228.474 172.58 226.919 170.889C225.059 168.866 223.726 166 221.842 163.912C221.03 163.012 220.012 162.602 219.363 161.614C222.1 148.227 217.948 133.759 209.789 123.004C207.286 119.705 204.204 116.945 201.566 113.781C194.075 104.81 188.788 94.1893 181.261 85.2414C182.162 85.1478 183.799 86.1888 184.536 86.7268C188.601 89.7212 188.618 94.8969 193.028 98.2187C197.438 101.541 203.719 100.248 206.959 104.903C207.736 106.02 207.76 107.412 209.017 108.237C211.661 101.541 202.496 99.2948 200.239 94.4992C197.981 89.7036 200.11 84.9724 197.069 79.9078C193.122 73.3401 184.507 72.9717 182.127 66.9363C180.162 61.9535 180.899 58.4036 176.992 53.6782C170.512 45.8415 164.763 47.2509 156.207 44.9643C150.599 43.4613 151.26 41.4904 147.973 37.6598C141.054 29.5891 136.265 31.1272 127.492 28.0042C119.831 25.2789 113.333 14.9099 107.052 9.4301C91.3147 -4.29582 68.8163 -2.8162 55.3594 13.249C49.862 19.8108 48.166 28.3025 45.1425 36.0164C40.8615 46.9351 40.3469 55.035 46.78 65.2636C50.2714 70.8195 57.0554 77.0538 57.8858 83.6799C58.4707 88.3702 57.342 91.3704 59.0731 96.4292C61.0498 102.201 67.4595 107.746 68.0385 113.477C68.6175 119.208 64.2429 126.185 69.3076 131.074C68.8397 127.419 72.4364 125.554 73.8107 122.723C74.6529 120.986 74.5476 119.062 75.5009 117.442L78.7701 121.442C76.4191 128.794 70.8281 134.531 68.6701 142.005L59.7398 176.048C59.2953 176.656 47.3356 178.732 45.1366 179.685C41.92 181.083 37.8145 184.311 34.3875 186.066C33.1301 186.709 31.668 186.867 30.51 187.58C29.6445 188.113 28.545 189.891 28.1883 190.013C27.3344 190.306 23.919 189.937 22.533 190.072C6.80112 191.598 -3.12343 206.295 0.894348 221.536C4.36823 234.712 18.0006 241.981 29.4515 247.215L61.7808 259.789C62.2721 259.684 62.7165 259.491 63.1318 259.216C64.6699 258.187 67.5297 255.385 69.0034 253.988C81.4661 242.139 94.5137 223.027 87.4021 205.131C86.56 203.008 85.0043 201.382 84.5423 199.271H89.1391L89.1157 199.26ZM62.6288 13.3894C69.869 4.99125 81.1445 2.17238 91.8761 4.60527C102.608 7.03815 109.509 17.9043 116.234 25.1269L110.877 21.4483C98.5899 10.1553 87.677 1.82148 70.3486 9.21371L62.6347 13.3894H62.6288ZM78.9631 9.90381C77.3022 9.73421 75.419 10.0266 73.7289 9.90381C73.6528 9.4301 74.3195 9.50613 74.6763 9.4301C84.7178 7.15512 91.5018 8.41835 99.7128 14.5356C105.713 19.0037 111.877 26.1679 119.258 28.2967C120.117 28.5423 120.229 28.5774 119.24 28.63C117.626 28.32 115.971 27.9107 114.404 27.437C101.52 23.4952 92.7416 11.3074 78.9631 9.90966V9.90381ZM59.1432 19.419C58.8099 19.0798 60.1258 17.9277 60.4065 17.6703C70.0035 8.78679 83.0569 11.8688 93.2914 17.7756L108.936 28.2908C92.0691 27.437 75.9571 8.80433 59.1432 19.4131V19.419ZM64.6933 21.6413C63.2663 21.4893 61.4299 21.6413 59.9328 21.6413C59.7573 21.6413 58.8274 22.425 58.8274 21.6413C60.231 21.1618 61.4182 19.9921 62.7341 19.3605C74.1207 13.8748 86.8934 23.8812 97.3559 27.6709C100.11 28.6709 103.128 29.7236 106.082 29.5716L105.614 30.2032C99.1689 30.3026 92.5662 31.3436 86.2851 29.5423C79.1502 27.5013 72.4773 22.4659 64.6933 21.6355V21.6413ZM55.9676 25.7644C58.418 23.7701 62.2896 23.5946 65.319 23.8637C75.8752 24.8111 84.9985 34.1508 95.929 32.7414C95.5079 33.3964 93.6715 33.6244 92.9112 33.6829C87.5191 34.1157 82.9399 33.1741 77.8519 31.6243C73.5417 30.3143 64.3775 25.7585 60.5644 25.7585H55.9676V25.7644ZM54.0669 29.2558C56.5057 27.3551 59.4591 27.8639 62.3247 28.4487C70.7521 30.1681 78.7525 36.0632 87.8349 36.5603C93.8645 36.8878 99.204 33.9636 104.812 32.5835C110.924 31.0804 121.802 30.6184 127.644 32.9109C136.879 36.5252 139.996 45.9702 146.68 52.4091C143.511 51.4383 140.206 49.7949 137.803 47.4966C129.779 39.8119 127.72 34.221 114.801 33.3847C104.947 32.7472 103.824 34.4841 95.7301 38.0925C87.2326 41.8822 80.5421 40.9991 72.0621 37.7475L54.0669 29.2616V29.2558ZM131.141 32.1097C135.37 33.0864 139.967 35.0397 143.201 37.9697C148.406 42.6951 149.675 50.3681 156.751 53.2805C159.658 54.4794 162.775 54.5905 165.5 56.269C173.489 61.1874 172.74 72.0827 179.565 77.0947C182.174 79.0071 185.624 79.9136 188.203 82.095C191.572 84.9314 192.315 88.7913 192.665 93.0079L190.303 87.2883C187.917 82.9489 182.419 81.4868 178.741 78.5509C174.98 75.5449 174.308 70.995 171.869 67.024C168.512 61.5558 162.506 56.8187 156.593 54.3858C153.885 53.2747 150.798 52.9472 148.429 51.1284C143.013 46.9702 140.692 39.8002 135.411 35.2854C134.054 34.1274 132.487 33.2619 131.136 32.1097H131.141ZM55.0202 32.4314C66.0735 35.7649 76.6062 44.59 88.7122 42.4904C89.9695 42.2741 91.2269 41.7243 92.4317 41.4494C92.7533 41.3734 93.4668 41.0284 93.3966 41.619C89.3087 44.0285 84.7529 46.1749 79.8988 46.3854C71.372 46.7597 60.6463 38.3148 55.0202 32.4255V32.4314ZM95.2973 48.2861C92.9697 51.0465 89.028 51.9003 85.5833 52.3682C78.2379 53.3565 70.6585 51.3038 64.2079 47.8182C59.4415 45.2391 52.7394 40.2505 52.7979 34.3321C64.5178 43.8706 79.4309 54.8829 95.2973 48.2919V48.2861ZM85.4664 47.6545C94.8821 45.4672 98.4203 36.4492 108.783 35.6012C123.591 34.3964 129.282 40.4903 138.428 50.6663L141.92 52.7191C136.651 52.8945 134.229 48.561 130.826 45.5842C121.188 37.1451 111.883 36.9697 100.473 42.2039C96.2038 44.163 91.9989 47.4088 87.1682 47.9293C86.7939 47.9703 85.4664 48.2568 85.4664 47.6545ZM44.8676 52.7249V46.2216C44.8676 45.7304 45.4758 43.5548 45.6747 42.9057C45.7097 42.7887 46.1191 41.2857 46.4583 41.7886C45.9788 43.9934 45.2887 46.1456 45.4992 48.444L44.8676 52.7249ZM115.603 42.5782C119.913 42.3559 124.65 44.128 127.978 46.8533C129.931 48.4498 131.375 50.8418 133.212 52.4033C139.165 57.4328 148.517 55.5847 155.634 57.2574C163.535 59.1113 169.313 65.6321 172.056 73.0243L164.909 66.059C154.283 57.0527 146.335 61.5617 135.101 57.4913C127.931 54.8946 125.065 50.2394 119.872 45.1222L115.597 42.5782H115.603ZM74.0505 72.7085C75.5184 74.9893 70.5708 77.6737 68.8456 77.4573C65.5003 77.0362 65.9974 70.106 65.4009 67.562C64.5412 63.9069 60.8626 62.0763 58.5116 59.544C54.4588 55.1637 52.3475 48.444 51.8504 42.5782C54.0494 44.011 55.7454 46.3795 57.7689 47.9176C67.2724 55.1344 86.6887 59.9944 96.9875 52.3565C98.9291 50.9178 100.286 48.9294 100.105 46.4322C101.994 45.7889 103.169 44.2449 104.818 46.2216C106.994 48.8358 106.31 55.3333 102.929 56.3918C102.339 56.579 100.391 56.2631 100.695 57.0059C102.023 58.4738 104.356 58.8305 106.082 57.8012C107.959 68.2112 115.603 77.0362 126.878 76.5275C128.656 76.4456 130.346 75.8373 132.095 75.7204C130.703 78.0597 129.34 80.4692 128.235 82.9606C125.814 88.4229 121.492 106.646 113.626 94.8209C112.152 92.6044 110.199 88.4112 109.591 85.8438C109.322 84.7092 111.854 86.4812 112.205 86.721C113.386 87.5105 116.918 90.7856 117.702 91.0546C117.942 91.1365 118.199 91.1072 118.445 91.1014C116.509 83.446 107.918 81.2645 102.315 76.9953C103.731 74.5917 103.836 71.9015 103.222 69.2171C102.654 69.0943 102.596 69.3808 102.321 69.7434C101.52 70.7903 101.093 73.1705 100.426 74.5098C99.4028 76.5508 93.8411 83.3582 92.0925 84.8905C90.6304 86.1713 87.5659 86.9959 85.7822 86.183C85.1798 85.9081 83.94 83.7267 82.9048 83.0366C81.5889 82.1652 80.6357 82.4752 79.4426 81.7441L83.4078 79.3697C83.706 79.1533 83.2323 78.8317 83.0452 78.779C80.1503 77.9778 75.8693 82.5453 74.0681 77.6562C76.3489 76.1999 77.4659 73.498 74.0447 72.7085H74.0505ZM111.474 43.8472C120.796 45.1339 123.667 54.9531 131.691 58.3568C133.563 59.1522 135.598 59.5557 137.551 60.1172C137.879 60.2107 138.51 60.1932 138.434 60.6494C133.65 61.088 128.726 61.4506 124.381 59.006C121.246 57.2398 119.357 53.1636 117.17 50.3564C115.392 48.0756 113.415 45.976 111.474 43.8414V43.8472ZM130.668 67.6322C132.522 67.8837 135.341 67.6322 137.329 67.6322C137.504 67.6322 138.434 66.8485 138.434 67.6322C128.299 71.3634 119.188 67.4158 113.959 58.3334C111.491 54.0466 109.573 48.8534 107.988 44.1631C114.86 50.8067 119.866 66.176 130.662 67.6322H130.668ZM56.9267 74.2934C55.1606 70.8955 52.4177 68.0825 50.5229 64.6788C46.8268 58.0235 46.0489 51.5904 48.0432 44.1689L49.0433 52.5202C49.4936 60.0411 54.757 66.0064 56.9384 72.8547C57.032 73.153 57.611 74.3051 56.9267 74.2934ZM154.926 48.2861C161.073 49.2861 167.413 49.5727 172.378 53.8303C177.343 58.0878 176.664 64.7724 179.033 70.1704C174.916 67.9246 174.46 62.9477 171.998 59.2867C170.337 56.8187 167.67 54.304 165.038 52.9238C161.763 51.2044 157.558 50.8593 154.926 48.2861ZM128.603 73.0243H123.053C122.808 73.0243 120.901 72.305 120.457 72.1295C115.018 69.9774 110.269 63.2928 110.047 57.4796C112.322 63.6203 116.386 69.492 122.814 71.6734L128.603 73.0243ZM122.895 60.9769C125.615 61.936 128.369 63.0062 131.288 63.2051C136.329 63.5501 141.171 61.6845 146.195 61.5968C154.482 61.4506 161.763 64.749 167.301 70.802L162.757 67.8954C157.12 64.6847 151.242 62.6495 144.628 63.1992C139.481 63.6261 135.259 66.2813 129.861 64.9478C127.387 64.3396 124.702 62.7664 122.895 60.9769ZM68.9742 124.407C68.8338 124.244 70.2141 121.764 70.3953 121.232C74.5008 109.003 64.6582 104.704 62.2253 95.1601C60.9094 89.9902 61.5293 84.4226 60.6287 78.9954C59.8333 74.2115 58.4297 69.568 56.6109 65.0999C62.1609 70.3283 65.3541 78.5334 64.8512 86.1888C64.5354 90.9318 62.9212 93.6512 64.7927 98.6223C66.6641 103.593 72.0036 108.067 72.6996 113.231C73.1674 116.699 71.8574 121.021 69.793 123.811C69.6702 123.975 69.4538 124.969 68.9742 124.407ZM128.282 130.753C127.907 131.022 121.375 126.162 120.673 125.524C114.895 120.284 113.263 111.839 109.514 105.283C106.228 99.5346 100.742 95.7449 98.701 89.1363C96.2097 81.0774 99.2742 79.1007 106.409 83.0132C106.865 85.7502 107.362 88.2766 108.38 90.8733C113.228 103.219 121.509 106.33 127.925 92.8091C131.41 85.4578 136.282 72.2874 144.142 68.4276C149.575 65.7608 158.172 69.761 162.833 72.9015C177.91 83.0658 185.577 99.2071 196.35 112.968C200.414 118.156 205.45 122.255 209.111 127.805C218.269 141.701 222.381 166.462 204.736 175.644C202.795 176.656 199.525 177.147 198.227 178.013C195.701 179.697 191.42 186.814 188.73 189.446C181.548 196.476 172.816 195.669 163.664 196.096C161.207 196.213 159.003 196.985 156.371 196.721C150.429 196.131 144.546 190.002 139.569 186.885C134.288 183.58 128.293 180.913 121.96 180.867L132.908 174.217C136.013 171.732 140.464 169.574 143.218 166.766C147.224 162.679 147.119 158.14 152.95 154.608C160.038 150.309 167.436 149.649 175.366 148.479C177.121 148.222 181.565 147.099 176.992 146.619C173.425 146.245 168.962 147.514 165.342 147.654L155.581 149.947C166.874 142.888 183.981 142.525 192.32 131.18C193.496 129.577 194.782 127.367 195.104 125.402C195.151 125.121 195.443 124.437 194.753 124.735C194.198 124.975 191.408 129.244 190.63 130.127C184.016 137.671 171.033 141.145 161.424 143.42C159.102 143.97 156.704 144.484 154.312 144.391L161.786 122.846C166.91 119.869 173.413 117.524 175.881 111.564C174.799 111.249 173.945 112.682 173.132 113.255C170.05 115.43 166.798 117.506 163.196 118.699C163.003 118.501 164.36 113.839 164.646 113.331C165.395 112.009 168.266 110.506 169.53 109.021C183.624 92.4816 162.746 64.2987 144.628 79.6797C133.352 89.2533 136.621 100.038 134.112 112.617C132.873 118.846 130.522 124.84 128.299 130.753H128.282ZM177.448 71.7611C177.852 71.3751 179.583 73.498 180.004 73.8021C182.326 75.4397 186.121 75.7496 188.823 77.0362C197.502 81.1651 194.326 89.1363 197.426 96.4993C194.356 94.2243 194.952 89.6802 193.63 86.183C190.385 77.5918 181.981 78.6972 177.448 71.7611ZM103.678 167.995C110.637 161.801 117.439 155.356 125.732 150.877L126.135 150.327C129.282 137.771 135.311 124.671 137.651 112.044C139.61 101.459 136.756 93.0138 144.768 83.9548C155.143 72.2348 169.687 80.8552 170.781 94.7507C171.214 100.295 169.196 104.318 165.869 108.541C165.617 107.482 168.044 99.0141 166.506 99.0316C165.95 99.5872 165.67 100.342 165.342 101.032C161.675 108.839 159.161 119.922 156.201 128.367C152.827 137.999 149.084 148.689 144.832 157.912C142.458 163.059 141.557 164.462 136.949 167.79C130.51 172.445 121.702 177.586 114.655 181.335C111.17 183.188 105.801 184.879 102.807 186.931C98.9174 189.598 97.9875 193.809 92.5837 195.423C90.7181 195.979 84.0628 196.803 82.1387 196.733C81.4018 196.704 78.7233 195.47 80.2322 195.131C82.7937 194.546 86.8524 194.294 87.6887 191.323C87.0571 190.756 77.8051 193.821 76.0389 193.78C75.5945 193.768 74.7757 193.037 74.7114 192.704C74.4541 191.236 82.589 187.978 83.8639 187.019C84.3026 186.686 84.9166 186.247 84.8347 185.615C81.9632 184.586 70.0386 193.019 68.6584 191.639C68.1671 189.253 69.7345 189.276 71.0328 188.142C72.3311 187.007 73.4599 185.744 74.8985 184.715C76.2144 183.773 82.4311 180.65 82.7762 179.902C82.9282 179.574 82.6534 179.346 82.4253 179.288C81.1445 178.943 76.115 181.598 74.7874 182.387C73.3955 183.218 69.1204 186.966 68.4303 187.142C67.0092 187.499 67.4536 186.019 67.7928 185.224C68.4362 183.721 72.7522 178.13 74.0681 177.229C74.8634 176.691 81.0217 174.352 81.9048 174.252C83.1095 174.118 86.6887 175.691 87.9928 176.264C90.8877 177.545 93.461 179.633 96.5664 180.218C97.046 179.773 93.847 177.147 93.4025 176.89C96.9641 174.053 100.298 170.995 103.678 167.983V167.995ZM68.6584 102.201C67.3952 99.8036 66.1787 97.2245 66.1027 94.4407C66.0267 91.657 67.0911 89.0954 67.3835 86.4988C67.6174 84.3992 67.4478 82.4225 67.3893 80.3171C69.7403 82.7968 70.6585 86.6157 70.2141 89.9668C69.7228 93.6278 68.4537 94.8852 68.6409 99.5229C68.6701 100.26 69.3953 101.827 68.6584 102.201ZM78.8052 114.576C75.9746 111.231 72.992 105.792 72.5007 101.383C71.834 95.4408 74.8283 89.7972 73.4247 83.8144L75.7933 87.9433C78.2671 95.2595 74.3546 103.348 76.8986 110.629C77.4074 112.085 78.5011 113.097 78.811 114.582L78.8052 114.576ZM78.8052 86.3467C79.3783 86.2239 79.5713 86.6508 79.9222 86.9725C83.9049 90.6101 80.8345 98.5638 80.6942 103.301C80.6123 105.997 81.0685 109.108 81.6591 111.717C80.8111 111.892 81.1152 111.506 80.8696 111.091C77.0799 104.669 81.8463 93.3997 78.8052 86.3467ZM61.9153 177.293L72.144 141.689C73.6528 137.104 76.6296 133.25 78.8637 129.063C84.4897 118.524 86.2442 106.862 90.221 95.6981C90.6479 94.4992 93.1159 87.8205 93.7066 87.4462C94.0224 87.2474 94.3207 87.2766 94.6657 87.3C96.5547 95.7391 103.561 101.201 107.292 108.658C103.766 116.653 100.198 124.641 96.7477 132.671C94.4259 138.063 92.7416 143.496 89.9754 148.73C85.3845 157.421 79.776 165.784 75.0038 174.358C71.6235 175.825 68.5239 180.194 66.5121 183.311C65.0325 185.598 63.664 187.241 66.7226 188.955L66.0852 190.341L62.6464 190.388L63.9096 189.282L63.1201 188.791C59.5409 189.446 51.2422 191.633 48.0783 189.896C45.5869 188.534 47.2361 187.417 49.0783 186.82C49.6749 186.627 55.3243 185.925 54.4003 184.691C52.4177 183.908 45.5694 186.113 44.8091 187.937C44.5693 188.51 44.6395 189.592 44.5342 189.721C44.3178 189.984 38.6684 191.569 38.0368 191.628C36.7092 191.756 35.6916 191.481 34.4225 191.341C34.2646 190.598 34.5278 190.832 34.8319 190.633C38.376 188.329 43.733 186.809 47.2244 184.639C47.5461 184.44 47.8093 184.177 48.0549 183.89C47.8268 183.592 47.6572 183.446 47.2654 183.393C45.5401 183.159 37.411 187.358 35.4753 188.434C34.0307 189.236 32.2704 191.341 30.9311 190.236C32.2996 188.709 34.4518 188.341 36.3291 187.387C40.3001 185.358 44.8266 181.837 48.8678 180.58C52.909 179.323 57.763 178.849 61.927 177.305L61.9153 177.293ZM79.121 172.931L94.5721 146.678L109.251 112.67C111.591 118.331 114.211 124.437 118.936 128.519C120.386 129.77 126.58 133.46 126.966 134.782C127.112 135.156 126.989 135.519 126.948 135.893C126.773 137.443 124.562 145.49 123.913 146.835C123.322 148.064 118.55 150.69 117.082 151.742C113.912 154.011 110.702 156.351 107.818 158.971C104.099 162.345 100.941 166.737 97.2039 169.925C96.1453 170.831 91.917 173.972 90.8409 174.358C89.4666 174.849 88.3203 173.422 86.9226 173.27L86.7413 172.621C87.1156 172.58 87.4255 172.416 87.6945 172.159C88.6946 171.199 92.999 167.293 92.7182 166.176C92.5135 165.357 91.2971 165 90.683 165.62C88.9286 167.69 86.7939 169.346 84.8114 171.17C84.4488 171.504 84.2148 172.229 84.1622 172.27C84.0686 172.34 82.7352 171.907 81.8463 172.007C80.8228 172.129 80.0918 172.802 79.121 172.931ZM218.053 165.006C218.415 164.679 220.41 166.842 220.749 167.223C222.439 169.135 223.609 171.498 225.498 173.258C228.299 175.866 235.241 179.843 236.06 183.949C236.726 187.3 233.966 185.966 232.176 185.925C230.217 185.879 228.252 185.99 226.293 185.937C227.726 182.919 227.252 181.118 224.854 178.972C222.457 176.826 215.497 172.995 216.199 169.369C216.45 168.065 218.1 166.515 218.047 165.006H218.053ZM135.586 203.383C137.487 204.043 139.557 203.564 141.434 203.049C144.16 202.306 148.897 199.195 150.996 198.95C152.692 198.751 155.02 199.944 156.997 199.92C159.114 199.897 161.5 199.096 163.652 198.95C171.319 198.435 176.705 199.265 184.191 196.014C191.004 193.054 193.262 188.089 197.9 183.083C200.941 179.796 202.648 180.574 206.204 178.703C208.614 177.434 210.655 175.504 212.865 173.96C213.38 173.872 220.462 179.118 221.363 179.931C223.702 182.025 225.047 183.247 222.474 186.101C218.772 186.961 214.977 187.563 211.31 188.581C199.952 191.733 189.297 199.657 178.507 204.622C163.167 211.675 152.868 214.032 136.054 215.453C130.293 215.939 127.621 216.997 121.691 214.904C111.158 211.184 104.105 197.569 111.789 188.025C116.006 182.785 119.533 183.025 125.796 184.153C134.475 185.721 140.955 191.744 147.938 196.581L135.569 203.394L135.586 203.383ZM106.403 200.844C103.239 200.341 99.2332 199.254 97.6015 196.242C100.953 193.031 103.485 188.692 108.31 187.528C107.889 188.879 107.052 190.025 106.637 191.405C105.713 194.464 105.467 197.768 106.409 200.85L106.403 200.844ZM40.7445 193.242L45.6629 191.358L49.3123 192.61L45.1834 197.365L40.7504 193.247L40.7445 193.242ZM49.9439 222.419H54.8623L55.336 221.629C55.0436 220.202 50.2305 221.109 49.0433 220.781L45.5343 213.658C45.3881 213.003 45.5869 213.301 45.9846 213.231C47.0724 213.038 52.289 212.874 52.482 212.582C53.0259 211.722 51.675 211.208 50.979 211.079C49.1134 210.728 47.0373 211.342 45.1892 211.634V206.242C45.9144 205.897 53.1604 207.681 51.3884 205.272C50.9907 204.728 46.7332 204.213 45.8209 204.336C46.3764 202.125 47.1075 198.891 48.6748 197.201C50.2422 195.511 56.2016 192.92 58.3479 192.92H63.8979C61.4475 195.979 58.6695 198.85 56.2951 201.967C56.0086 202.342 54.3769 204.353 54.7044 204.652L55.9852 204.19L66.0033 193.593C68.0911 193.008 70.2374 194.107 72.4598 192.914C72.4481 195.791 74.9511 195.16 76.4366 196.078C79.9573 198.254 83.8815 203.406 85.1623 207.336C91.3322 226.261 75.0272 245.18 61.775 256.619L27.9485 243.303C21.3692 239.858 14.0881 236.051 9.18721 230.349C-7.27571 211.202 11.5441 186.224 34.8963 194.177C38.6567 195.458 42.3236 197.546 43.8675 201.406L42.9669 206.242C42.6394 206.541 39.5983 204.488 38.9316 204.388C37.2414 204.149 37.9315 205.535 38.8731 206.371C39.9141 207.295 41.3586 207.646 42.4756 208.453L42.9727 211.95C41.5633 212.254 39.9492 212.594 38.6333 213.167C37.99 213.447 36.3349 214.003 36.6274 214.962C37.1186 216.565 42.0429 213.412 43.271 213.874L47.0958 221.465C46.1133 221.705 40.879 222.951 41.0896 224.126C41.1422 224.431 41.7271 224.898 42.1189 224.893C43.1657 224.887 47.0022 222.536 48.0491 223.191L51.8621 231.788C51.8563 232.63 48.5695 233.215 47.6514 233.595C46.5519 234.045 44.2535 234.805 44.2477 236.209C44.6103 237.49 48.0783 235.186 48.9204 234.864C49.6632 234.583 52.2832 233.636 52.8096 233.975L57.1782 242.572C57.0788 243.227 51.7101 244.455 52.1779 246.046C52.6458 247.637 57.1139 244.204 58.1958 244.303C59.0672 245.654 60.1141 253.087 60.8977 253.496C61.5177 253.818 61.3539 252.958 61.3714 252.707C61.5761 249.701 60.079 246.426 59.4532 243.525C63.2254 242.414 61.582 240.449 58.5175 242.081L54.6985 233.361L58.3069 233.15L58.8274 231.612L53.7745 231.922L49.9498 222.413L49.9439 222.419Z" fill="#3A3A3A"/>
<path d="M128.281 130.753C130.504 124.84 132.855 118.84 134.095 112.617C136.604 100.038 133.334 89.2533 144.61 79.6797C162.722 64.2987 183.606 92.4816 169.512 109.021C168.243 110.506 165.377 112.009 164.629 113.331C164.342 113.834 162.985 118.495 163.178 118.699C166.781 117.506 170.032 115.43 173.114 113.255C173.927 112.682 174.781 111.249 175.863 111.565C173.401 117.524 166.898 119.869 161.769 122.846L154.295 144.391C156.692 144.484 159.084 143.97 161.406 143.42C171.015 141.139 183.998 137.671 190.612 130.127C191.39 129.238 194.18 124.975 194.736 124.735C195.426 124.437 195.133 125.115 195.086 125.402C194.765 127.372 193.478 129.583 192.303 131.18C183.969 142.525 166.863 142.894 155.564 149.947L165.324 147.654C168.939 147.508 173.407 146.245 176.974 146.619C181.548 147.099 177.103 148.222 175.348 148.479C167.418 149.649 160.02 150.309 152.932 154.608C147.107 158.14 147.212 162.679 143.2 166.766C140.446 169.574 135.995 171.737 132.89 174.217L121.942 180.867C128.276 180.919 134.276 183.58 139.551 186.885C144.528 190.002 150.417 196.131 156.353 196.721C158.991 196.985 161.196 196.207 163.646 196.096C172.799 195.663 181.53 196.476 188.712 189.446C191.402 186.814 195.689 179.697 198.209 178.013C199.508 177.147 202.783 176.65 204.719 175.644C222.363 166.462 218.251 141.695 209.093 127.805C205.432 122.255 200.397 118.156 196.332 112.968C185.56 99.2071 177.892 83.0658 162.816 72.9015C158.16 69.761 149.558 65.7608 144.124 68.4276C136.264 72.2874 131.393 85.4578 127.907 92.8091C121.492 106.33 113.21 103.225 108.362 90.8733C107.345 88.2767 106.842 85.756 106.391 83.0132C99.2564 79.1007 96.1919 81.0774 98.6833 89.1364C100.724 95.7449 106.21 99.5404 109.497 105.283C113.246 111.845 114.883 120.284 120.655 125.524C121.357 126.162 127.89 131.022 128.264 130.753H128.281ZM185.7 108.547C186.448 108.319 186.548 109.114 186.612 109.681C187.729 119.161 183.472 131.759 172.687 132.963C174.787 131.028 177.097 129.694 179.039 127.425C183.764 121.898 184.185 115.348 185.694 108.547H185.7ZM181.571 144.391C180.659 143.467 184.191 141.923 184.747 141.701C189.051 139.975 195.18 139.502 199.718 140.356C201.116 140.619 202.49 140.835 203.455 142.017C203.748 143.385 200.525 142.496 199.824 142.473C193.671 142.291 187.472 142.677 181.571 144.391ZM188.864 179.598C188.952 180.153 188.881 180.294 188.536 180.697C188.033 181.282 184.91 182.738 184.004 183.142C178.121 185.756 163.705 190.44 157.71 188.388C157.248 188.23 156.815 188.113 156.517 187.686C156.517 186.896 164.014 186.364 165.143 186.165C173.202 184.756 180.904 181.299 188.864 179.598Z" fill="#F1EBE4"/>
<path d="M49.9439 222.419L53.7687 231.928L58.8216 231.618L58.3011 233.156L54.6927 233.367L58.5116 242.086C61.5761 240.455 63.2195 242.414 59.4473 243.531C60.0731 246.437 61.5703 249.707 61.3656 252.713C61.348 252.964 61.5118 253.824 60.8919 253.502C60.1082 253.093 59.0555 245.66 58.19 244.309C57.108 244.209 52.6282 247.613 52.1721 246.051C51.7159 244.49 57.0788 243.238 57.1723 242.578L52.8037 233.981C52.2774 233.641 49.6573 234.589 48.9146 234.87C48.0724 235.191 44.5985 237.495 44.2418 236.215C44.2418 234.811 46.5519 234.045 47.6455 233.6C48.5695 233.226 51.8504 232.641 51.8563 231.793L48.0432 223.196C46.9963 222.541 43.1657 224.887 42.113 224.898C41.7212 224.898 41.1364 224.436 41.0837 224.132C40.8732 222.957 46.1074 221.711 47.0899 221.471L43.2651 213.88C42.0428 213.418 37.1186 216.576 36.6215 214.968C36.3291 214.009 37.9783 213.453 38.6274 213.172C39.9433 212.599 41.5574 212.266 42.9669 211.956L42.4698 208.459C41.3528 207.652 39.9082 207.307 38.8672 206.377C37.9257 205.54 37.2356 204.154 38.9257 204.394C39.5924 204.488 42.6335 206.54 42.961 206.248L43.8617 201.411C42.3119 197.552 38.6508 195.464 34.8904 194.183C11.5441 186.229 -7.27573 211.213 9.18134 230.355C14.0881 236.057 21.3633 239.864 27.9426 243.309L61.7691 256.625C75.0213 245.186 91.3263 226.261 85.1564 207.342C83.8756 203.412 79.9514 198.259 76.4308 196.084C74.9453 195.166 72.4422 195.797 72.4539 192.92C70.2316 194.113 68.0853 193.013 65.9974 193.598L55.9793 204.195L54.6985 204.657C54.371 204.359 56.0086 202.347 56.2893 201.973C58.6637 198.856 61.4416 195.984 63.892 192.926H58.342C56.1957 192.926 50.1837 195.581 48.669 197.207C47.1543 198.832 46.3706 202.125 45.815 204.341C46.7273 204.219 50.9849 204.733 51.3825 205.277C53.1546 207.681 45.9027 205.903 45.1834 206.248V211.64C47.0314 211.348 49.1076 210.734 50.9732 211.085C51.6691 211.213 53.0201 211.728 52.4762 212.588C52.289 212.886 47.0665 213.044 45.9787 213.237C45.5811 213.307 45.3881 213.009 45.5284 213.664L49.0374 220.787C50.2246 221.114 55.0319 220.214 55.3301 221.635L54.8564 222.424H49.938L49.9439 222.419Z" fill="#F1EBE4"/>
<path d="M103.679 167.995C100.292 171.006 96.9647 174.065 93.4031 176.902C93.8475 177.159 97.0524 179.785 96.567 180.229C93.4616 179.644 90.8883 177.557 87.9934 176.276C86.6893 175.703 83.1101 174.129 81.9054 174.264C81.0223 174.363 74.864 176.703 74.0687 177.241C72.7469 178.136 68.4368 183.732 67.7934 185.235C67.4542 186.031 67.0098 187.51 68.4309 187.154C69.121 186.984 73.3961 183.229 74.788 182.399C76.1799 181.568 81.1451 178.96 82.4259 179.299C82.6539 179.358 82.923 179.592 82.7768 179.913C82.4317 180.656 76.215 183.785 74.8991 184.727C73.4604 185.756 72.3317 187.025 71.0334 188.154C69.7351 189.282 68.1677 189.265 68.659 191.651C70.0392 193.031 81.9638 184.598 84.8354 185.627C84.9172 186.259 84.3032 186.703 83.8645 187.031C82.5896 187.99 74.4547 191.247 74.712 192.715C74.7705 193.055 75.5951 193.786 76.0395 193.791C77.8057 193.832 87.0577 190.768 87.6893 191.335C86.8589 194.306 82.8001 194.563 80.2328 195.142C78.7239 195.487 81.4082 196.716 82.1393 196.745C84.0634 196.815 90.7187 195.99 92.5843 195.435C97.9881 193.821 98.918 189.61 102.807 186.943C105.801 184.89 111.17 183.2 114.656 181.346C121.709 177.598 130.51 172.451 136.949 167.802C141.558 164.474 142.458 163.07 144.833 157.924C149.085 148.695 152.827 138.005 156.202 128.378C159.161 119.933 161.67 108.845 165.343 101.043C165.67 100.353 165.957 99.5931 166.507 99.0434C168.051 99.02 165.618 107.494 165.869 108.553C169.197 104.33 171.214 100.307 170.782 94.7624C169.688 80.8611 155.143 72.2465 144.769 83.9665C136.756 93.0255 139.61 101.47 137.651 112.056C135.312 124.682 129.282 137.782 126.136 150.339L125.732 150.888C117.44 155.362 110.638 161.813 103.679 168.006V167.995Z" fill="#F1EBE4"/>
<path d="M135.586 203.383L147.955 196.57C140.966 191.727 134.486 185.709 125.813 184.142C119.55 183.013 116.023 182.773 111.806 188.013C104.116 197.564 111.175 211.173 121.708 214.892C127.638 216.986 130.31 215.933 136.071 215.442C152.885 214.021 163.184 211.664 178.524 204.611C189.314 199.646 199.969 191.721 211.327 188.569C214.994 187.551 218.783 186.955 222.491 186.089C225.064 183.235 223.719 182.019 221.38 179.919C220.473 179.107 213.397 173.861 212.882 173.948C210.666 175.492 208.625 177.422 206.221 178.691C202.665 180.563 200.958 179.791 197.917 183.072C193.279 188.078 191.021 193.049 184.208 196.002C176.722 199.254 171.336 198.418 163.669 198.938C161.517 199.084 159.131 199.885 157.014 199.909C155.037 199.932 152.704 198.739 151.013 198.938C148.914 199.19 144.177 202.295 141.451 203.038C139.574 203.552 137.504 204.032 135.603 203.371L135.586 203.383Z" fill="#F1EBE4"/>
<path d="M61.9151 177.293C57.7512 178.837 53.0433 179.264 48.8559 180.568C44.6686 181.872 40.2882 185.346 36.3172 187.376C34.4399 188.335 32.2936 188.697 30.9192 190.224C32.2527 191.335 34.0188 189.224 35.4634 188.423C37.3991 187.346 45.5224 183.153 47.2535 183.381C47.6453 183.434 47.8091 183.58 48.043 183.878C47.7915 184.165 47.5342 184.422 47.2126 184.627C43.7211 186.797 38.3641 188.317 34.8201 190.621C34.5101 190.82 34.2528 190.586 34.4107 191.329C35.6797 191.464 36.6973 191.744 38.0249 191.616C38.6565 191.551 44.306 189.972 44.5224 189.709C44.6276 189.58 44.5574 188.499 44.7972 187.925C45.5575 186.101 52.4058 183.896 54.3884 184.68C55.3124 185.914 49.663 186.615 49.0665 186.808C47.2301 187.411 45.5809 188.522 48.0664 189.885C51.2303 191.622 59.529 189.434 63.1082 188.779L63.8977 189.271L62.6345 190.376L66.0733 190.329L66.7107 188.943C63.6521 187.235 65.0206 185.586 66.5002 183.299C68.512 180.188 71.6116 175.814 74.9919 174.346C79.7641 165.778 85.3784 157.415 89.9635 148.719C92.7297 143.478 94.4199 138.051 96.7358 132.659C100.192 124.629 103.76 116.647 107.28 108.646C103.549 101.195 96.5428 95.7331 94.6538 87.2882C94.3088 87.2648 94.0105 87.2355 93.6947 87.4344C93.1099 87.8087 90.6361 94.4874 90.2091 95.6863C86.2323 106.851 84.472 118.512 78.8518 129.051C76.6177 133.238 73.6409 137.092 72.1321 141.677L61.9035 177.282L61.9151 177.293Z" fill="#F1EBE4"/>
<path d="M74.0515 72.7087C77.4727 73.4982 76.3557 76.2001 74.0749 77.6564C75.8762 82.5397 80.1571 77.978 83.052 78.7792C83.2391 78.8319 83.7129 79.1594 83.4146 79.3699L79.4495 81.7443C80.6425 82.4754 81.5899 82.1595 82.9116 83.0368C83.9526 83.7269 85.1866 85.9083 85.789 86.1832C87.5727 86.9902 90.6372 86.1656 92.0993 84.8907C93.8479 83.3584 99.4096 76.551 100.433 74.51C101.106 73.1766 101.533 70.7963 102.328 69.7436C102.603 69.3869 102.661 69.0945 103.229 69.2173C103.843 71.9017 103.737 74.5919 102.322 76.9955C107.925 81.2648 116.516 83.4462 118.452 91.1016C118.206 91.1016 117.949 91.1367 117.709 91.0548C116.925 90.7858 113.393 87.5107 112.212 86.7212C111.861 86.4873 109.328 84.7094 109.597 85.844C110.206 88.4114 112.153 92.5987 113.633 94.8211C121.499 106.646 125.821 88.4172 128.242 82.9608C129.347 80.4694 130.71 78.0599 132.102 75.7206C130.353 75.8434 128.663 76.4516 126.885 76.5277C115.609 77.0365 107.966 68.2114 106.088 57.8014C104.363 58.8307 102.03 58.4682 100.702 57.0061C100.398 56.2692 102.345 56.5792 102.936 56.392C106.316 55.3335 107.001 48.836 104.825 46.2218C103.182 44.2451 102 45.7891 100.111 46.4324C100.293 48.9296 98.9301 50.918 96.9943 52.3567C86.6896 59.9887 67.2792 55.1288 57.7757 47.9178C55.7522 46.3797 54.0562 44.0112 51.8573 42.5784C52.3544 48.45 54.4598 55.1639 58.5185 59.5442C60.8636 62.0824 64.5422 63.9071 65.4077 67.5622C66.0101 70.1062 65.5072 77.0364 68.8524 77.4575C70.5835 77.6739 75.5253 74.9895 74.0574 72.7087H74.0515ZM76.268 57.164H71.6712C71.525 57.164 69.3378 58.0822 68.9635 58.2635C67.478 58.9711 64.7118 61.9069 64.548 58.7664C67.1505 57.7488 69.291 55.8247 72.2912 55.8891C73.2737 55.9124 75.7066 56.2867 76.2738 57.164H76.268ZM69.6127 63.1936C74.0924 64.6381 75.3615 61.9654 78.4903 59.7021C78.4728 64.8954 74.3264 67.2932 70.0162 63.9187C69.7589 63.7141 69.4314 63.9246 69.6185 63.1936H69.6127Z" fill="#F1EBE4"/>
<path d="M79.1207 172.93C80.0915 172.802 80.8225 172.129 81.8459 172.006C82.7349 171.901 84.0683 172.334 84.1619 172.27C84.2145 172.234 84.4484 171.503 84.811 171.17C86.7936 169.345 88.9282 167.69 90.6827 165.62C91.2968 165 92.5191 165.357 92.7179 166.176C92.9928 167.293 88.6943 171.199 87.6942 172.158C87.4252 172.416 87.1094 172.579 86.741 172.62L86.9223 173.27C88.32 173.422 89.4721 174.849 90.8406 174.357C91.9167 173.971 96.145 170.825 97.2035 169.924C100.941 166.737 104.099 162.345 107.818 158.971C110.707 156.35 113.918 154.011 117.082 151.742C118.55 150.689 123.316 148.063 123.913 146.835C124.562 145.496 126.772 137.443 126.948 135.893C126.989 135.519 127.112 135.162 126.965 134.782C126.585 133.46 120.386 129.764 118.936 128.519C114.204 124.436 111.59 118.331 109.251 112.67L94.5718 146.677L79.1207 172.93Z" fill="#F1EBE4"/>
<path d="M54.0672 29.256L72.0624 37.7419C80.5424 40.9935 87.2329 41.8766 95.7304 38.0869C104.228 34.2972 104.953 32.7416 114.802 33.379C127.715 34.2153 129.779 39.8063 137.803 47.4909C140.207 49.7893 143.517 51.4327 146.681 52.4035C139.99 45.9646 136.879 36.5196 127.644 32.9053C121.796 30.6187 110.924 31.0748 104.813 32.5778C99.2043 33.958 93.8648 36.888 87.8352 36.5547C78.7529 36.0576 70.7524 30.1625 62.325 28.4431C59.4652 27.8583 56.506 27.3495 54.0672 29.2502V29.256Z" fill="#3A3A3A"/>
<path d="M64.6937 21.6413C72.4778 22.4659 79.1507 27.5013 86.2856 29.5482C92.5667 31.3436 99.1694 30.3026 105.614 30.209L106.082 29.5774C103.129 29.7295 100.111 28.6768 97.3564 27.6767C86.8938 23.8929 74.1212 13.8865 62.7346 19.3663C61.4187 19.9979 60.2315 21.1676 58.8279 21.6471C58.8279 22.425 59.7578 21.6471 59.9332 21.6471C61.4245 21.6471 63.2609 21.4951 64.6937 21.6471V21.6413Z" fill="#3A3A3A"/>
<path d="M115.603 42.5781L119.878 45.1221C125.066 50.2393 127.931 54.8946 135.107 57.4912C146.348 61.5616 154.29 57.0526 164.916 66.0589L172.062 73.0242C169.32 65.6262 163.542 59.1112 155.641 57.2573C148.523 55.5847 139.166 57.4386 133.218 52.4032C131.376 50.8476 129.931 48.4556 127.984 46.8532C124.662 44.1279 119.925 42.3558 115.609 42.5781H115.603Z" fill="#3A3A3A"/>
<path d="M59.1433 19.4191C75.9571 8.81035 92.0691 27.443 108.936 28.2968L93.2914 17.7816C83.0569 11.8748 70.0035 8.78696 60.4065 17.6763C60.1258 17.9337 58.8099 19.0858 59.1433 19.425V19.4191Z" fill="#3A3A3A"/>
<path d="M131.141 32.1099C132.492 33.262 134.059 34.1275 135.416 35.2855C140.703 39.8004 143.025 46.9703 148.434 51.1285C150.803 52.9473 153.885 53.269 156.599 54.386C162.511 56.8189 168.512 61.556 171.874 67.0241C174.313 70.9893 174.986 75.5451 178.746 78.5511C182.425 81.4869 187.922 82.949 190.308 87.2884L192.671 93.008C192.314 88.7914 191.571 84.9316 188.209 82.0951C185.624 79.9196 182.179 79.0131 179.571 77.0949C172.74 72.0829 173.494 61.1875 165.506 56.2691C162.78 54.5907 159.663 54.4795 156.757 53.2807C149.674 50.3682 148.411 42.6953 143.206 37.9698C139.972 35.034 135.381 33.0865 131.147 32.1099H131.141Z" fill="#3A3A3A"/>
<path d="M85.4664 47.6545C85.4664 48.2569 86.794 47.9703 87.1683 47.9294C91.999 47.4089 96.2039 44.1631 100.473 42.2039C111.883 36.9697 121.188 37.151 130.826 45.5842C134.229 48.5668 136.651 52.8946 141.92 52.7191L138.428 50.6664C129.276 40.4904 123.586 34.3965 108.784 35.6012C98.4204 36.4434 94.8822 45.4672 85.4664 47.6545Z" fill="#3A3A3A"/>
<path d="M218.053 165.006C218.105 166.515 216.456 168.065 216.204 169.369C215.503 173.001 222.55 176.902 224.86 178.972C227.17 181.042 227.731 182.92 226.299 185.937C228.252 185.99 230.223 185.885 232.182 185.926C233.972 185.967 236.732 187.3 236.065 183.949C235.246 179.843 228.299 175.867 225.503 173.258C223.614 171.498 222.445 169.129 220.754 167.223C220.415 166.843 218.415 164.679 218.058 165.006H218.053Z" fill="#F1EBE4"/>
<path d="M95.2979 48.286C79.4373 54.877 64.5184 43.8647 52.7984 34.3262C52.7399 40.2446 59.4362 45.2332 64.2084 47.8123C70.6591 51.2979 78.2384 53.3506 85.5839 52.3623C89.0285 51.9003 92.9702 51.0464 95.2979 48.2802V48.286Z" fill="#F1EBE4"/>
<path d="M62.629 13.3893L70.3429 9.21362C87.6714 1.82139 98.5842 10.1552 110.871 21.4482L116.229 25.1268C109.503 17.9042 102.064 6.91524 91.8704 4.60517C81.1388 2.17228 69.8633 4.99115 62.6232 13.3893H62.629Z" fill="#3A3A3A"/>
<path d="M78.9635 9.90394C92.7421 11.3017 101.52 23.4953 114.404 27.4312C115.971 27.9108 117.626 28.3202 119.241 28.6243C120.223 28.5717 120.112 28.5366 119.258 28.2909C111.878 26.1622 105.714 18.998 99.7132 14.5299C91.5081 8.41847 84.7241 7.1494 74.6767 9.42438C74.32 9.50625 73.6533 9.42438 73.7293 9.89809C75.4195 10.0209 77.3026 9.72849 78.9635 9.89809V9.90394Z" fill="#3A3A3A"/>
<path d="M55.0211 32.4314C60.6471 38.3206 71.3729 46.7655 79.8997 46.3912C84.7538 46.1807 89.3096 44.0344 93.3975 41.6249C93.4677 41.0284 92.7542 41.3793 92.4326 41.4553C91.2278 41.7302 89.9704 42.2799 88.7131 42.4963C76.6013 44.5958 66.0685 35.7649 55.0211 32.4372V32.4314Z" fill="#3A3A3A"/>
<path d="M68.9748 124.407C69.4543 124.969 69.6707 123.975 69.7935 123.811C71.858 121.021 73.168 116.699 72.7001 113.231C72.0042 108.067 66.6296 103.5 64.7932 98.6222C62.9569 93.7448 64.5359 90.9259 64.8517 86.1888C65.3605 78.5334 62.1615 70.3282 56.6115 65.0999C58.4303 69.5679 59.8397 74.2115 60.6292 78.9954C61.5299 84.4226 60.91 89.996 62.2258 95.16C64.6587 104.704 74.5014 109.003 70.3959 121.232C70.2146 121.77 68.8344 124.244 68.9748 124.407Z" fill="#F1EBE4"/>
<path d="M55.9674 25.7644H60.5641C64.3772 25.7644 73.5415 30.3203 77.8517 31.6303C82.9397 33.1801 87.5189 34.1216 92.911 33.6889C93.6713 33.6304 95.5076 33.3965 95.9287 32.7473C84.9983 34.1567 75.875 24.817 65.3188 23.8696C62.2894 23.5947 58.4178 23.776 55.9674 25.7703V25.7644Z" fill="#3A3A3A"/>
<path d="M111.474 43.8472C113.415 45.9759 115.392 48.0813 117.17 50.3622C119.357 53.1693 121.246 57.2456 124.381 59.0118C128.726 61.4563 133.644 61.0938 138.434 60.6551C138.51 60.1931 137.873 60.2165 137.551 60.1229C135.604 59.5615 133.568 59.158 131.691 58.3626C123.667 54.9589 120.796 45.1338 111.474 43.853V43.8472Z" fill="#3A3A3A"/>
<path d="M130.668 67.6322C119.872 66.176 114.866 50.8067 107.994 44.1631C109.579 48.8534 111.492 54.0467 113.965 58.3335C119.194 67.4159 128.305 71.3634 138.44 67.6322C138.44 66.8544 137.511 67.6322 137.335 67.6322C135.347 67.6322 132.528 67.8837 130.674 67.6322H130.668Z" fill="#3A3A3A"/>
<path d="M154.927 48.2859C157.552 50.8533 161.763 51.2042 165.038 52.9236C167.67 54.3038 170.337 56.8185 171.998 59.2865C174.46 62.9417 174.916 67.9244 179.033 70.1702C176.665 64.7722 177.15 57.9239 172.378 53.8301C167.606 49.7363 161.079 49.2918 154.927 48.2859Z" fill="#3A3A3A"/>
<path d="M78.8057 114.576C78.5016 113.091 77.4021 112.079 76.8933 110.623C74.3493 103.342 78.2618 95.2537 75.7879 87.9375L73.4194 83.8086C74.823 89.7914 71.8345 95.435 72.4954 101.377C72.9925 105.786 75.9692 111.225 78.7998 114.571L78.8057 114.576Z" fill="#3A3A3A"/>
<path d="M122.896 60.9771C124.703 62.7666 127.387 64.3398 129.861 64.948C135.253 66.2756 139.476 63.6263 144.628 63.1994C151.242 62.6497 157.12 64.6907 162.758 67.8956L167.302 70.8022C161.763 64.7492 154.482 61.4508 146.195 61.597C141.177 61.6847 136.329 63.5503 131.288 63.2052C128.37 63.0064 125.609 61.9362 122.896 60.9771Z" fill="#F1EBE4"/>
<path d="M106.402 200.844C105.46 197.768 105.712 194.464 106.63 191.399C107.045 190.025 107.882 188.879 108.303 187.522C103.478 188.686 100.946 193.031 97.5945 196.236C99.2262 199.242 103.232 200.336 106.396 200.839L106.402 200.844Z" fill="#F1EBE4"/>
<path d="M56.9264 74.2934C57.6107 74.3051 57.0317 73.153 56.9381 72.8548C54.7567 66.0064 49.4933 60.0412 49.0429 52.5203L48.0429 44.1689C46.0486 51.5904 46.8264 58.0235 50.5226 64.6789C52.4174 68.0884 55.1544 70.8956 56.9264 74.2934Z" fill="#F1EBE4"/>
<path d="M177.448 71.761C181.98 78.697 190.384 77.5917 193.63 86.1829C194.952 89.6801 194.355 94.2184 197.426 96.4992C194.326 89.1304 197.502 81.165 188.823 77.0361C186.121 75.7495 182.326 75.4396 180.004 73.802C179.577 73.5038 177.852 71.3808 177.448 71.761Z" fill="#F1EBE4"/>
<path d="M68.6592 102.201C69.3961 101.827 68.6709 100.254 68.6416 99.5229C68.4545 94.8852 69.7236 93.6278 70.2148 89.9668C70.6593 86.6157 69.7411 82.7968 67.3901 80.3171C67.4427 82.4167 67.6182 84.3992 67.3842 86.4988C67.0918 89.0954 66.0274 91.7681 66.1035 94.4407C66.1795 97.1134 67.3959 99.8036 68.6592 102.201Z" fill="#3A3A3A"/>
<path d="M78.806 86.3468C81.853 93.3998 77.0866 104.675 80.8704 111.091C81.1102 111.5 80.812 111.892 81.66 111.717C81.0693 109.102 80.619 105.997 80.695 103.301C80.8353 98.5639 83.8999 90.6102 79.923 86.9726C79.5721 86.6509 79.3791 86.224 78.806 86.3468Z" fill="#3A3A3A"/>
<path d="M128.604 73.0245L122.814 71.6735C116.381 69.4921 112.322 63.6204 110.047 57.4797C110.269 63.2929 115.018 69.9775 120.457 72.1297C120.895 72.3051 122.808 73.0245 123.054 73.0245H128.604Z" fill="#3A3A3A"/>
<path d="M40.7447 193.242L45.1836 197.359L49.3066 192.604L45.6632 191.353L40.7447 193.242Z" fill="#F1EBE4"/>
<path d="M44.8673 52.7252L45.4989 48.4443C45.2883 46.1459 45.9784 43.9937 46.458 41.7889C46.1188 41.286 45.7094 42.789 45.6743 42.9059C45.4755 43.5609 44.8673 45.7306 44.8673 46.2219V52.7252Z" fill="#F1EBE4"/>
<path d="M188.864 179.597C180.905 181.299 173.202 184.756 165.143 186.165C164.015 186.364 156.517 186.896 156.517 187.686C156.815 188.113 157.248 188.229 157.71 188.387C163.699 190.434 178.121 185.756 184.004 183.141C184.911 182.738 188.034 181.282 188.537 180.697C188.882 180.299 188.952 180.153 188.864 179.597Z" fill="#3A3A3A"/>
<path d="M185.7 108.547C184.186 115.348 183.771 121.898 179.045 127.425C177.103 129.7 174.793 131.033 172.694 132.963C183.478 131.758 187.73 119.161 186.619 109.681C186.554 109.114 186.455 108.319 185.706 108.547H185.7Z" fill="#3A3A3A"/>
<path d="M181.571 144.391C187.472 142.683 193.671 142.297 199.824 142.473C200.52 142.49 203.742 143.385 203.456 142.017C202.497 140.835 201.122 140.619 199.719 140.356C195.18 139.496 189.051 139.97 184.747 141.701C184.191 141.923 180.659 143.467 181.571 144.391Z" fill="#3A3A3A"/>
<path d="M69.6116 63.1933C69.4244 63.9244 69.7519 63.7138 70.0092 63.9185C74.3253 67.293 78.4659 64.8952 78.4834 59.7019C75.3546 61.9593 74.0855 64.6379 69.6057 63.1933H69.6116Z" fill="#3A3A3A"/>
<path d="M76.2676 57.164C75.7003 56.2809 73.2674 55.9066 72.2849 55.889C69.2906 55.8247 67.1442 57.7488 64.5418 58.7664C64.7055 61.9069 67.4718 58.9711 68.9572 58.2634C69.3374 58.0821 71.5188 57.164 71.665 57.164H76.2617H76.2676Z" fill="#3A3A3A"/>
</svg>
