<svg width="300" height="300" viewBox="0 0 300 300" fill="none" xmlns="http://www.w3.org/2000/svg">
<path d="M174.9 145.305C173.51 154.584 167.06 150.357 163.334 154.419C162.056 155.792 158.553 165.455 157.941 165.29C132.92 154.035 112.57 135.203 122.634 105.556C127.026 92.7082 133.643 93.971 142.595 87.4375C147.154 84.0884 155.55 72.0098 158.497 70.6921C161.444 69.3744 165.503 70.5823 168.783 70.0332C187.243 67.1234 199.698 39.2875 219.604 65.4214C241.956 94.7397 229.779 146.623 203.924 170.671C202.367 169.628 202.367 168.584 202.2 166.937C200.921 154.584 200.866 141.956 200.087 129.548C198.697 127.736 198.086 129.658 197.919 131.14C197.14 137.399 197.363 155.408 191.024 157.933C186.687 159.69 182.239 155.847 181.461 151.729L174.955 120.874C174.177 128.395 176.067 137.948 174.955 145.196L174.9 145.305Z" fill="#A35B5B"/>
<path d="M101.506 170.726C101.228 172.263 103.341 172.153 104.509 172.592C113.35 176.051 126.972 178.522 134.645 182.859C135.479 183.299 138.204 185.11 137.648 185.824C132.087 187.087 130.419 192.577 131.087 197.738C125.749 197.024 120.856 196.146 115.296 196.75C100.728 198.397 103.786 205.974 85.8266 197.519C59.4713 185.11 21.9956 151.016 39.2878 119.501C46.794 105.885 55.4679 110.332 67.2555 105.995C73.483 103.689 79.5992 95.8379 84.659 95.0144C95.3901 93.3124 108.234 98.7478 117.52 103.579C113.294 121.368 115.796 138.278 128.974 151.729C133.088 155.957 142.596 160.569 145.432 163.643C145.988 164.247 146.711 164.522 146.377 165.565L137.258 181.322C125.86 175.997 114.628 170.891 101.618 170.671L101.506 170.726Z" fill="#A35B5B"/>
<path d="M149.714 207.51C150.047 214.428 142.485 211.408 139.705 214.483C134.757 219.918 156.052 226.672 159.555 228.648C160.778 229.307 162.224 228.538 161.724 230.789C159.166 237.268 128.974 244.79 121.746 245.394C97.8926 247.425 63.5306 238.256 43.5139 225.299C40.6782 223.487 32.0043 218.052 32.4491 214.593C33.0607 210.475 38.2317 217.448 39.0657 217.832C43.3471 219.754 57.9704 213.714 63.8086 213.056C73.9282 211.958 84.8817 214.373 94.8901 211.848L76.8195 209.707C71.8709 209.981 66.3663 209.212 61.5289 209.707C55.0791 210.365 48.7405 215.362 44.0143 215.197C38.9545 214.977 37.6757 210.036 32.5047 210.75C32.6159 197.847 40.3446 186.592 50.7422 179.51C65.7547 192.412 80.4892 202.624 100.339 207.071C102.063 207.236 105.788 202.404 109.124 201.526C120.967 198.451 137.982 204.93 149.714 207.51Z" fill="#A35B5B"/>
<path d="M232.947 166.388C226.498 173.032 220.993 182.036 210.095 180.279C209.817 180.114 208.093 174.953 208.149 174.459C208.26 173.416 219.603 162.326 221.827 159.141C227.165 151.4 232.058 140.145 233.781 130.921C236.006 119.117 231.446 91.2809 250.796 95.234C268.533 98.8027 264.641 126.803 267.254 139.596C268.088 143.823 270.757 148.435 271.257 151.839C273.648 167.102 264.029 188.844 248.905 194.554C238.674 198.452 217.101 198.123 207.76 191.699L210.429 183.628C221.327 181.761 230.112 177.918 232.947 166.388Z" fill="#A35B5B"/>
<path d="M145.32 216.186C156.718 213.825 165.893 205.974 176.346 201.911C179.237 200.813 194.139 195.871 196.418 195.652C202.312 195.103 210.597 199.33 217.102 199.934C222.607 200.428 230.113 200.209 235.729 199.989C243.624 199.715 256.635 195.707 243.902 208.06C222.551 228.868 171.787 240.343 147.099 219.205C145.987 218.217 144.82 218.162 145.264 216.131L145.32 216.186Z" fill="#A35B5B"/>
<path d="M152.994 200.977C153.383 202.02 153.049 204.107 151.937 204.82C149.713 206.303 143.986 204.656 142.04 202.624C145.321 201.801 145.432 202.35 147.489 199.934C143.764 200.263 140.261 202.295 136.091 200.044C132.421 195.377 141.317 188.459 145.321 189.557C150.158 191.973 150.992 195.871 147.489 199.934C148.935 199.824 152.104 198.781 152.994 201.032C146.155 189.008 159.777 177.643 171.176 176.271C174.901 175.831 185.855 175.557 188.857 176.93C193.639 179.126 194.695 188.459 192.193 192.687C190.469 195.597 173.622 200.044 168.84 202.075C162.279 204.82 158.61 210.969 152.994 201.032V200.977Z" fill="#A35B5B"/>
<path d="M165.005 169.628C158.222 157.384 170.121 154.749 175.403 165.29L175.959 156.671C184.633 159.306 183.854 169.243 176.459 172.867L174.847 167.486C173.012 167.267 173.902 169.957 172.011 170.616C169.843 171.385 167.174 170.012 165.005 169.628C166.117 171.604 168.508 172.592 168.286 175.008C163.782 175.502 157.944 173.91 158.444 168.53C160.779 168.145 162.837 169.243 165.005 169.628Z" fill="#A35B5B"/>
<path d="M192.139 161.227C202.703 158.592 203.982 181.157 188.469 175.118C179.017 171.439 186.078 162.71 192.139 161.227Z" fill="#A35B5B"/>
<path d="M206.37 186.702C201.255 191.753 186.909 184.012 199.642 177.369C208.094 172.977 209.818 183.243 206.37 186.702Z" fill="#A35B5B"/>
<path d="M150.545 170.89C154.771 170.396 158.162 172.483 160.664 175.557C158.663 180.938 140.759 180.883 143.65 175.008C144.54 173.141 148.487 171.11 150.545 170.89Z" fill="#A35B5B"/>
<path d="M156.274 180.443C155.273 185.275 142.429 189.997 140.928 185.275C139.093 179.565 153.383 180.224 156.274 180.443Z" fill="#A35B5B"/>
</svg>
