<svg width="278" height="434" viewBox="0 0 278 434" fill="none" xmlns="http://www.w3.org/2000/svg">
<path d="M163.5 109.476L162.392 102.841C161.273 101.47 160.822 105.926 160.75 106.446C159.769 113.196 160.662 119.416 161.841 126.062L156.341 112.246C156.176 120.627 157.609 129.014 161.29 136.566C152.55 124.475 153.509 107.364 156.881 93.4427C153.955 95.9085 151.541 100.033 147.519 100.635C154.165 116.16 144.124 127.029 132.094 135.184C147.221 136.129 149.188 154.219 154.132 165.309C151.327 161.411 148.489 157.414 145.976 153.318C142.647 147.872 141.385 141.061 134.419 138.927C121.938 135.112 111.015 150.139 101.542 148.685C95.5135 147.761 95.7064 140.159 95.7174 135.449C89.6776 136.958 88.7628 135.057 89.6611 129.368C82.8884 129.981 85.7705 123.574 84.1779 120.771C82.0011 116.95 73.735 118.25 75.1513 112.339C76.044 108.624 79.3284 103.853 80.5628 99.5131C83.478 89.2465 80.8494 90.3301 77.4382 82.203C74.4679 75.1209 76.0385 68.6082 74.76 61.6698C74.5561 60.5696 73.5642 59.9559 73.3823 59.1819C71.3103 50.4799 72.1479 45.3825 77.8074 38.6984C84.7896 30.4497 100.28 15.9261 110.062 11.9012C112.994 10.696 116.438 10.121 119.254 8.96001C124.941 6.61035 129.008 3.09415 135.522 1.50744C148.973 -1.75997 156.953 0.219272 167.859 8.08096C193.919 26.8616 209.862 51.4474 215.687 83.3862C217.566 93.7025 217.075 102.974 218.073 113.058C218.729 119.67 223.336 120.865 227.441 124.668C231.547 128.472 234.881 132.663 236.099 138.097C237.829 145.832 234.809 156.253 243.141 160.886C244.018 161.157 241.89 156.198 241.808 155.59C241.163 150.929 242.469 145.611 241.058 140.862L237.625 132.143C243.439 137.976 242.392 145.561 243.483 152.803C245.142 163.822 255.359 161.373 261.046 169.461L250.713 164.347C249.462 164.176 246.547 162.147 245.621 163.645C257.354 169.754 263.669 176.333 262.694 190.459C262.435 194.191 260.903 198.138 260.555 201.577C259.585 211.186 268.133 221.198 267.113 231.376L264.374 220.302L259.404 210.096C259.023 217.958 260.473 225.764 261.073 233.565C261.283 236.258 260.82 239.171 261.062 241.869C261.619 248.1 267.097 254.447 269.968 260.025C277.518 274.704 280.653 287.182 275.379 303.519C273.924 303.414 275.385 301.352 275.385 301.036V287.215C275.385 285.484 273.809 280.31 273.186 278.364C272.525 276.279 271.417 273.67 270.519 271.641C270.15 270.812 269.604 268.993 268.777 268.694C272.26 279.757 276.713 290.643 274.134 302.54L269.88 316.787C272.949 302.717 273.081 288.824 268.094 275.179L260.511 259.848C262.798 268.064 267.328 275.881 268.155 284.517C268.954 292.876 267.956 304.702 261.613 310.712C263.564 301.65 267.124 292.893 265.956 283.406L264.369 278.651C265.124 284.534 265.89 289.421 264.766 295.359C264.17 298.504 260.561 308.517 258.324 310.457C256.648 311.911 251.782 311.773 249.484 311.812C249.181 311.552 250.945 308.633 249.484 308.5L248.393 312.138H245.891L245.169 311.126L245.621 309.053C243.637 309.932 243.538 307.737 242.59 307.942L241.764 310.706C241.069 303.436 245.175 297.448 246.558 290.366C250.41 270.64 250.201 232.211 247.754 212.092C244.773 187.612 222.878 162.915 200.411 153.964C198.168 153.069 195.291 153.157 192.966 151.477L192.172 151.736C189.219 156.314 184.804 159.211 180.208 161.876C172.807 166.177 164.679 169.489 156.898 173.038C167.181 163.949 181.619 161.201 191.616 151.753C191.671 150.509 190.574 150.454 189.715 150.354C183.3 149.602 176.39 153.649 170.68 148.441C173.37 148.546 175.216 149.387 178.136 149.293C178.93 149.271 181.432 149.149 181.691 148.17C176.797 146.445 173.948 141.553 171.231 137.373C171.132 135.731 171.86 136.953 172.245 137.467C173.425 139.048 174.218 140.862 175.91 142.083C176.742 141.116 174.725 140.016 174.069 138.954C171.463 134.736 170.052 129.451 168.322 124.818L163.505 100.072V109.47L163.5 109.476ZM147.513 7.75477C139.352 5.91374 131.135 6.08513 123.822 10.5191C123.701 11.5529 124.935 10.9503 125.498 10.8231C126.666 10.5578 129.526 8.94342 130.424 10.508C128.765 10.4472 127.256 11.0664 125.735 11.6082C124.908 11.9068 122.974 12.3767 122.715 13.2723C131.3 10.4748 140.316 10.11 149.034 12.5812C152.379 13.5266 155.217 15.2571 158.529 16.0366L154.33 13.3442L149.166 11.6137C149.023 10.6407 150.417 11.0664 150.963 11.188C151.789 11.376 154.236 12.9351 154.666 11.6248L146.405 8.84943L147.502 7.75477H147.513ZM91.3033 51.4308C87.8921 50.1205 84.5085 48.191 82.6073 44.99L85.528 37.0564L78.6341 47.8206C79.9236 49.6063 80.6069 47.9644 81.665 47.019C83.6599 48.8158 87.1041 50.8005 89.6335 51.7238C90.1515 51.9118 91.4245 52.4536 91.3033 51.4308ZM112.25 66.347C102.419 65.5287 92.5157 62.5544 84.1889 57.1861C82.6624 56.202 80.1881 54.8088 79.7252 53.0838C79.3284 52.7908 78.7663 53.9795 78.5955 54.4273C77.0304 58.524 76.4849 72.5059 77.1241 76.9896C77.8074 81.7442 81.3068 83.8285 82.6238 87.5105C84.0401 91.469 83.3237 95.6652 82.3318 99.6458C81.4776 103.079 76.7825 112.157 77.6091 114.639C78.3144 116.746 88.6361 118.266 86.3436 123.861L98.4673 125.52C98.9522 125.94 94.9404 132.182 95.1333 134.012C95.1774 134.399 96.285 134.316 96.5826 135.405C97.6352 139.28 95.6899 145.041 101.537 145.937C106.271 146.661 112.261 142.692 116.273 140.336C124.715 135.383 138.007 126.338 142.994 117.94C146.89 111.383 146.642 105.899 146.433 98.4461C149.817 98.4074 153.757 94.7032 156.077 92.3646C161.94 86.4656 165.506 81.3185 160.838 73.1582C157.697 67.6628 152.577 64.5225 147.238 69.6752C143.578 73.2025 144.62 80.5832 138.42 80.2183L132.634 78.5265C135.445 78.322 138.376 80.655 140.895 78.7919C142.096 77.4761 141.143 78.0897 140.288 78.1837C139.33 78.2888 136.47 79.3116 135.94 77.9737C141.964 77.9018 141.914 73.0421 143.645 68.5695C141.088 69.244 139.324 75.8728 138.145 76.5915C133.477 79.4332 124.969 70.4326 121.056 68.564L122.704 67.4693C113.341 66.0429 104.485 62.6041 95.9654 58.629C94.3618 58.5019 95.5025 59.2925 96.0591 59.6408C97.0731 60.2821 98.335 60.658 99.36 61.3049L112.228 66.3525L112.25 66.347ZM222.459 148.17L209.796 110.581C210.457 116.563 212.391 122.308 214.188 128.002L222.459 148.17ZM220.806 152.593L208.143 111.134C209.994 123.944 214.491 136.168 218.745 148.309L220.806 152.593ZM188.849 149.276C186.54 147.369 184.193 145.848 182.247 143.466C178.814 139.258 177.062 133.978 175.227 128.947L171.771 111.687C172.626 124.652 173.226 145.76 188.849 149.271V149.276ZM261.586 190.188C261.713 187.053 261.718 184.366 260.748 181.359C260.495 180.579 257.304 173.956 256.081 175.266L261.58 190.188H261.586ZM259.933 197.375C260.903 194.235 259.817 189.84 258.709 186.732C258.461 186.036 257.987 184.228 257.194 184.117L259.938 197.381L259.933 197.375Z" fill="#F1EBE4"/>
<path d="M73.3996 168.079C73.6255 168.112 74.9757 168.621 74.7718 169.179C69.7074 167.703 64.7697 170.274 59.8982 171.402C59.3306 173.436 62.3726 172.237 62.6481 173.597L58.245 174.161C60.2234 179.512 66.5056 182.465 72.0164 181.906L67.5031 182.885C64.0423 182.172 60.532 181.326 57.6939 179.136C59.9864 184.322 62.1411 189.541 63.2047 195.164C64.1525 194.677 64.395 193.522 65.3925 192.665C67.481 190.879 71.8345 188.922 74.5403 188.579C76.8604 188.286 80.1833 189.381 81.5335 188.994C82.6467 188.673 85.5839 184.859 86.8844 183.825C92.4062 179.44 98.6444 180.872 104.519 177.472C104.899 177.865 102.204 181.082 101.752 181.602C96.0268 188.259 92.9408 186.55 87.2537 190.277C84.4542 192.112 83.1206 195.07 78.8993 195.208C73.587 195.385 65.657 189.696 63.866 198.332C64.7422 207.802 63.348 217.002 66.0978 226.235C66.3568 227.108 66.6324 229.165 67.5912 229.43C67.7015 218.738 78.3042 213.745 84.118 206.475C88.3613 201.168 89.3588 194.517 96.2472 191.283C94.6932 195.18 94.2964 200.117 92.4944 203.822C90.3287 208.272 85.2753 212.28 82.575 216.537C80.4975 219.805 78.9875 224.112 77.0587 227.589C75.5323 230.342 72.6887 232.731 72.1376 235.921C71.052 242.212 76.2101 253.021 78.216 259.417C79.2245 262.635 80.0786 265.958 80.8281 269.242C81.6878 269.159 81.6602 268.401 81.8862 267.826C83.7047 263.171 84.7077 258.986 87.3363 254.497C94.8199 241.731 106.37 237.69 119.944 233.864C111.319 242.312 97.658 244.429 90.8357 255.243C88.207 259.406 84.5644 270.74 84.1291 275.616C84.0133 276.904 84.2172 276.987 84.8179 275.749C86.3995 272.492 87.3473 268.998 88.4715 265.576C88.9289 264.172 89.0942 264.083 89.0832 265.637C89.2155 270.342 84.5093 277.225 84.2944 281.211C84.1786 283.329 85.9311 288.984 86.2562 291.71C88.196 307.92 81.4673 321.216 83.0875 336.906C83.2859 338.841 84.2503 345.055 86.8734 343.563C87.4025 331.947 95.6024 321.454 98.0878 310.623C99.471 304.592 98.0658 300.417 97.9005 294.397C110.195 263.453 124.032 232.88 138.206 202.705C141.061 196.623 144.07 189.447 147.404 183.736C147.988 182.741 149.018 180.552 150.258 180.519C135.963 218.633 117.75 255.028 102.133 292.567C100.81 298.997 103.18 305.498 102.177 311.961C100.485 322.836 90.1964 330.637 91.3537 342.435C91.6457 345.393 92.9959 348.168 93.4863 351.071C92.0756 350.136 91.2049 348.837 89.6619 348.002C83.9858 344.923 80.2385 347.151 74.4907 346.642C72.3856 346.454 68.7981 344.906 67.3488 345C65.657 345.116 57.0326 351.535 56.6304 353.122C56.5256 354.686 57.9805 355.322 58.2119 356.92C58.5095 358.999 57.4129 360.801 57.6939 362.913C58.4103 368.281 64.6926 377.033 67.5141 381.837C69.3161 384.9 69.9829 389.157 74.4026 390.241L83.0159 385.077C80.4809 382.252 78.6679 378.891 80.1503 375.004C87.926 361.907 95.641 348.616 103.957 335.861C106.844 331.439 110.542 323.35 116.791 324.66C119.354 325.197 126.49 330.073 128.937 331.826C139.165 339.156 147.448 348.445 155.212 358.258C150.964 348.378 145.122 339.14 137.324 331.704C135.109 329.592 130.419 327.375 130.37 324.268C137.462 298.82 145.96 273.725 150.815 247.686C151.801 247.558 151.349 248.924 151.294 249.543C150.771 255.199 148.385 261.286 147.652 266.909C147.574 267.511 147.04 268.81 148.048 268.689L160.172 233.864C154.413 257.659 145.866 280.769 139.942 304.509C138.702 309.479 136.377 317.075 136.459 322.012C136.558 327.839 147.426 341.042 151.035 346.692C153.669 350.822 164.812 367.839 165.137 371.25C165.264 372.582 165.209 376.088 163.561 373.931C161.555 371.294 159.863 367.507 157.869 364.715C150.958 355.057 131.582 334.49 121.04 329.791C114.041 326.673 112.697 329.238 108.801 334.634C101.532 344.691 93.591 357.528 87.204 368.254C85.1485 371.709 81.6712 375.739 82.7348 379.836C84.0023 384.712 92.8526 396.101 96.2748 400.53C104.734 411.482 115.337 421.173 121.046 434L116.637 430.965C103.521 418.221 94.9302 401.635 84.118 387.007C76.8934 391.407 74.364 396.101 67.8613 387.576C66.4285 385.696 64.1525 381.544 62.8796 379.305C60.6973 375.463 56.4099 367.386 55.5998 363.383C55.1535 361.177 56.1234 359.85 56.0076 358.053C55.8258 355.162 53.0153 354.056 55.2306 350.545C56.0627 349.224 65.0453 342.667 66.3679 342.335C68.4234 341.821 70.4128 343.491 72.821 343.358C75.411 343.214 77.9846 341.047 80.8281 341.672C80.0676 339.079 80.3266 335.602 79.6984 333.136C79.4669 332.235 69.9829 319.635 68.6934 318.192C65.5853 314.714 62.0254 313.542 57.4019 314.034C53.9411 314.405 50.7173 317.036 47.2125 316.528C54.5803 311.115 65.4531 312.088 72.2974 317.893L79.1638 327.303C78.7395 321.996 82.575 315.881 79.6267 311.088C77.0422 306.886 65.7176 303.541 60.8075 300.113C46.5622 290.151 47.6699 278.602 45.3884 263.061C44.6389 257.963 42.644 253.054 43.3494 247.697L49.1743 257.046C59.2755 266.516 66.9796 279.635 73.3886 291.909C76.6289 298.118 79.0867 304.647 81.3737 311.265C82.1893 311.408 82.057 310.225 82.1948 309.617C87.182 287.326 71.7243 252.28 64.2738 230.84C62.2623 225.051 62.0199 217.096 56.4044 213.856C51.9903 211.307 44.4075 209.593 39.288 207.255C26.2936 201.317 16.0436 190.901 2.01318 187.424C2.34383 186.434 5.33618 186.788 6.14076 186.882C14.0487 187.794 20.0113 192.328 26.988 195.263C34.4165 198.387 54.2111 203.999 58.4544 209.577C59.3582 210.766 59.3968 213.126 60.9673 212.855C61.2649 201.914 60.2619 190.934 56.0021 180.795C55.4676 180.391 51.5053 188.391 48.1493 187.888C46.9259 187.706 45.3719 186.412 46.3638 185.218C47.4219 186.948 48.761 185.041 49.1192 186.871C53.9631 182.349 56.1785 176.953 54.3544 170.285L52.7012 174.15C51.3896 173.641 53.0263 170.888 50.8165 170.849C45.4821 170.755 41.2388 178.783 41.6907 183.548L43.6194 182.448C44.5508 183.006 42.8204 184.753 42.0268 184.626C38.1473 183.996 43.7572 174.033 43.3384 173.602C38.263 175.062 30.9116 177.085 28.4648 170.838L30.1126 170.285C29.7764 171.623 29.5064 171.877 30.6747 172.745C36.0201 176.737 44.7547 171.125 49.9458 168.903C45.6805 163.225 42.0489 160.278 34.5267 160.328C34.6589 159.289 37.3592 159.742 38.0481 159.842C40.0705 160.124 41.9056 161.063 43.895 161.434C42.8094 158.841 39.4919 154.313 40.8641 151.493C42.0764 149 46.0662 152.339 48.3036 151.493C48.4579 152.411 46.9424 152.113 46.3583 152.063C44.9696 151.947 41.6796 150.67 41.1782 152.389C40.5114 154.672 45.9395 161.727 46.6559 164.204L47.747 161.998L48.2981 163.938L49.1247 163.103L52.1501 166.973L52.9767 161.45L56.2887 168.632L54.9165 160.892L56.0297 163.103L57.1098 162.545L58.5316 165.857L62.3505 162.551L61.5294 165.868L64.2738 163.656L62.075 166.697C61.9868 167.112 62.6095 167.056 62.8906 166.962C64.3399 166.492 70.4348 162.13 71.0245 160.743C72.1487 158.106 70.1427 155.828 70.6112 153.152C75.659 160.549 70.0821 166.487 62.6261 168.085C62.7308 169.544 64.7863 168.079 65.1004 168.079C67.5857 168.079 71.063 167.759 73.3665 168.079H73.3996ZM59.8927 215.625C55.5723 204.756 41.112 202.252 31.2423 198.492C31.38 199.343 32.2673 199.537 32.901 199.863C39.7454 203.346 51.5935 206.42 56.8838 211.739C58.1954 213.06 58.4875 214.625 59.8872 215.631L59.8927 215.625ZM70.3632 234.417L72.5675 223.365C71.6306 223.763 71.1677 225.991 70.9032 226.937C70.5395 228.219 70.1482 229.662 69.9719 230.978C69.8727 231.713 69.239 234.257 70.3632 234.411V234.417ZM59.8927 281.41L59.0606 278.11L54.9441 269.806L56.8838 275.318L59.8927 281.41Z" fill="#F1EBE4"/>
<path d="M202.08 399.175C209.597 379.101 220.271 359.861 224.024 338.543L230.725 291.367C230.472 298.825 229.447 306.283 229.055 313.73C228.185 330.25 229.799 354.15 222.938 368.961C217.995 379.631 209.944 390.512 202.08 399.17V399.175Z" fill="#F1EBE4"/>
<path d="M78.6289 276.994L72.3686 265.312C64.5599 255.703 57.0101 240.969 44.7652 236.613C29.8366 231.3 10.4938 239.316 0.106008 250.451C-0.389961 249.583 0.982215 247.377 1.58289 246.404C7.30857 237.138 25.8413 229.387 36.4219 230.609C49.0967 232.074 68.0702 253.398 73.9668 264.261C75.9947 267.999 78.0943 272.753 78.6344 276.983L78.6289 276.994Z" fill="#F1EBE4"/>
<path d="M134.287 361.58L132.364 359.927C131.879 360.873 132.805 362.426 133.031 363.681C134.21 370.194 134.331 376.657 137.054 382.865C135.825 382.827 134.772 380.643 134.199 379.648C128.799 370.221 127.184 362.951 126.016 352.475C125.481 347.67 123.701 342.385 121.067 338.371C126.467 339.621 127.195 345.647 129.239 349.793C131.069 353.508 134.238 356.886 134.287 361.586V361.58Z" fill="#F1EBE4"/>
<path d="M199.319 199.039L205.111 197.939C211.597 197.64 218.31 198.166 221.814 204.391L230.169 220.048C224.735 215.282 221.533 204.369 215.13 201.14C214.176 200.659 209.195 199.039 208.407 199.039H199.314H199.319Z" fill="#F1EBE4"/>
<path d="M229.624 352.734L229.15 350.324L236.237 302.982C234.893 319.662 231.862 336.171 229.624 352.734Z" fill="#F1EBE4"/>
<path d="M171.76 143.201C165.103 137.606 162.138 127.384 161.852 118.881L164.888 129.374L171.76 143.207V143.201Z" fill="#F1EBE4"/>
<path d="M56.0296 149.835L58.2505 156.463C61.0169 153.273 62.7693 150.575 67.6077 151.493L62.8078 153.03C60.1021 154.352 58.4984 159.217 57.6828 161.987C56.2666 161.301 57.6663 158.592 57.6332 157.354C57.5671 154.949 56.2666 152.09 54.9385 150.1L56.0296 149.829V149.835Z" fill="#F1EBE4"/>
<path d="M107.843 72.993C107.65 74.0711 106.68 73.8941 105.936 74.1153C97.229 76.7193 90.2359 78.6598 83.3089 85.1227C78.8782 79.6494 85.9154 75.2708 90.5996 73.6619C96.0222 71.7933 102.249 72.2356 107.837 72.993H107.843Z" fill="#F1EBE4"/>
<path d="M97.3384 95.0794C97.3109 95.1236 96.5779 94.6813 96.2693 94.8748C95.2719 95.5051 93.9493 99.7345 93.2439 95.6599L89.1108 97.8658C90.99 94.416 90.1303 90.5017 89.6674 86.8141L91.3317 91.7788C92.7975 92.8071 101.378 85.3601 102.882 84.0498C103.147 87.7429 98.8759 90.6067 97.6636 92.9177C97.2778 93.653 97.5148 94.803 97.3439 95.0849L97.3384 95.0794Z" fill="#F1EBE4"/>
<path d="M154.689 88.4666C154.948 86.8578 156.37 86.0617 157.009 84.4418C160.63 75.2643 151.862 65.932 148.22 75.0708C145.795 81.1523 150.281 81.0417 150.319 84.3146C150.341 85.929 148.953 87.9525 147.795 89.0195C147.569 87.5986 148.209 86.4819 148.038 84.9394C147.691 81.8157 145.238 80.3672 146.23 76.4419C147.608 71.0128 152.959 68.0661 156.883 73.274C160.487 78.0618 160.068 85.2821 154.689 88.4722V88.4666Z" fill="#F1EBE4"/>
<path d="M81.9458 116.105C81.5931 114.789 82.6346 114.811 83.5715 114.722C86.4977 114.463 89.4515 116.657 89.6609 111.682C94.5103 117.813 85.7703 116.337 81.9403 116.099L81.9458 116.105Z" fill="#F1EBE4"/>
</svg>
