<svg width="24" height="22" viewBox="0 0 24 22" fill="none" xmlns="http://www.w3.org/2000/svg">
<path d="M12.4621 17.4556C12.4008 17.4208 12.2888 17.4415 12.2241 17.4705C12.1401 17.5079 11.6594 17.9395 11.5441 18.0395C9.87872 19.4905 8.19535 21.8841 5.74129 21.9866C3.82991 22.0666 2.33121 21.8163 0.939178 20.4479C-1.37488 18.1731 1.07452 14.6879 3.04923 13.0672C3.68858 12.5427 4.43926 12.1666 5.10928 11.6898L5.03661 11.5743C3.79524 10.9079 2.49455 9.54271 2.18854 8.17045C2.04054 7.50593 2.39255 6.10141 2.71522 5.47818C3.92792 3.13623 6.99199 3.51043 9.02404 4.53946C9.24271 4.64979 10.3387 5.38721 10.4474 5.36205L10.5554 5.26914C10.8101 4.33688 11.1601 3.40785 11.6328 2.55881C12.1054 1.70977 13.0248 0.525899 14.0355 0.21622C15.4002 -0.201846 16.8362 -0.0211971 17.9869 0.823968C19.6116 2.01688 19.3823 3.40398 18.6963 5.06398C18.4883 5.56721 18.1816 6.02463 17.9656 6.5227C18.0209 6.60141 18.0702 6.56141 18.1423 6.5498C18.4323 6.50076 18.7776 6.35431 19.0736 6.2956C19.7636 6.15883 21.2703 5.93237 21.9323 6.05302C23.4244 6.32463 24.3931 8.49884 23.845 9.80658C23.4117 10.8408 21.7517 11.8795 20.7236 12.3201C20.579 12.3821 20.0516 12.5001 20.0316 12.6156C20.0056 12.7647 21.2437 13.7453 21.4223 13.9092C22.389 14.7931 23.0257 15.3105 23.4977 16.5685C23.8604 17.5356 23.9871 18.4182 23.479 19.366C22.971 20.3137 21.5517 21.275 20.5276 21.5628C17.5416 22.4015 14.6048 20.0028 12.8195 17.9511C12.7495 17.8705 12.5041 17.4821 12.4608 17.4569L12.4621 17.4556ZM14.5288 13.7098C17.7222 12.4085 17.0176 7.86077 13.3921 7.53173C13.0415 7.50012 12.1028 7.70141 11.8301 7.84657C10.7314 8.43045 10.0454 9.36594 9.93473 10.5859C9.90739 10.8917 10.0121 10.9834 10.0347 11.1698C10.0961 11.6853 10.0674 11.8485 10.3647 12.3382C11.2114 13.7324 13.0055 14.3305 14.5288 13.7098Z" fill="white"/>
</svg>
