<svg width="222" height="200" viewBox="0 0 222 200" fill="none" xmlns="http://www.w3.org/2000/svg">
<g clip-path="url(#clip0_155_3435)">
<g opacity="0.5">
<path d="M152.404 99.948C155.243 98.3773 157.606 96.5002 160.88 95.5859C161.659 95.3667 167.979 94.7574 168.672 94.8588C169.561 94.9867 169.773 95.3585 168.894 95.6021C168.957 95.868 170.032 95.956 169.38 96.5308C168.727 97.1056 166.308 97.7191 165.346 98.2194C155.793 103.197 150.018 112.834 138.218 112.819C137.953 112.817 137.648 112.577 137.385 112.481C136.53 114.534 135.749 116.629 134.707 118.621C134.407 119.196 133.844 119.414 133.564 119.902C132.918 121.03 132.69 123.037 131.817 123.764C131.525 124.007 131.193 123.301 130.999 123.801L131.412 124.3L129.484 124.538C127.866 122.409 128.885 121.5 129.509 119.576C129.847 118.532 129.381 117.48 130.608 116.853L129.912 116.741C130.61 115.656 131.471 114.689 132.274 113.68C132.394 113.526 133.041 113.253 132.582 112.833C132.221 112.502 124.848 114.026 123.681 113.733L121.8 118.209C122.942 119.134 124.132 120.149 125.166 121.195C127.941 124.004 131.898 127.76 134.128 130.891C134.459 131.358 134.702 134.412 134.521 134.898C134.107 136.024 130.692 139.683 129.572 140.276C128.139 141.033 124.309 140.368 123.812 141.057C123.793 142.594 123.795 143.83 123.097 145.273L121.154 145.765C121.485 146.639 121.032 146.867 122.147 147.086L121.011 147.039L120.639 147.546L121.334 147.656L119.845 149.698L119.079 149.135L119.398 149.762C119.079 151.067 113.141 153.186 111.755 153.826C111.186 154.09 109.467 155.437 108.928 155.547C108.444 155.646 108.136 155.126 108.024 155.129C107.912 155.133 107.478 156.739 106.399 156.283C107.558 153.811 111.166 151.912 112.529 149.92C113.058 149.145 111.898 148.826 113.971 148.797C114.61 147.103 114.253 148.071 114.789 147.869C115.175 147.721 116.144 146.517 116.452 146.336C116.761 146.156 118.099 146.68 117.232 145.236L117.519 144.866C118.143 145.584 118.934 143.641 119.44 143.084C120.087 142.372 122.584 140.468 122.252 139.5C119.371 136.686 115.772 134.936 112.402 132.873C110.005 131.406 107.755 129.691 105.178 128.464C102.601 127.238 100.384 127.436 97.7048 126.851C94.2405 126.097 90.6592 125.14 87.9309 122.737L93.1749 122.345C96.1445 123.009 99.6499 122.677 102.568 123.229C108.092 124.277 111.509 130.888 116.693 132.905L116.764 133.529L116.207 133.857L116.53 134.729L117.834 134.104C119.634 135.911 124.113 137.383 123.599 140.312C123.87 141.185 126.586 137.428 126.954 137.071C129.598 134.511 132.942 133.496 131.095 128.871C130.182 126.587 129.721 127.247 128.353 126.133C127.889 125.753 125.639 123.567 125.31 123.545L125.062 124.151L121.568 121.185L122.953 121.426C121.163 120.61 120.286 118.582 119.026 117.395C114.974 113.572 108.164 113.292 104.143 109.175C103.299 110.412 102.543 113.963 103.282 115.294C104.19 116.933 106.953 118.115 108.483 119.466C110.756 121.476 112.106 124.58 114.484 126.569C114.087 126.881 113.5 126.826 113.042 126.709C109.425 125.78 103.918 122.077 102.007 118.879C101.211 117.546 99.6597 112.657 100.134 111.258C100.496 110.192 102.607 107.996 103.638 108.075C104.558 108.144 107.449 110.294 108.816 110.918C110.398 111.638 112.095 111.763 113.55 112.338C116.423 113.48 119.333 115.888 121.534 118.022C122.64 115.676 122.874 113.328 124.531 111.238L123.283 110.302C122.931 110.329 122.852 112.509 123.431 112.765C123.132 113.275 122.705 112.624 122.583 112.331C121.542 109.847 122.167 106.074 121.699 103.653C121.584 103.052 119.723 98.4562 119.438 98.4661C118.336 99.5416 117.927 100.868 116.694 101.941C112.286 105.764 93.883 104.998 87.431 105.537C86.8715 105.585 84.543 106.288 84.2666 106.238C84.204 106.227 82.9685 105.563 83.5559 105.226L119.023 97.9581L118.172 95.6052C118.828 94.1237 117.958 94.2958 117.882 93.6408C117.631 91.4693 119.887 85.69 120.939 83.6572C121.467 82.6382 123.868 78.4773 124.556 77.7322C125.243 76.987 126.599 76.8307 125.801 75.9002L126.082 75.527L126.68 75.7741C126.578 75.1187 126.769 74.6713 127.107 74.1244C128.137 72.4634 131.123 70.025 132.537 68.3094C133.952 66.5938 135.312 64.082 136.83 62.4342C138.025 61.141 138.475 62.3147 138.26 63.5906C137.672 67.1002 133.374 72.2034 131.609 75.4598C129.326 79.6682 129.987 88.2015 129.491 93.186C129.287 95.2422 128.731 97.3841 128.429 99.4508C128.108 101.672 128.502 104.343 127.316 106.399C126.534 107.753 125.516 108.459 124.627 109.526C124.225 110.011 124.39 109.967 124.86 110.277C127.47 107.363 130.002 105.053 132.273 101.796C132.755 101.1 132.945 100.287 133.469 99.5555C133.737 99.1843 134.788 98.4556 134.772 98.3655C134.764 98.3081 134.216 97.9448 134.058 97.4606C133.222 94.8795 133.722 86.588 134.377 84.2479C135.118 81.603 137.233 77.8431 139.246 75.9791C139.721 75.5401 140.322 75.6014 140.587 75.3415C140.875 75.0554 140.853 74.4554 141.301 74.0679C141.515 73.8837 144.568 72.6937 144.737 72.7671C146.676 78.8849 139.302 83.2608 137.614 88.772L135.52 97.3398L144.037 87.3535C147.645 82.6682 150.986 77.7368 154.474 73.0768C157.924 68.4677 161.216 63.684 165.432 59.7549C160.689 55.5233 159.844 49.3504 161.35 43.4355C161.977 47.12 162.67 51.6416 164.179 55.0888C164.531 55.8958 167.06 59.7127 166.723 60.1193C165.011 59.6886 165.329 60.9255 164.556 62.0386C162.51 64.979 160.257 68.1906 158.069 70.9878C154.684 75.3156 150.754 81.0967 146.986 86.001C146.617 86.4825 146.126 86.7839 145.703 87.1902C146.281 87.8495 146.285 87.3042 146.701 87.1475C149.221 86.2001 151.537 84.5629 154.38 84.1667C157.223 83.7706 159.628 84.9333 162.243 85.3811C164.338 85.744 166.714 85.5689 168.604 86.3812L154.246 89.1816C151.24 89.9282 146.853 93.3478 144.21 94.0319C143.08 94.3229 141.154 93.9501 139.963 94.7523C137.303 98.2297 135.188 102.299 132.001 105.338C132.632 106.021 132.565 105.423 132.982 105.201C135.861 103.683 138.673 101.888 141.854 101.074C143.381 100.683 151.377 99.5227 152.395 99.9449C151.668 100.348 151.285 100.599 150.35 100.602L150.928 101.411C150.395 101.305 149.809 102.066 149.55 102.079C149.259 102.097 148.944 101.634 148.816 101.638C148.751 101.641 148.482 102.408 148.189 102.663C146.712 103.952 145.253 104.158 143.551 104.856C142.476 105.297 141.591 106.676 140.397 105.635L140.718 106.259L136.933 108.169L136.379 107.382L135.886 108.583L135.15 108.113L133.748 109.368C139.381 109.128 145.018 107.794 149.877 104.863C153.665 102.575 157 99.4994 160.928 97.4C161.973 96.4394 158.305 97.7736 158.067 97.8847C156.837 98.451 154.314 100.445 153.274 100.614C152.661 100.713 152.615 100.04 152.4 99.9486L152.404 99.948ZM123.212 109.854C124.513 107.232 126.499 106.45 127.153 103.263C128.823 95.1282 128.3 86.6143 129.721 78.4617C129.851 77.7186 130.503 76.8456 130.251 76.2379C127.981 81.4431 124.559 88.0276 123.695 93.6269C123.302 96.1867 123.997 98.8368 123.964 101.269C123.94 103.117 123.333 103 123.111 103.879C122.699 105.52 122.737 108.201 123.213 109.859L123.212 109.854Z" fill="#C2858C"/>
<path d="M90.1551 149.06C90.1006 155.093 83.559 159.155 80.2175 163.691L91.2705 164.368C91.1006 165.337 89.2599 165.717 88.3493 165.933C85.2289 166.67 81.4657 166.191 78.3326 165.712C75.8141 168.298 73.4284 171.263 70.8019 173.718C67.8321 176.498 63.6291 178.701 61.2495 182.074C59.9082 183.973 59.4315 186.326 58.4789 188.389C57.7973 189.863 54.5296 194.822 55.5661 196.088C56.1608 196.815 57.6767 196.467 56.8701 198.245L57.7869 198.554L57.2422 198.875L57.5782 199.372C55.7509 200.193 54.0598 199.841 52.4848 198.582C51.8368 198.067 52.3821 198.295 52.7348 197.974L51.7865 197.666L53.1577 196.33L51.463 194.732L51.5233 193.977C51.7804 193.445 52.3758 193.205 52.6583 192.691C53.4451 191.255 54.6041 188.521 55.6056 187.337C58.2654 184.2 58.9814 180.875 61.8941 177.473C62.5203 176.742 63.4711 176.198 64.0742 175.493C67.2683 171.762 70.2794 167.869 74.0361 164.641C69.9526 163.045 65.5157 162.368 61.3917 160.95C61.0293 160.825 57.4514 159.521 57.7225 159.125L75.5869 162.974C80.0582 158.046 85.4922 154.079 89.5572 148.812L90.1507 149.06L90.1551 149.06Z" fill="#C2858C"/>
<path d="M171.392 40.7606C171.551 42.1666 171.091 43.7446 171.444 45.1594C174.194 47.5436 177.315 50.2865 180.772 51.5362C181.924 51.9513 183.316 52.0492 184.52 52.4157C186.152 52.913 186.377 54.0466 188.424 52.7559C190.064 55.4531 192.626 57.4482 195.259 59.1316C192.738 58.0321 189.333 56.519 188.228 53.7714C187.124 57.6901 181 54.3915 178.74 53.0257C177.229 52.1121 175.906 50.8149 174.423 49.906C171.853 48.3325 168.959 47.9545 167.616 45.0717C166.769 43.2584 166.798 40.3568 165.965 38.7537C165.048 36.9873 162.172 35.7094 160.319 35.2732C159.683 36.5258 159.338 37.7381 157.666 37.7915C153.785 36.3201 153.027 31.9868 155.265 28.7798L149.934 27.1447C149.398 27.2722 147.182 26.6591 147.021 27.2193C146.861 27.7795 147.484 28.8048 147.528 29.4014C147.689 31.5258 147.58 33.7458 148.087 35.8622C148.407 37.1938 150.05 40.8374 149.914 41.6899C149.84 42.1645 149.793 42.2124 149.313 42.2477C147.662 42.1557 145.649 37.3623 145.182 35.8634C144.95 35.1171 145.001 33.4777 144.723 32.9916C144.445 32.5054 143.753 32.2208 143.628 31.9213C143.592 31.8276 143.871 30.0309 143.907 29.9396C144.522 28.3694 146.443 28.985 147.134 30.2527C146.536 27.6938 144.486 25.6631 148.536 25.4205C149.851 25.3405 154.244 26.3131 155.523 26.8058C158.357 27.8958 155.885 29.975 155.369 31.5909C154.567 34.105 156.39 38.7469 159.221 36.2375C156.852 32.5269 162.312 31.1728 165.091 31.7762C169.876 32.8175 170.902 36.4788 171.393 40.765L171.392 40.7606Z" fill="#C2858C"/>
<path d="M42.1844 161.627C39.4456 163.851 36.1258 165.202 33.2328 167.29C25.0953 173.166 16.9716 179.706 9.50516 186.307C7.97822 187.657 2.23377 193.089 0.583417 193.017C0.242352 193.002 0.0188712 193.002 -0.168353 192.665C-1.16476 186.89 5.51799 184.323 9.42259 181.352C18.5653 174.404 29.4237 164.582 40.7124 161.585C41.2268 161.449 41.7203 161.134 42.1831 161.618L42.1844 161.627Z" fill="#C2858C"/>
<path d="M112.47 97.2725L111.977 97.6827C110.317 94.661 111.356 91.9207 111.219 88.8231C111.154 87.3099 110.503 86.1693 110.259 84.8148C110.186 84.4124 110.641 84.3628 110.558 84.0863C110.415 83.5931 109.634 82.2871 109.052 82.2047L109.563 81.4551L108.069 80.3151L108.7 79.9989L107.108 78.4335L107.243 83.043L106.775 82.8912L105.946 75.6561L105.106 75.349C105.38 72.6199 101.525 69.4947 103.852 66.8819C106.312 64.1198 107.937 68.8282 109.156 70.546C113.017 76.0025 118.665 82.0317 114.277 88.9725C113.788 89.7459 113.032 90.2371 112.627 90.8485C111.524 92.5185 111.584 95.5873 112.476 97.2693L112.47 97.2725Z" fill="#C2858C"/>
<path d="M186.955 67.5896C182.269 68.4226 178.107 66.8 174.067 64.5348L176.001 67.8986C176.055 69.6349 176.688 71.0631 176.509 72.8555C176.442 73.5234 175.615 77.951 175.394 78.2471C175.03 78.7323 173.727 78.2569 173.392 77.9919C173.058 77.7268 171.669 73.8386 171.514 73.1642C171.204 71.8242 171.531 69.6859 171.151 68.7093C170.771 67.7327 169.622 66.6617 169.072 65.6389C168.387 64.3679 168.112 62.8645 167.098 61.7593C167.092 61.2653 169.823 62.0796 170.19 62.1181C170.525 62.1525 170.595 62.6118 170.944 61.8531C169.187 60.2767 168.879 57.68 166.724 56.3953L170.336 57.124C174.685 61.5878 183.406 67.3417 189.918 65.5615C191.27 65.1911 192.355 64.2718 193.759 64.1081C193.645 65.3912 192.245 65.2447 191.509 65.629C189.905 66.4652 188.837 67.2598 186.956 67.594L186.955 67.5896Z" fill="#C2858C"/>
<path d="M106.349 149.281C106.245 148.472 103.506 147.451 102.611 146.802C102.291 146.567 100.429 144.894 100.032 144.489C97.691 142.092 97.5596 138.998 93.9085 137.394C92.727 136.875 91.4453 138.014 90.2097 138.306C87.6277 138.917 84.8317 139.164 82.2298 138.526C82.2027 138.291 85.4827 136.813 85.9002 136.708C86.4329 136.574 92.4606 135.668 92.8071 135.719C96.1942 136.22 98.2292 138.49 100.662 140.324C103.011 142.092 106.373 144.096 107.959 146.659C108.116 146.915 108.586 148.761 108.478 149.069C108.378 149.36 107.928 149.563 107.797 149.886C105.693 155.072 103.123 158.556 100.878 163.337C99.9723 165.266 100.824 166.667 97.767 166.95C96.9925 167.023 93.0583 166.665 92.464 166.338C89.3343 164.616 95.8629 163.972 96.7575 163.313C98.9383 161.705 103.314 156.107 104.712 153.709C105.109 153.029 106.429 149.888 106.35 149.274L106.349 149.281Z" fill="#C2858C"/>
<path d="M212.509 33.3156C212.614 33.7264 212.336 35.7353 212.08 36.2018C211.252 37.7097 210.065 38.5226 208.692 39.4227C209.406 41.9097 212.437 41.3581 214.395 42.6076C218.126 44.9878 216.819 49.9795 212.497 50.829C212.139 50.8997 208.67 51.157 208.475 51.1079C207.457 50.8462 206.931 50.0682 205.803 49.8822C204.675 49.6963 202.611 50.5196 201.382 50.5027C201.903 49.1256 206.061 48.2337 207.208 48.6766C207.705 48.8692 207.859 49.433 208.695 49.7137C209.104 49.8497 211.779 49.859 212.103 49.7369C212.571 49.5589 213.122 48.8979 213.732 48.5782C215.024 47.9007 216.179 48.4553 215.789 46.0339C215.476 44.0911 213.038 43.0261 211.266 42.7944C210.43 42.6856 209.717 43.0437 209.037 42.9674C206.675 42.6976 203.456 38.4646 205.349 36.4268C205.969 35.7576 210.602 34.9125 210.492 34.0796C208.638 33.6346 207.541 31.8618 206.023 31.0329C202.849 29.297 199.529 30.189 196.24 29.5056L195.561 30.9501C193.885 28.168 198.234 26.9733 200.339 26.7605C203.769 26.4189 207.66 27.5724 210.199 29.9462C210.602 30.3249 212.412 32.9394 212.512 33.3219L212.509 33.3156Z" fill="#C2858C"/>
<path d="M141.525 11.3505C140.917 11.5073 139.034 13.1254 139.035 13.7534C139.756 14.8629 141.296 16.6557 142.637 16.7864C142.999 16.8212 143.643 16.3539 144.201 16.3291C146.903 16.2055 153.995 17.2131 155.885 19.0718C157.125 20.2915 158.444 25.4491 157.261 27.1112C156.626 25.9906 156.294 24.7715 155.646 23.6328C155.333 23.082 154.621 21.7361 154.221 21.4111C153.457 20.7916 145.872 18.8724 145.083 19.1201C143.897 19.4945 143.189 23.4179 140.98 24.7696C140.037 25.3462 139.709 24.3729 139.456 25.7541C137.829 25.265 136.448 25.2965 135.795 27.1368C135.439 28.1407 136.775 28.9728 135.825 29.3921C135.054 27.5129 134.729 25.5899 136.602 24.2853C137.82 23.436 138.863 22.6429 140.069 21.7616C140.544 21.4129 143.052 20.0063 143.041 19.8067C137.675 19.6233 133.142 12.1684 140.324 10.1702C142.591 9.53938 143.903 11.2044 145.195 11.0128C146.051 10.8857 146.095 9.67212 146.724 9.97325C145.734 12.7446 142.931 10.9877 141.521 11.3512L141.525 11.3505Z" fill="#C2858C"/>
<path d="M184.426 26.7806C184.707 28.6087 182.415 28.7552 182.064 29.1051C181.194 29.9709 183.073 30.6652 183.88 30.5797C184.108 30.7391 183.663 31.1847 183.782 31.4988C183.953 31.9538 188.026 34.4941 188.847 35.0188C189.668 35.5435 190.933 35.8734 191.727 36.4407C195.024 38.7996 195.692 43.02 194.931 46.7595L194.334 46.5054C194.992 47.8032 191.798 48.6352 191.64 48.0448L191.759 47.353L190.755 48.1785C192.98 50.8626 196.889 49.3965 199.29 52.1823C199.801 52.7772 199.743 53.6946 200.277 54.2905L202.715 56.9623C201.775 56.1349 200.422 55.4977 199.561 54.6265C198.7 53.7554 198.871 52.8071 197.564 51.9843C195.869 50.9159 192.585 51.5877 191.013 50.7151C189.736 50.005 188.76 47.4545 187.141 46.6999L187.954 46.1253L187.006 45.8212L187.681 44.3616L189.897 44.8256C190.136 44.0725 191.282 43.7428 191.506 43.2407C191.808 42.5615 191.111 41.7872 192.187 41.4139C191.199 40.3274 191.321 39.1244 190.174 37.9878C187.616 35.4588 184.261 33.3709 181.57 30.9596C180.362 28.0898 183.025 29.1247 183.911 27.088C180.539 24.2819 177.409 26.0079 174.203 27.8496L169.996 30.5819C171.554 28.1255 177.029 23.942 179.973 24.2581C181.081 24.3748 184.251 25.6212 184.429 26.7825L184.426 26.7806Z" fill="#C2858C"/>
<path d="M161.681 57.3955C156.601 61.5951 150.748 56.3408 145.385 54.9297C144.647 54.7359 143.771 54.4455 143.039 54.3546C141.454 54.1506 139.738 54.8528 138.355 53.9783C138.246 53.1543 142.638 51.5055 143.471 51.2826C149.342 49.7208 157.536 53.1961 161.681 57.3999L161.681 57.3955Z" fill="#C2858C"/>
<path d="M34.8208 126.825C41.212 122.812 47.6926 117.204 54.7071 114.429C59.3458 112.593 64.5975 111.737 69.3587 109.846C72.1149 108.751 74.6463 106.677 77.7876 106.664C77.571 107.21 77.0403 106.989 76.6824 107.29C70.9588 112.122 61.9458 112.865 55.1817 116.051C50.237 118.379 45.0969 122.319 40.0618 124.941C39.6267 125.166 34.9586 127.87 34.8215 126.829L34.8208 126.825Z" fill="#C2858C"/>
<path d="M-0.0948055 146.518C-0.623228 146.577 -2.51685 145.817 -2.81672 145.393C-3.01601 145.11 -2.19778 144.57 -3.56678 144.478C-2.68174 143.564 -1.91531 142.113 -0.739881 141.562C-0.0362541 141.233 0.471351 141.539 1.03866 141.395C11.3991 138.734 20.0105 131.267 30.3543 128.645C26.85 131.561 22.3364 132.916 18.3522 135.029C13.8374 137.422 8.64643 140.235 4.46578 143.128C3.33066 143.913 0.953896 146.407 -0.0941259 146.523L-0.0948055 146.518Z" fill="#C2858C"/>
<path d="M219.87 65.405C220.346 67.0788 220.227 69.2484 219.843 70.9299C219.671 71.1282 218.855 70.666 218.308 71.1386C217.256 72.0505 218.21 72.6496 215.818 72.4636L216.062 71.8633C215.649 71.4658 215.668 72.3735 215.045 71.9428C214.187 71.356 212.813 68.8146 211.642 68.782C210.689 69.0415 210.452 70.2394 209.698 70.8254C209.589 70.9099 207.267 71.7435 207.129 71.7443C205.437 71.767 201.616 68.8039 199.372 69.0017C199.271 68.3596 201.388 68.6332 201.691 68.6793C203.675 68.9802 206.831 70.9178 208.324 70.702C210.199 70.4297 209.876 68.7619 210.652 68.2856C211.335 67.8666 215.687 68.0498 216.812 67.1087C216.491 66.3444 216.798 65.6961 216.592 64.8352C215.885 61.8636 214.472 60.0221 211.947 58.2541L212.578 57.9379L211.999 57.1207C215.577 58.8556 218.753 61.4546 219.874 65.4043L219.87 65.405Z" fill="#C2858C"/>
<path d="M96.4871 150.572L93.2221 149.13C91.0039 148.61 89.1486 148.556 87.0357 148.501C84.458 148.434 82.4812 147.75 80.5737 145.899C78.9072 144.279 78.4757 140.98 80.3453 139.493C83.8328 143.504 87.9996 145.702 92.61 148.07C94.0095 148.788 95.4451 148.784 96.4896 150.574L96.4871 150.572Z" fill="#C2858C"/>
<path d="M135.165 39.0945C138.069 42.6257 138.191 41.0386 141.335 40.307C144.797 39.4994 145.548 41.7004 147.001 44.2838C145.699 46.2036 143.571 43.7081 141.85 43.6628C140.92 43.6384 139.496 44.4765 138.341 44.3376C136.391 44.097 134.733 42.0015 133.931 40.3078C132.372 36.9995 135.256 37.6839 136.638 36.0615C137.412 35.1493 137.394 34.2347 137.888 33.2616C138.605 35.7548 136.818 37.5027 135.169 39.1007L135.165 39.0945Z" fill="#C2858C"/>
<path d="M175.263 7.18078C175.497 7.74824 175.543 10.4892 174.83 10.6236C173.995 10.2343 174.145 9.25091 173.646 8.66537C171.68 6.35513 167.688 7.52206 165.417 8.87889L160.971 12.9835C162.139 11.3734 162.149 8.96292 163.272 7.36661C165.646 3.99638 173.367 2.54348 175.263 7.18078Z" fill="#C2858C"/>
<path d="M182.929 17.2926C183.824 18.0635 186.003 19.8282 187.17 19.6897C188.573 19.5215 188.274 18.0127 190.514 19.4109C192.319 20.5369 193.25 21.7883 193.171 23.9676C193.133 25.006 192.449 27.5834 191.683 28.2276C191.509 28.3741 191.153 28.0967 191.086 28.1296C190.876 28.2342 191.026 28.8461 190.41 28.9227C189.98 28.9752 187.953 28.803 188.005 28.151C188.196 25.7014 195.584 22.7742 188.714 19.4366C187.212 20.63 186.162 20.936 184.305 20.1366C178.218 17.5193 183.677 15.1891 182.891 12.4375C182.431 10.8179 180.109 10.8876 178.992 9.75762L182.168 10.621C185.207 11.8965 183.496 14.9818 182.929 17.2882L182.929 17.2926Z" fill="#C2858C"/>
<path d="M82.7297 134.454C79.5319 135.099 66.4098 132.812 62.5773 132.043C61.8574 131.898 61.4128 131.826 60.7478 131.686C59.838 131.496 58.9521 131.108 58.0331 130.946L85.9501 132.646C85.5728 133.513 83.5903 134.278 82.7272 134.452L82.7297 134.454Z" fill="#C2858C"/>
<path d="M158.726 10.1633C157.455 5.46825 153.259 2.71627 148.461 2.84786C143.662 2.97946 147.474 4.75992 146.764 7.25542C140.923 0.65012 150.451 0.112815 154.742 2.57885C157.377 4.09045 158.685 5.8623 158.876 8.90186C158.906 9.36277 159.191 9.76857 158.728 10.1651L158.726 10.1633Z" fill="#C2858C"/>
<path d="M166.204 30.9322C165.044 29.1285 165.576 25.9892 166.14 24.0518C166.878 21.5225 168.347 18.0562 170.282 16.2992C170.816 17.8081 169.238 18.934 168.744 20.036C167.186 23.5114 167.012 27.2669 166.204 30.9322Z" fill="#C2858C"/>
<path d="M202.766 61.0244C202.837 61.5854 202.343 62.2849 202.013 62.7199C201.434 61.715 202.975 61.2952 201.903 60.4768C200.251 59.2165 198.436 60.0151 196.743 59.238C196.995 58.6863 197.433 58.7999 197.909 58.7583C199.46 58.6239 202.54 59.1813 202.771 61.0238L202.766 61.0244Z" fill="#C2858C"/>
</g>
</g>
<defs>
<clipPath id="clip0_155_3435">
<rect width="222" height="200" fill="white" transform="matrix(-1 0 0 1 222 0)"/>
</clipPath>
</defs>
</svg>
