<svg width="217" height="42" viewBox="0 0 217 42" fill="none" xmlns="http://www.w3.org/2000/svg">
<path d="M26.8032 21.1168C26.5416 22.8624 25.3282 22.0671 24.6273 22.8314C24.3867 23.0897 23.7277 24.9076 23.6126 24.8766C18.9053 22.7591 15.0767 19.2162 16.9701 13.6384C17.7965 11.2214 19.0413 11.459 20.7255 10.2298C21.5833 9.59969 23.1628 7.32726 23.7173 7.07936C24.2717 6.83146 25.0353 7.0587 25.6525 6.95541C29.1254 6.40796 31.4686 1.17104 35.2136 6.08775C39.4188 11.6036 37.1279 21.3647 32.2637 25.8889C31.9708 25.6926 31.9708 25.4964 31.9394 25.1865C31.6988 22.8624 31.6883 20.4867 31.5419 18.1523C31.2803 17.8114 31.1653 18.173 31.1339 18.4518C30.9874 19.6294 31.0293 23.0174 29.8368 23.4925C29.0208 23.823 28.184 23.1 28.0375 22.3253L26.8136 16.5203C26.6672 17.9354 27.0228 19.7327 26.8136 21.0961L26.8032 21.1168Z" fill="#A35B5B"/>
<path d="M12.9953 25.8993C12.9429 26.1885 13.3405 26.1678 13.5601 26.2504C15.2234 26.9012 17.7863 27.366 19.2298 28.182C19.3867 28.2647 19.8993 28.6055 19.7947 28.7398C18.7486 28.9774 18.4348 30.0103 18.5604 30.9812C17.5561 30.847 16.6356 30.6817 15.5895 30.7953C12.8488 31.1052 13.4241 32.5306 10.0453 30.9399C5.08696 28.6055 -1.96356 22.1911 1.28972 16.2621C2.70192 13.7004 4.33379 14.5371 6.55146 13.7211C7.72306 13.2873 8.87374 11.8102 9.82566 11.6553C11.8446 11.335 14.261 12.3576 16.0079 13.2666C15.2129 16.6133 15.6837 19.7947 18.1628 22.3254C18.9369 23.1207 20.7257 23.9884 21.2592 24.5668C21.3638 24.6804 21.4998 24.7321 21.437 24.9283L19.7215 27.8928C17.577 26.8909 15.464 25.9303 13.0162 25.8889L12.9953 25.8993Z" fill="#A35B5B"/>
<path d="M22.0647 32.8197C22.1275 34.1212 20.7048 33.5531 20.1818 34.1316C19.2508 35.1542 23.2572 36.4247 23.9163 36.7965C24.1464 36.9205 24.4184 36.7758 24.3242 37.1993C23.843 38.4182 18.1629 39.8333 16.803 39.9469C12.3154 40.3291 5.85064 38.6041 2.08478 36.1664C1.55129 35.8256 -0.0805819 34.803 0.00310378 34.1522C0.118172 33.3775 1.09102 34.6893 1.24793 34.7616C2.0534 35.1232 4.80457 33.987 5.90294 33.863C7.80679 33.6564 9.86755 34.1109 11.7505 33.6358L8.35075 33.2329C7.41974 33.2846 6.38413 33.14 5.47405 33.2329C4.26061 33.3569 3.06809 34.2968 2.17893 34.2658C1.227 34.2245 0.986408 33.2949 0.0135627 33.4292C0.0344841 31.0018 1.48853 28.8843 3.44468 27.5518C6.26907 29.9792 9.04115 31.9005 12.7756 32.7371C13.0999 32.7681 13.8008 31.8591 14.4284 31.6939C16.6565 31.1154 19.8575 32.3343 22.0647 32.8197Z" fill="#A35B5B"/>
<path d="M37.7241 25.0833C36.5106 26.3331 35.475 28.0271 33.4247 27.6966C33.3724 27.6656 33.0481 26.6946 33.0586 26.6017C33.0795 26.4054 35.2135 24.3189 35.6319 23.7198C36.6361 22.2634 37.5567 20.1459 37.881 18.4106C38.2994 16.1898 37.4416 10.9529 41.0819 11.6966C44.4189 12.368 43.6867 17.6359 44.1783 20.0426C44.3352 20.8379 44.8373 21.7056 44.9315 22.346C45.3813 25.2175 43.5716 29.3079 40.7263 30.3821C38.8015 31.1155 34.7428 31.0536 32.9854 29.845L33.4875 28.3266C35.5378 27.9754 37.1906 27.2524 37.7241 25.0833Z" fill="#A35B5B"/>
<path d="M21.2382 34.4519C23.3826 34.0077 25.1086 32.5306 27.0753 31.7663C27.6192 31.5597 30.4227 30.63 30.8516 30.5887C31.9604 30.4854 33.519 31.2808 34.743 31.3944C35.7786 31.4874 37.1908 31.446 38.2473 31.4047C39.7327 31.3531 42.1805 30.5991 39.785 32.9231C35.7681 36.8379 26.2175 38.9967 21.5729 35.02C21.3637 34.834 21.144 34.8237 21.2277 34.4415L21.2382 34.4519Z" fill="#A35B5B"/>
<path d="M22.6818 31.5906C22.7551 31.7869 22.6923 32.1794 22.4831 32.3137C22.0647 32.5925 20.9872 32.2827 20.6211 31.9005C21.2383 31.7455 21.2592 31.8488 21.6462 31.3944C20.9454 31.4563 20.2863 31.8385 19.5018 31.415C18.8114 30.537 20.4851 29.2355 21.2383 29.4421C22.1484 29.8966 22.3053 30.63 21.6462 31.3944C21.9182 31.3737 22.5145 31.1774 22.6818 31.6009C21.3952 29.3388 23.9581 27.2007 26.1025 26.9425C26.8034 26.8598 28.8641 26.8082 29.429 27.0664C30.3286 27.4796 30.5274 29.2355 30.0566 30.0309C29.7324 30.5783 26.5628 31.415 25.6632 31.7972C24.4288 32.3137 23.7384 33.4705 22.6818 31.6009V31.5906Z" fill="#A35B5B"/>
<path d="M24.9417 25.6927C23.6655 23.3892 25.9041 22.8935 26.8978 24.8767L27.0025 23.255C28.6343 23.7508 28.4879 25.6204 27.0966 26.3021L26.7932 25.2898C26.448 25.2485 26.6154 25.7547 26.2597 25.8786C25.8518 26.0232 25.3497 25.765 24.9417 25.6927C25.1509 26.0645 25.6007 26.2504 25.5589 26.7049C24.7116 26.7979 23.6132 26.4984 23.7073 25.4861C24.1467 25.4138 24.5337 25.6204 24.9417 25.6927Z" fill="#A35B5B"/>
<path d="M30.0464 24.1122C32.034 23.6164 32.2746 27.8618 29.356 26.7255C27.5777 26.0335 28.9062 24.3911 30.0464 24.1122Z" fill="#A35B5B"/>
<path d="M32.7239 28.905C31.7615 29.8553 29.0626 28.3989 31.4581 27.149C33.0481 26.3227 33.3724 28.2543 32.7239 28.905Z" fill="#A35B5B"/>
<path d="M22.2212 25.9302C23.0162 25.8373 23.6543 26.2298 24.125 26.8082C23.7484 27.8205 20.3801 27.8101 20.924 26.7049C21.0914 26.3537 21.8341 25.9715 22.2212 25.9302Z" fill="#A35B5B"/>
<path d="M23.299 27.7275C23.1107 28.6365 20.6943 29.5248 20.4118 28.6365C20.0666 27.5622 22.755 27.6862 23.299 27.7275Z" fill="#A35B5B"/>
<path d="M59.34 9.94C60.2333 9.94 61.02 10.0867 61.7 10.38C62.3933 10.6733 62.9267 11.08 63.3 11.6C63.6733 12.12 63.86 12.7133 63.86 13.38C63.86 14.0733 63.66 14.7 63.26 15.26C62.86 15.82 62.3067 16.2667 61.6 16.6C60.8933 16.92 60.1067 17.08 59.24 17.08C58.8667 17.08 58.44 17.06 57.96 17.02C57.7733 17.0067 57.54 16.9933 57.26 16.98C56.9933 16.9667 56.6933 16.96 56.36 16.96L54.9 16.98C54.6333 16.9933 54.2733 17 53.82 17C53.78 17 53.76 16.96 53.76 16.88C53.76 16.8 53.78 16.76 53.82 16.76C54.2067 16.76 54.5 16.7267 54.7 16.66C54.9 16.58 55.04 16.4467 55.12 16.26C55.2133 16.06 55.26 15.7667 55.26 15.38V6.12C55.26 5.56 55.1667 5.19333 54.98 5.02C54.7933 4.83333 54.4133 4.74 53.84 4.74C53.8133 4.74 53.8 4.7 53.8 4.62C53.8 4.54 53.8133 4.5 53.84 4.5L54.9 4.52C55.5133 4.54667 56 4.56 56.36 4.56C56.7333 4.56 57.12 4.54 57.52 4.5C57.6533 4.48667 57.8533 4.47333 58.12 4.46C58.3867 4.44667 58.62 4.44 58.82 4.44C60.0333 4.44 60.9733 4.66 61.64 5.1C62.3067 5.54 62.64 6.18 62.64 7.02C62.64 7.79333 62.3333 8.48 61.72 9.08C61.12 9.66667 60.2533 10.0733 59.12 10.3L59.34 9.94ZM58.52 4.88C58.1333 4.88 57.8667 4.97333 57.72 5.16C57.5733 5.33333 57.5 5.66667 57.5 6.16V10.08L56.76 9.94C57.3467 9.96667 57.86 9.98 58.3 9.98C58.9933 9.98 59.5267 9.72 59.9 9.2C60.2733 8.68 60.46 8.01333 60.46 7.2C60.46 6.44 60.2933 5.86667 59.96 5.48C59.6267 5.08 59.1467 4.88 58.52 4.88ZM58.9 16.58C60.6467 16.58 61.52 15.6733 61.52 13.86C61.52 12.8333 61.2733 12.02 60.78 11.42C60.2867 10.82 59.54 10.52 58.54 10.52C57.8867 10.52 57.32 10.56 56.84 10.64L57.5 10.4V15.38C57.5 15.82 57.5867 16.1333 57.76 16.32C57.9333 16.4933 58.3133 16.58 58.9 16.58ZM68.6145 11.86H74.3745L74.5145 12.42H68.3145L68.6145 11.86ZM79.2345 16.76C79.3012 16.76 79.3345 16.8 79.3345 16.88C79.3345 16.96 79.3012 17 79.2345 17C78.9679 17 78.5545 16.9867 77.9945 16.96C77.4079 16.9333 76.9879 16.92 76.7345 16.92C76.4012 16.92 75.9945 16.9333 75.5145 16.96C75.0612 16.9867 74.7012 17 74.4345 17C74.3812 17 74.3545 16.96 74.3545 16.88C74.3545 16.8 74.3812 16.76 74.4345 16.76C74.7812 16.76 75.0279 16.7267 75.1745 16.66C75.3345 16.58 75.4145 16.4467 75.4145 16.26C75.4145 16.0333 75.2812 15.6533 75.0145 15.12L70.9545 7.1L71.9345 5.38L67.9545 14.16C67.7812 14.5467 67.6945 14.9067 67.6945 15.24C67.6945 15.72 67.8612 16.0933 68.1945 16.36C68.5412 16.6267 69.0012 16.76 69.5745 16.76C69.6412 16.76 69.6745 16.8 69.6745 16.88C69.6745 16.96 69.6412 17 69.5745 17C69.3345 17 68.9879 16.9867 68.5345 16.96C68.0279 16.9333 67.5879 16.92 67.2145 16.92C66.8545 16.92 66.4212 16.9333 65.9145 16.96C65.4612 16.9867 65.0945 17 64.8145 17C64.7612 17 64.7345 16.96 64.7345 16.88C64.7345 16.8 64.7612 16.76 64.8145 16.76C65.1879 16.76 65.5012 16.6867 65.7545 16.54C66.0079 16.38 66.2612 16.1067 66.5145 15.72C66.7679 15.32 67.0679 14.7333 67.4145 13.96L71.7545 4.42C71.7812 4.38 71.8412 4.36 71.9345 4.36C72.0412 4.36 72.1012 4.38 72.1145 4.42L77.1145 14.26C77.5812 15.2067 77.9679 15.86 78.2745 16.22C78.5812 16.58 78.9012 16.76 79.2345 16.76ZM79.8109 17C79.7843 17 79.7709 16.96 79.7709 16.88C79.7709 16.8 79.7843 16.76 79.8109 16.76C80.2776 16.76 80.6176 16.7267 80.8309 16.66C81.0443 16.5933 81.1909 16.4667 81.2709 16.28C81.3509 16.08 81.3909 15.78 81.3909 15.38V6.12C81.3909 5.72 81.3509 5.42667 81.2709 5.24C81.1909 5.05333 81.0443 4.92667 80.8309 4.86C80.6176 4.78 80.2776 4.74 79.8109 4.74C79.7843 4.74 79.7709 4.7 79.7709 4.62C79.7709 4.54 79.7843 4.5 79.8109 4.5L80.8909 4.52C81.5043 4.54667 81.9976 4.56 82.3709 4.56C82.8109 4.56 83.3643 4.54667 84.0309 4.52L85.1509 4.5C85.1909 4.5 85.2109 4.54 85.2109 4.62C85.2109 4.7 85.1909 4.74 85.1509 4.74C84.6976 4.74 84.3643 4.78 84.1509 4.86C83.9376 4.92667 83.7909 5.05333 83.7109 5.24C83.6443 5.42667 83.6109 5.72 83.6109 6.12V15.34C83.6109 15.7933 83.6243 16.0933 83.6509 16.24C83.6909 16.3867 83.7709 16.48 83.8909 16.52C84.0109 16.56 84.2509 16.58 84.6109 16.58H87.6509C88.0243 16.58 88.2776 16.56 88.4109 16.52C88.5576 16.4667 88.6509 16.36 88.6909 16.2C88.7309 16.04 88.7509 15.7533 88.7509 15.34V6.12C88.7509 5.72 88.7109 5.42667 88.6309 5.24C88.5509 5.05333 88.4043 4.92667 88.1909 4.86C87.9776 4.78 87.6443 4.74 87.1909 4.74C87.1509 4.74 87.1309 4.7 87.1309 4.62C87.1309 4.54 87.1509 4.5 87.1909 4.5C87.8709 4.54 88.7643 4.56 89.8709 4.56C90.2443 4.56 90.7509 4.54667 91.3909 4.52L92.5509 4.5C92.5776 4.5 92.5909 4.54 92.5909 4.62C92.5909 4.7 92.5776 4.74 92.5509 4.74C92.0843 4.74 91.7443 4.78 91.5309 4.86C91.3176 4.92667 91.1709 5.05333 91.0909 5.24C91.0109 5.42667 90.9709 5.72 90.9709 6.12V15.34C90.9709 15.7933 90.9843 16.0933 91.0109 16.24C91.0509 16.3867 91.1309 16.48 91.2509 16.52C91.3709 16.56 91.6176 16.58 91.9909 16.58H95.0309C95.4176 16.58 95.6776 16.56 95.8109 16.52C95.9443 16.48 96.0309 16.3867 96.0709 16.24C96.1109 16.08 96.1309 15.78 96.1309 15.34V6.12C96.1309 5.72 96.0909 5.42667 96.0109 5.24C95.9443 5.05333 95.7976 4.92667 95.5709 4.86C95.3576 4.78 95.0243 4.74 94.5709 4.74C94.5443 4.74 94.5309 4.7 94.5309 4.62C94.5309 4.54 94.5443 4.5 94.5709 4.5L95.7109 4.52C96.3776 4.54667 96.9309 4.56 97.3709 4.56C97.7576 4.56 98.2443 4.54667 98.8309 4.52L99.9109 4.5C99.9509 4.5 99.9709 4.54 99.9709 4.62C99.9709 4.7 99.9509 4.74 99.9109 4.74C99.4576 4.74 99.1176 4.78 98.8909 4.86C98.6776 4.92667 98.5309 5.05333 98.4509 5.24C98.3843 5.42667 98.3509 5.72 98.3509 6.12V15.38C98.3509 15.7667 98.3909 16.06 98.4709 16.26C98.5643 16.4467 98.7176 16.58 98.9309 16.66C99.1443 16.7267 99.4709 16.76 99.9109 16.76C99.9509 16.76 99.9709 16.8 99.9709 16.88C99.9709 16.96 99.9509 17 99.9109 17H79.8109ZM113.666 4.28C114.253 4.28 114.866 4.33333 115.506 4.44C116.146 4.53333 116.646 4.66 117.006 4.82C117.126 4.86 117.199 4.91333 117.226 4.98C117.266 5.03333 117.299 5.13333 117.326 5.28L117.566 8.06C117.566 8.1 117.533 8.12667 117.466 8.14C117.399 8.15333 117.359 8.13333 117.346 8.08C116.893 7.02667 116.286 6.21333 115.526 5.64C114.766 5.06667 113.886 4.78 112.886 4.78C111.566 4.78 110.546 5.26667 109.826 6.24C109.106 7.21333 108.746 8.52 108.746 10.16C108.746 11.3867 108.939 12.5067 109.326 13.52C109.726 14.5333 110.279 15.34 110.986 15.94C111.706 16.5267 112.519 16.82 113.426 16.82C114.279 16.82 115.039 16.54 115.706 15.98C116.386 15.4067 116.993 14.54 117.526 13.38C117.539 13.3267 117.579 13.3067 117.646 13.32C117.726 13.3333 117.766 13.36 117.766 13.4L117.466 16.12C117.439 16.28 117.406 16.3867 117.366 16.44C117.339 16.48 117.266 16.5267 117.146 16.58C115.959 17.02 114.739 17.24 113.486 17.24C111.859 17.24 110.499 16.92 109.406 16.28C108.313 15.6267 107.506 14.8067 106.986 13.82C106.479 12.82 106.226 11.78 106.226 10.7C106.226 9.43333 106.566 8.31333 107.246 7.34C107.939 6.36667 108.853 5.61333 109.986 5.08C111.133 4.54667 112.359 4.28 113.666 4.28ZM132.365 20.74C132.365 19.5267 132.072 18.6 131.485 17.96C130.898 17.32 130.052 17 128.945 17H119.225C119.198 17 119.185 16.96 119.185 16.88C119.185 16.8 119.198 16.76 119.225 16.76C119.692 16.76 120.032 16.7267 120.245 16.66C120.458 16.5933 120.605 16.4667 120.685 16.28C120.765 16.08 120.805 15.78 120.805 15.38V6.12C120.805 5.72 120.765 5.42667 120.685 5.24C120.605 5.05333 120.458 4.92667 120.245 4.86C120.032 4.78 119.692 4.74 119.225 4.74C119.198 4.74 119.185 4.7 119.185 4.62C119.185 4.54 119.198 4.5 119.225 4.5L120.305 4.52C120.918 4.54667 121.412 4.56 121.785 4.56C122.238 4.56 122.812 4.54667 123.505 4.52L124.685 4.5C124.712 4.5 124.725 4.54 124.725 4.62C124.725 4.7 124.712 4.74 124.685 4.74C124.192 4.74 123.832 4.78 123.605 4.86C123.378 4.92667 123.225 5.05333 123.145 5.24C123.065 5.42667 123.025 5.72 123.025 6.12V15.34C123.025 15.7933 123.038 16.0933 123.065 16.24C123.105 16.3867 123.185 16.48 123.305 16.52C123.425 16.56 123.665 16.58 124.025 16.58H127.765C128.165 16.58 128.432 16.56 128.565 16.52C128.698 16.48 128.778 16.3867 128.805 16.24C128.845 16.0933 128.865 15.7933 128.865 15.34V6.12C128.865 5.72 128.825 5.42667 128.745 5.24C128.665 5.05333 128.512 4.92667 128.285 4.86C128.058 4.78 127.698 4.74 127.205 4.74C127.178 4.74 127.165 4.7 127.165 4.62C127.165 4.54 127.178 4.5 127.205 4.5L128.385 4.52C129.078 4.54667 129.652 4.56 130.105 4.56C130.478 4.56 130.972 4.54667 131.585 4.52L132.665 4.5C132.692 4.5 132.705 4.54 132.705 4.62C132.705 4.7 132.692 4.74 132.665 4.74C132.198 4.74 131.858 4.78 131.645 4.86C131.432 4.92667 131.285 5.05333 131.205 5.24C131.125 5.42667 131.085 5.72 131.085 6.12V15.38C131.085 15.8733 131.105 16.2067 131.145 16.38C131.198 16.54 131.298 16.6467 131.445 16.7C131.605 16.74 131.918 16.76 132.385 16.76C132.492 16.76 132.558 16.7733 132.585 16.8C132.625 16.8267 132.645 16.8933 132.645 17C132.645 17.3067 132.638 17.56 132.625 17.76C132.598 18.5067 132.585 19.5 132.585 20.74C132.585 20.8067 132.545 20.84 132.465 20.84C132.398 20.84 132.365 20.8067 132.365 20.74ZM134.152 17C134.112 17 134.092 16.96 134.092 16.88C134.092 16.8 134.112 16.76 134.152 16.76C134.579 16.76 134.885 16.7267 135.072 16.66C135.272 16.5933 135.405 16.4667 135.472 16.28C135.539 16.08 135.572 15.78 135.572 15.38V6.12C135.572 5.72 135.539 5.42667 135.472 5.24C135.405 5.05333 135.272 4.92667 135.072 4.86C134.872 4.78 134.565 4.74 134.152 4.74C134.112 4.74 134.092 4.7 134.092 4.62C134.092 4.54 134.112 4.5 134.152 4.5H142.632C142.765 4.5 142.832 4.56 142.832 4.68L142.872 7.34C142.872 7.36667 142.832 7.38667 142.752 7.4C142.685 7.41333 142.645 7.4 142.632 7.36C142.419 6.58667 142.059 6.01333 141.552 5.64C141.045 5.26667 140.379 5.08 139.552 5.08H138.952C138.552 5.08 138.259 5.16667 138.072 5.34C137.885 5.51333 137.792 5.78 137.792 6.14V15.3C137.792 15.6867 137.865 15.9733 138.012 16.16C138.159 16.3467 138.392 16.44 138.712 16.44H139.372C140.412 16.44 141.245 16.2267 141.872 15.8C142.499 15.3733 142.959 14.7133 143.252 13.82C143.252 13.7933 143.279 13.78 143.332 13.78C143.372 13.78 143.405 13.7933 143.432 13.82C143.472 13.8333 143.492 13.8467 143.492 13.86C143.359 14.9 143.292 15.8467 143.292 16.7C143.292 16.8067 143.272 16.8867 143.232 16.94C143.192 16.98 143.112 17 142.992 17H134.152ZM141.872 12.54C141.872 11.9933 141.659 11.5667 141.232 11.26C140.819 10.94 140.219 10.78 139.432 10.78H136.732V10.22H139.452C140.225 10.22 140.819 10.0867 141.232 9.82C141.645 9.55333 141.852 9.18 141.852 8.7C141.852 8.66 141.885 8.64 141.952 8.64C142.032 8.64 142.072 8.66 142.072 8.7L142.052 10.5L142.072 11.46C142.099 11.9133 142.112 12.2733 142.112 12.54C142.112 12.5667 142.072 12.58 141.992 12.58C141.912 12.58 141.872 12.5667 141.872 12.54ZM155.227 6.16C155.227 5.76 155.187 5.46667 155.107 5.28C155.027 5.08 154.874 4.94 154.647 4.86C154.421 4.78 154.061 4.74 153.567 4.74C153.527 4.74 153.507 4.7 153.507 4.62C153.507 4.54 153.527 4.5 153.567 4.5L154.547 4.52C155.214 4.54667 155.814 4.56 156.347 4.56C156.707 4.56 157.221 4.54667 157.887 4.52L159.007 4.5C159.047 4.5 159.067 4.54 159.067 4.62C159.067 4.7 159.047 4.74 159.007 4.74C158.554 4.74 158.214 4.78 157.987 4.86C157.774 4.92667 157.627 5.05333 157.547 5.24C157.481 5.42667 157.447 5.72 157.447 6.12V15.38C157.447 15.78 157.481 16.08 157.547 16.28C157.627 16.4667 157.774 16.5933 157.987 16.66C158.201 16.7267 158.541 16.76 159.007 16.76C159.047 16.76 159.067 16.8 159.067 16.88C159.067 16.96 159.047 17 159.007 17C158.541 17 158.167 16.9933 157.887 16.98L156.347 16.96L154.547 16.98C154.307 16.9933 153.981 17 153.567 17C153.527 17 153.507 16.96 153.507 16.88C153.507 16.8 153.527 16.76 153.567 16.76C154.061 16.76 154.421 16.7267 154.647 16.66C154.874 16.5933 155.027 16.4667 155.107 16.28C155.187 16.0933 155.227 15.7933 155.227 15.38V6.16ZM147.587 10.22H156.247V10.78H147.587V10.22ZM146.547 6.12C146.547 5.72 146.507 5.42667 146.427 5.24C146.347 5.05333 146.201 4.92667 145.987 4.86C145.787 4.78 145.461 4.74 145.007 4.74C144.967 4.74 144.947 4.7 144.947 4.62C144.947 4.54 144.967 4.5 145.007 4.5L146.087 4.52C146.701 4.54667 147.194 4.56 147.567 4.56C148.074 4.56 148.661 4.54667 149.327 4.52L150.427 4.5C150.454 4.5 150.467 4.54 150.467 4.62C150.467 4.7 150.454 4.74 150.427 4.74C149.947 4.74 149.594 4.78 149.367 4.86C149.141 4.94 148.981 5.08 148.887 5.28C148.807 5.46667 148.767 5.76 148.767 6.16V15.38C148.767 15.78 148.807 16.08 148.887 16.28C148.967 16.4667 149.121 16.5933 149.347 16.66C149.574 16.7267 149.934 16.76 150.427 16.76C150.454 16.76 150.467 16.8 150.467 16.88C150.467 16.96 150.454 17 150.427 17C149.961 17 149.587 16.9933 149.307 16.98L147.567 16.96L146.067 16.98C145.801 16.9933 145.434 17 144.967 17C144.941 17 144.927 16.96 144.927 16.88C144.927 16.8 144.941 16.76 144.967 16.76C145.434 16.76 145.774 16.7267 145.987 16.66C146.201 16.5933 146.347 16.4667 146.427 16.28C146.507 16.08 146.547 15.78 146.547 15.38V6.12ZM163.361 11.86H169.121L169.261 12.42H163.061L163.361 11.86ZM173.981 16.76C174.047 16.76 174.081 16.8 174.081 16.88C174.081 16.96 174.047 17 173.981 17C173.714 17 173.301 16.9867 172.741 16.96C172.154 16.9333 171.734 16.92 171.481 16.92C171.147 16.92 170.741 16.9333 170.261 16.96C169.807 16.9867 169.447 17 169.181 17C169.127 17 169.101 16.96 169.101 16.88C169.101 16.8 169.127 16.76 169.181 16.76C169.527 16.76 169.774 16.7267 169.921 16.66C170.081 16.58 170.161 16.4467 170.161 16.26C170.161 16.0333 170.027 15.6533 169.761 15.12L165.701 7.1L166.681 5.38L162.701 14.16C162.527 14.5467 162.441 14.9067 162.441 15.24C162.441 15.72 162.607 16.0933 162.941 16.36C163.287 16.6267 163.747 16.76 164.321 16.76C164.387 16.76 164.421 16.8 164.421 16.88C164.421 16.96 164.387 17 164.321 17C164.081 17 163.734 16.9867 163.281 16.96C162.774 16.9333 162.334 16.92 161.961 16.92C161.601 16.92 161.167 16.9333 160.661 16.96C160.207 16.9867 159.841 17 159.561 17C159.507 17 159.481 16.96 159.481 16.88C159.481 16.8 159.507 16.76 159.561 16.76C159.934 16.76 160.247 16.6867 160.501 16.54C160.754 16.38 161.007 16.1067 161.261 15.72C161.514 15.32 161.814 14.7333 162.161 13.96L166.501 4.42C166.527 4.38 166.587 4.36 166.681 4.36C166.787 4.36 166.847 4.38 166.861 4.42L171.861 14.26C172.327 15.2067 172.714 15.86 173.021 16.22C173.327 16.58 173.647 16.76 173.981 16.76ZM178.277 15.3C178.277 15.7267 178.324 16.04 178.417 16.24C178.51 16.4267 178.684 16.56 178.937 16.64C179.204 16.72 179.624 16.76 180.197 16.76C180.237 16.76 180.257 16.8 180.257 16.88C180.257 16.96 180.237 17 180.197 17C179.65 17 179.224 16.9933 178.917 16.98L177.177 16.96L175.717 16.98C175.45 16.9933 175.09 17 174.637 17C174.597 17 174.577 16.96 174.577 16.88C174.577 16.8 174.597 16.76 174.637 16.76C175.064 16.76 175.37 16.7267 175.557 16.66C175.757 16.5933 175.89 16.4667 175.957 16.28C176.024 16.08 176.057 15.78 176.057 15.38V6.12C176.057 5.72 176.024 5.42667 175.957 5.24C175.89 5.05333 175.757 4.92667 175.557 4.86C175.357 4.78 175.05 4.74 174.637 4.74C174.597 4.74 174.577 4.7 174.577 4.62C174.577 4.54 174.597 4.5 174.637 4.5L175.697 4.52C176.31 4.54667 176.797 4.56 177.157 4.56C177.477 4.56 177.857 4.54 178.297 4.5C178.47 4.48667 178.69 4.47333 178.957 4.46C179.224 4.44667 179.53 4.44 179.877 4.44C181.237 4.44 182.31 4.72667 183.097 5.3C183.884 5.86 184.277 6.73333 184.277 7.92C184.277 8.74667 184.064 9.44667 183.637 10.02C183.21 10.5933 182.657 11.0267 181.977 11.32C181.31 11.6133 180.624 11.76 179.917 11.76C179.557 11.76 179.244 11.7267 178.977 11.66C178.95 11.66 178.937 11.6267 178.937 11.56C178.937 11.52 178.944 11.48 178.957 11.44C178.984 11.4 179.01 11.3867 179.037 11.4C179.237 11.4533 179.464 11.48 179.717 11.48C180.33 11.48 180.837 11.1933 181.237 10.62C181.65 10.0467 181.857 9.23333 181.857 8.18C181.857 7.12667 181.63 6.31333 181.177 5.74C180.737 5.16667 180.09 4.88 179.237 4.88C178.864 4.88 178.61 4.96667 178.477 5.14C178.344 5.31333 178.277 5.65333 178.277 6.16V15.3ZM197.432 4.36C197.472 4.32 197.572 4.3 197.732 4.3C197.825 4.3 197.912 4.31333 197.992 4.34C198.072 4.36667 198.112 4.4 198.112 4.44V15.38C198.112 15.78 198.152 16.08 198.232 16.28C198.312 16.4667 198.458 16.5933 198.672 16.66C198.885 16.7267 199.218 16.76 199.672 16.76C199.712 16.76 199.732 16.8 199.732 16.88C199.732 16.96 199.712 17 199.672 17C199.205 17 198.832 16.9933 198.552 16.98L197.012 16.96L195.212 16.98C194.972 16.9933 194.645 17 194.232 17C194.192 17 194.172 16.96 194.172 16.88C194.172 16.8 194.192 16.76 194.232 16.76C194.725 16.76 195.085 16.7267 195.312 16.66C195.538 16.5933 195.692 16.4667 195.772 16.28C195.852 16.0933 195.892 15.7933 195.892 15.38V6.56L196.552 6.38L187.892 17.22C187.852 17.26 187.752 17.28 187.592 17.28C187.338 17.28 187.212 17.2333 187.212 17.14V6.12C187.212 5.72 187.172 5.42667 187.092 5.24C187.012 5.05333 186.865 4.92667 186.652 4.86C186.438 4.78 186.105 4.74 185.652 4.74C185.612 4.74 185.592 4.7 185.592 4.62C185.592 4.54 185.612 4.5 185.652 4.5L186.772 4.52C187.438 4.54667 187.952 4.56 188.312 4.56C188.845 4.56 189.445 4.54667 190.112 4.52L191.092 4.5C191.132 4.5 191.152 4.54 191.152 4.62C191.152 4.7 191.132 4.74 191.092 4.74C190.598 4.74 190.238 4.78 190.012 4.86C189.785 4.92667 189.632 5.05333 189.552 5.24C189.472 5.42667 189.432 5.72 189.432 6.12V15.02L188.772 15.2L197.432 4.36ZM212.725 4.36C212.765 4.32 212.865 4.3 213.025 4.3C213.118 4.3 213.205 4.31333 213.285 4.34C213.365 4.36667 213.405 4.4 213.405 4.44V15.38C213.405 15.78 213.445 16.08 213.525 16.28C213.605 16.4667 213.751 16.5933 213.965 16.66C214.178 16.7267 214.511 16.76 214.965 16.76C215.005 16.76 215.025 16.8 215.025 16.88C215.025 16.96 215.005 17 214.965 17C214.498 17 214.125 16.9933 213.845 16.98L212.305 16.96L210.505 16.98C210.265 16.9933 209.938 17 209.525 17C209.485 17 209.465 16.96 209.465 16.88C209.465 16.8 209.485 16.76 209.525 16.76C210.018 16.76 210.378 16.7267 210.605 16.66C210.831 16.5933 210.985 16.4667 211.065 16.28C211.145 16.0933 211.185 15.7933 211.185 15.38V6.56L211.845 6.38L203.185 17.22C203.145 17.26 203.045 17.28 202.885 17.28C202.631 17.28 202.505 17.2333 202.505 17.14V6.12C202.505 5.72 202.465 5.42667 202.385 5.24C202.305 5.05333 202.158 4.92667 201.945 4.86C201.731 4.78 201.398 4.74 200.945 4.74C200.905 4.74 200.885 4.7 200.885 4.62C200.885 4.54 200.905 4.5 200.945 4.5L202.065 4.52C202.731 4.54667 203.245 4.56 203.605 4.56C204.138 4.56 204.738 4.54667 205.405 4.52L206.385 4.5C206.425 4.5 206.445 4.54 206.445 4.62C206.445 4.7 206.425 4.74 206.385 4.74C205.891 4.74 205.531 4.78 205.305 4.86C205.078 4.92667 204.925 5.05333 204.845 5.24C204.765 5.42667 204.725 5.72 204.725 6.12V15.02L204.065 15.2L212.725 4.36ZM208.305 3.3C208.638 3.3 208.878 3.2 209.025 3C209.185 2.78667 209.331 2.48 209.465 2.08C209.585 1.70667 209.705 1.43333 209.825 1.26C209.958 1.07333 210.165 0.979999 210.445 0.979999C210.725 0.979999 210.938 1.05333 211.085 1.2C211.231 1.34667 211.305 1.54 211.305 1.78C211.305 2.11333 211.165 2.42667 210.885 2.72C210.605 3 210.238 3.22667 209.785 3.4C209.331 3.56 208.845 3.64 208.325 3.64C207.818 3.64 207.338 3.55333 206.885 3.38C206.431 3.20667 206.065 2.98 205.785 2.7C205.505 2.40667 205.365 2.1 205.365 1.78C205.365 1.54 205.438 1.34667 205.585 1.2C205.745 1.05333 205.965 0.979999 206.245 0.979999C206.551 0.979999 206.765 1.07333 206.885 1.26C207.005 1.43333 207.118 1.71333 207.225 2.1C207.345 2.51333 207.471 2.82 207.605 3.02C207.751 3.20667 207.985 3.3 208.305 3.3ZM60.32 41.24C59.08 41.24 57.9733 40.9533 57 40.38C56.04 39.7933 55.2933 39.0067 54.76 38.02C54.24 37.02 53.98 35.9333 53.98 34.76C53.98 33.3867 54.3267 32.2133 55.02 31.24C55.7133 30.2533 56.6 29.5133 57.68 29.02C58.7733 28.5267 59.8867 28.28 61.02 28.28C62.2867 28.28 63.4 28.58 64.36 29.18C65.32 29.7667 66.0533 30.5467 66.56 31.52C67.08 32.4933 67.34 33.5267 67.34 34.62C67.34 35.8333 67.02 36.9467 66.38 37.96C65.74 38.9733 64.88 39.7733 63.8 40.36C62.7333 40.9467 61.5733 41.24 60.32 41.24ZM60.98 40.74C61.7267 40.74 62.3933 40.5267 62.98 40.1C63.58 39.66 64.0467 39.0267 64.38 38.2C64.7133 37.36 64.88 36.36 64.88 35.2C64.88 33.9733 64.6933 32.88 64.32 31.92C63.9467 30.9467 63.4067 30.1867 62.7 29.64C61.9933 29.0933 61.1667 28.82 60.22 28.82C59.0067 28.82 58.0733 29.28 57.42 30.2C56.7667 31.1067 56.44 32.38 56.44 34.02C56.44 35.3133 56.6333 36.4733 57.02 37.5C57.42 38.5133 57.96 39.3067 58.64 39.88C59.3333 40.4533 60.1133 40.74 60.98 40.74ZM72.1666 28.96C70.5799 28.96 69.4399 29.9933 68.7466 32.06C68.7332 32.1 68.6932 32.12 68.6266 32.12C68.5599 32.1067 68.5266 32.08 68.5266 32.04C68.5799 31.5067 68.6399 30.82 68.7066 29.98C68.7732 29.1267 68.8066 28.4867 68.8066 28.06C68.8066 27.9933 68.8399 27.96 68.9066 27.96C68.9866 27.96 69.0266 27.9933 69.0266 28.06C69.0266 28.3533 69.4066 28.5 70.1666 28.5C71.3132 28.54 72.6532 28.56 74.1866 28.56C74.9732 28.56 75.8066 28.5467 76.6866 28.52L78.0466 28.5C78.5532 28.5 78.9199 28.4667 79.1466 28.4C79.3866 28.3333 79.5399 28.2 79.6066 28C79.6199 27.9467 79.6599 27.92 79.7266 27.92C79.8066 27.92 79.8466 27.9467 79.8466 28C79.8066 28.4 79.7599 29.04 79.7066 29.92C79.6666 30.8 79.6466 31.5067 79.6466 32.04C79.6466 32.08 79.6132 32.1 79.5466 32.1C79.4799 32.1 79.4399 32.08 79.4266 32.04C79.2266 31.0133 78.8532 30.2467 78.3066 29.74C77.7599 29.22 77.0866 28.96 76.2866 28.96C75.8999 28.96 75.6399 29.0467 75.5066 29.22C75.3866 29.38 75.3266 29.6933 75.3266 30.16V39.38C75.3266 39.7933 75.3666 40.0933 75.4466 40.28C75.5266 40.4667 75.6799 40.5933 75.9066 40.66C76.1332 40.7267 76.4932 40.76 76.9866 40.76C77.0266 40.76 77.0466 40.8 77.0466 40.88C77.0466 40.96 77.0266 41 76.9866 41C76.5066 41 76.1266 40.9933 75.8466 40.98L74.1866 40.96L72.5666 40.98C72.2866 40.9933 71.8999 41 71.4066 41C71.3666 41 71.3466 40.96 71.3466 40.88C71.3466 40.8 71.3666 40.76 71.4066 40.76C71.8866 40.76 72.2399 40.7267 72.4666 40.66C72.7066 40.5933 72.8666 40.4667 72.9466 40.28C73.0399 40.08 73.0866 39.78 73.0866 39.38V30.12C73.0866 29.6667 73.0266 29.36 72.9066 29.2C72.7866 29.04 72.5399 28.96 72.1666 28.96ZM91.4381 30.16C91.4381 29.76 91.3981 29.4667 91.3181 29.28C91.2381 29.08 91.0848 28.94 90.8581 28.86C90.6315 28.78 90.2715 28.74 89.7781 28.74C89.7381 28.74 89.7181 28.7 89.7181 28.62C89.7181 28.54 89.7381 28.5 89.7781 28.5L90.7581 28.52C91.4248 28.5467 92.0248 28.56 92.5581 28.56C92.9181 28.56 93.4315 28.5467 94.0981 28.52L95.2181 28.5C95.2581 28.5 95.2781 28.54 95.2781 28.62C95.2781 28.7 95.2581 28.74 95.2181 28.74C94.7648 28.74 94.4248 28.78 94.1981 28.86C93.9848 28.9267 93.8381 29.0533 93.7581 29.24C93.6915 29.4267 93.6581 29.72 93.6581 30.12V39.38C93.6581 39.78 93.6915 40.08 93.7581 40.28C93.8381 40.4667 93.9848 40.5933 94.1981 40.66C94.4115 40.7267 94.7515 40.76 95.2181 40.76C95.2581 40.76 95.2781 40.8 95.2781 40.88C95.2781 40.96 95.2581 41 95.2181 41C94.7515 41 94.3781 40.9933 94.0981 40.98L92.5581 40.96L90.7581 40.98C90.5181 40.9933 90.1915 41 89.7781 41C89.7381 41 89.7181 40.96 89.7181 40.88C89.7181 40.8 89.7381 40.76 89.7781 40.76C90.2715 40.76 90.6315 40.7267 90.8581 40.66C91.0848 40.5933 91.2381 40.4667 91.3181 40.28C91.3981 40.0933 91.4381 39.7933 91.4381 39.38V30.16ZM83.7981 34.22H92.4581V34.78H83.7981V34.22ZM82.7581 30.12C82.7581 29.72 82.7181 29.4267 82.6381 29.24C82.5581 29.0533 82.4115 28.9267 82.1981 28.86C81.9981 28.78 81.6715 28.74 81.2181 28.74C81.1781 28.74 81.1581 28.7 81.1581 28.62C81.1581 28.54 81.1781 28.5 81.2181 28.5L82.2981 28.52C82.9115 28.5467 83.4048 28.56 83.7781 28.56C84.2848 28.56 84.8715 28.5467 85.5381 28.52L86.6381 28.5C86.6648 28.5 86.6781 28.54 86.6781 28.62C86.6781 28.7 86.6648 28.74 86.6381 28.74C86.1581 28.74 85.8048 28.78 85.5781 28.86C85.3515 28.94 85.1915 29.08 85.0981 29.28C85.0181 29.4667 84.9781 29.76 84.9781 30.16V39.38C84.9781 39.78 85.0181 40.08 85.0981 40.28C85.1781 40.4667 85.3315 40.5933 85.5581 40.66C85.7848 40.7267 86.1448 40.76 86.6381 40.76C86.6648 40.76 86.6781 40.8 86.6781 40.88C86.6781 40.96 86.6648 41 86.6381 41C86.1715 41 85.7981 40.9933 85.5181 40.98L83.7781 40.96L82.2781 40.98C82.0115 40.9933 81.6448 41 81.1781 41C81.1515 41 81.1381 40.96 81.1381 40.88C81.1381 40.8 81.1515 40.76 81.1781 40.76C81.6448 40.76 81.9848 40.7267 82.1981 40.66C82.4115 40.5933 82.5581 40.4667 82.6381 40.28C82.7181 40.08 82.7581 39.78 82.7581 39.38V30.12ZM103.172 41.24C101.932 41.24 100.825 40.9533 99.8516 40.38C98.8916 39.7933 98.1449 39.0067 97.6116 38.02C97.0916 37.02 96.8316 35.9333 96.8316 34.76C96.8316 33.3867 97.1782 32.2133 97.8716 31.24C98.5649 30.2533 99.4516 29.5133 100.532 29.02C101.625 28.5267 102.738 28.28 103.872 28.28C105.138 28.28 106.252 28.58 107.212 29.18C108.172 29.7667 108.905 30.5467 109.412 31.52C109.932 32.4933 110.192 33.5267 110.192 34.62C110.192 35.8333 109.872 36.9467 109.232 37.96C108.592 38.9733 107.732 39.7733 106.652 40.36C105.585 40.9467 104.425 41.24 103.172 41.24ZM103.832 40.74C104.578 40.74 105.245 40.5267 105.832 40.1C106.432 39.66 106.898 39.0267 107.232 38.2C107.565 37.36 107.732 36.36 107.732 35.2C107.732 33.9733 107.545 32.88 107.172 31.92C106.798 30.9467 106.258 30.1867 105.552 29.64C104.845 29.0933 104.018 28.82 103.072 28.82C101.858 28.82 100.925 29.28 100.272 30.2C99.6182 31.1067 99.2916 32.38 99.2916 34.02C99.2916 35.3133 99.4849 36.4733 99.8716 37.5C100.272 38.5133 100.812 39.3067 101.492 39.88C102.185 40.4533 102.965 40.74 103.832 40.74ZM111.764 41C111.737 41 111.724 40.96 111.724 40.88C111.724 40.8 111.737 40.76 111.764 40.76C112.231 40.76 112.571 40.7267 112.784 40.66C112.997 40.5933 113.144 40.4667 113.224 40.28C113.304 40.08 113.344 39.78 113.344 39.38V30.12C113.344 29.72 113.304 29.4267 113.224 29.24C113.144 29.0533 112.997 28.9267 112.784 28.86C112.571 28.78 112.231 28.74 111.764 28.74C111.737 28.74 111.724 28.7 111.724 28.62C111.724 28.54 111.737 28.5 111.764 28.5L112.844 28.52C113.457 28.5467 113.951 28.56 114.324 28.56C114.764 28.56 115.317 28.5467 115.984 28.52L117.104 28.5C117.144 28.5 117.164 28.54 117.164 28.62C117.164 28.7 117.144 28.74 117.104 28.74C116.651 28.74 116.317 28.78 116.104 28.86C115.891 28.9267 115.744 29.0533 115.664 29.24C115.597 29.4267 115.564 29.72 115.564 30.12V39.34C115.564 39.7933 115.577 40.0933 115.604 40.24C115.644 40.3867 115.724 40.48 115.844 40.52C115.964 40.56 116.204 40.58 116.564 40.58H119.604C119.977 40.58 120.231 40.56 120.364 40.52C120.511 40.4667 120.604 40.36 120.644 40.2C120.684 40.04 120.704 39.7533 120.704 39.34V30.12C120.704 29.72 120.664 29.4267 120.584 29.24C120.504 29.0533 120.357 28.9267 120.144 28.86C119.931 28.78 119.597 28.74 119.144 28.74C119.104 28.74 119.084 28.7 119.084 28.62C119.084 28.54 119.104 28.5 119.144 28.5C119.824 28.54 120.717 28.56 121.824 28.56C122.197 28.56 122.704 28.5467 123.344 28.52L124.504 28.5C124.531 28.5 124.544 28.54 124.544 28.62C124.544 28.7 124.531 28.74 124.504 28.74C124.037 28.74 123.697 28.78 123.484 28.86C123.271 28.9267 123.124 29.0533 123.044 29.24C122.964 29.4267 122.924 29.72 122.924 30.12V39.34C122.924 39.7933 122.937 40.0933 122.964 40.24C123.004 40.3867 123.084 40.48 123.204 40.52C123.324 40.56 123.571 40.58 123.944 40.58H126.984C127.371 40.58 127.631 40.56 127.764 40.52C127.897 40.48 127.984 40.3867 128.024 40.24C128.064 40.08 128.084 39.78 128.084 39.34V30.12C128.084 29.72 128.044 29.4267 127.964 29.24C127.897 29.0533 127.751 28.9267 127.524 28.86C127.311 28.78 126.977 28.74 126.524 28.74C126.497 28.74 126.484 28.7 126.484 28.62C126.484 28.54 126.497 28.5 126.524 28.5L127.664 28.52C128.331 28.5467 128.884 28.56 129.324 28.56C129.711 28.56 130.197 28.5467 130.784 28.52L131.864 28.5C131.904 28.5 131.924 28.54 131.924 28.62C131.924 28.7 131.904 28.74 131.864 28.74C131.411 28.74 131.071 28.78 130.844 28.86C130.631 28.9267 130.484 29.0533 130.404 29.24C130.337 29.4267 130.304 29.72 130.304 30.12V39.38C130.304 39.7667 130.344 40.06 130.424 40.26C130.517 40.4467 130.671 40.58 130.884 40.66C131.097 40.7267 131.424 40.76 131.864 40.76C131.904 40.76 131.924 40.8 131.924 40.88C131.924 40.96 131.904 41 131.864 41H111.764ZM133.332 41C133.292 41 133.272 40.96 133.272 40.88C133.272 40.8 133.292 40.76 133.332 40.76C133.758 40.76 134.065 40.7267 134.252 40.66C134.452 40.5933 134.585 40.4667 134.652 40.28C134.718 40.08 134.752 39.78 134.752 39.38V30.12C134.752 29.72 134.718 29.4267 134.652 29.24C134.585 29.0533 134.452 28.9267 134.252 28.86C134.052 28.78 133.745 28.74 133.332 28.74C133.292 28.74 133.272 28.7 133.272 28.62C133.272 28.54 133.292 28.5 133.332 28.5H141.812C141.945 28.5 142.012 28.56 142.012 28.68L142.052 31.34C142.052 31.3667 142.012 31.3867 141.932 31.4C141.865 31.4133 141.825 31.4 141.812 31.36C141.598 30.5867 141.238 30.0133 140.732 29.64C140.225 29.2667 139.558 29.08 138.732 29.08H138.132C137.732 29.08 137.438 29.1667 137.252 29.34C137.065 29.5133 136.972 29.78 136.972 30.14V39.3C136.972 39.6867 137.045 39.9733 137.192 40.16C137.338 40.3467 137.572 40.44 137.892 40.44H138.552C139.592 40.44 140.425 40.2267 141.052 39.8C141.678 39.3733 142.138 38.7133 142.432 37.82C142.432 37.7933 142.458 37.78 142.512 37.78C142.552 37.78 142.585 37.7933 142.612 37.82C142.652 37.8333 142.672 37.8467 142.672 37.86C142.538 38.9 142.472 39.8467 142.472 40.7C142.472 40.8067 142.452 40.8867 142.412 40.94C142.372 40.98 142.292 41 142.172 41H133.332ZM141.052 36.54C141.052 35.9933 140.838 35.5667 140.412 35.26C139.998 34.94 139.398 34.78 138.612 34.78H135.912V34.22H138.632C139.405 34.22 139.998 34.0867 140.412 33.82C140.825 33.5533 141.032 33.18 141.032 32.7C141.032 32.66 141.065 32.64 141.132 32.64C141.212 32.64 141.252 32.66 141.252 32.7L141.232 34.5L141.252 35.46C141.278 35.9133 141.292 36.2733 141.292 36.54C141.292 36.5667 141.252 36.58 141.172 36.58C141.092 36.58 141.052 36.5667 141.052 36.54ZM154.407 30.16C154.407 29.76 154.367 29.4667 154.287 29.28C154.207 29.08 154.054 28.94 153.827 28.86C153.6 28.78 153.24 28.74 152.747 28.74C152.707 28.74 152.687 28.7 152.687 28.62C152.687 28.54 152.707 28.5 152.747 28.5L153.727 28.52C154.394 28.5467 154.994 28.56 155.527 28.56C155.887 28.56 156.4 28.5467 157.067 28.52L158.187 28.5C158.227 28.5 158.247 28.54 158.247 28.62C158.247 28.7 158.227 28.74 158.187 28.74C157.734 28.74 157.394 28.78 157.167 28.86C156.954 28.9267 156.807 29.0533 156.727 29.24C156.66 29.4267 156.627 29.72 156.627 30.12V39.38C156.627 39.78 156.66 40.08 156.727 40.28C156.807 40.4667 156.954 40.5933 157.167 40.66C157.38 40.7267 157.72 40.76 158.187 40.76C158.227 40.76 158.247 40.8 158.247 40.88C158.247 40.96 158.227 41 158.187 41C157.72 41 157.347 40.9933 157.067 40.98L155.527 40.96L153.727 40.98C153.487 40.9933 153.16 41 152.747 41C152.707 41 152.687 40.96 152.687 40.88C152.687 40.8 152.707 40.76 152.747 40.76C153.24 40.76 153.6 40.7267 153.827 40.66C154.054 40.5933 154.207 40.4667 154.287 40.28C154.367 40.0933 154.407 39.7933 154.407 39.38V30.16ZM146.767 34.22H155.427V34.78H146.767V34.22ZM145.727 30.12C145.727 29.72 145.687 29.4267 145.607 29.24C145.527 29.0533 145.38 28.9267 145.167 28.86C144.967 28.78 144.64 28.74 144.187 28.74C144.147 28.74 144.127 28.7 144.127 28.62C144.127 28.54 144.147 28.5 144.187 28.5L145.267 28.52C145.88 28.5467 146.374 28.56 146.747 28.56C147.254 28.56 147.84 28.5467 148.507 28.52L149.607 28.5C149.634 28.5 149.647 28.54 149.647 28.62C149.647 28.7 149.634 28.74 149.607 28.74C149.127 28.74 148.774 28.78 148.547 28.86C148.32 28.94 148.16 29.08 148.067 29.28C147.987 29.4667 147.947 29.76 147.947 30.16V39.38C147.947 39.78 147.987 40.08 148.067 40.28C148.147 40.4667 148.3 40.5933 148.527 40.66C148.754 40.7267 149.114 40.76 149.607 40.76C149.634 40.76 149.647 40.8 149.647 40.88C149.647 40.96 149.634 41 149.607 41C149.14 41 148.767 40.9933 148.487 40.98L146.747 40.96L145.247 40.98C144.98 40.9933 144.614 41 144.147 41C144.12 41 144.107 40.96 144.107 40.88C144.107 40.8 144.12 40.76 144.147 40.76C144.614 40.76 144.954 40.7267 145.167 40.66C145.38 40.5933 145.527 40.4667 145.607 40.28C145.687 40.08 145.727 39.78 145.727 39.38V30.12ZM171.24 28.36C171.28 28.32 171.38 28.3 171.54 28.3C171.634 28.3 171.72 28.3133 171.8 28.34C171.88 28.3667 171.92 28.4 171.92 28.44V39.38C171.92 39.78 171.96 40.08 172.04 40.28C172.12 40.4667 172.267 40.5933 172.48 40.66C172.694 40.7267 173.027 40.76 173.48 40.76C173.52 40.76 173.54 40.8 173.54 40.88C173.54 40.96 173.52 41 173.48 41C173.014 41 172.64 40.9933 172.36 40.98L170.82 40.96L169.02 40.98C168.78 40.9933 168.454 41 168.04 41C168 41 167.98 40.96 167.98 40.88C167.98 40.8 168 40.76 168.04 40.76C168.534 40.76 168.894 40.7267 169.12 40.66C169.347 40.5933 169.5 40.4667 169.58 40.28C169.66 40.0933 169.7 39.7933 169.7 39.38V30.56L170.36 30.38L161.7 41.22C161.66 41.26 161.56 41.28 161.4 41.28C161.147 41.28 161.02 41.2333 161.02 41.14V30.12C161.02 29.72 160.98 29.4267 160.9 29.24C160.82 29.0533 160.674 28.9267 160.46 28.86C160.247 28.78 159.914 28.74 159.46 28.74C159.42 28.74 159.4 28.7 159.4 28.62C159.4 28.54 159.42 28.5 159.46 28.5L160.58 28.52C161.247 28.5467 161.76 28.56 162.12 28.56C162.654 28.56 163.254 28.5467 163.92 28.52L164.9 28.5C164.94 28.5 164.96 28.54 164.96 28.62C164.96 28.7 164.94 28.74 164.9 28.74C164.407 28.74 164.047 28.78 163.82 28.86C163.594 28.9267 163.44 29.0533 163.36 29.24C163.28 29.4267 163.24 29.72 163.24 30.12V39.02L162.58 39.2L171.24 28.36ZM186.533 28.36C186.573 28.32 186.673 28.3 186.833 28.3C186.927 28.3 187.013 28.3133 187.093 28.34C187.173 28.3667 187.213 28.4 187.213 28.44V39.38C187.213 39.78 187.253 40.08 187.333 40.28C187.413 40.4667 187.56 40.5933 187.773 40.66C187.987 40.7267 188.32 40.76 188.773 40.76C188.813 40.76 188.833 40.8 188.833 40.88C188.833 40.96 188.813 41 188.773 41C188.307 41 187.933 40.9933 187.653 40.98L186.113 40.96L184.313 40.98C184.073 40.9933 183.747 41 183.333 41C183.293 41 183.273 40.96 183.273 40.88C183.273 40.8 183.293 40.76 183.333 40.76C183.827 40.76 184.187 40.7267 184.413 40.66C184.64 40.5933 184.793 40.4667 184.873 40.28C184.953 40.0933 184.993 39.7933 184.993 39.38V30.56L185.653 30.38L176.993 41.22C176.953 41.26 176.853 41.28 176.693 41.28C176.44 41.28 176.313 41.2333 176.313 41.14V30.12C176.313 29.72 176.273 29.4267 176.193 29.24C176.113 29.0533 175.967 28.9267 175.753 28.86C175.54 28.78 175.207 28.74 174.753 28.74C174.713 28.74 174.693 28.7 174.693 28.62C174.693 28.54 174.713 28.5 174.753 28.5L175.873 28.52C176.54 28.5467 177.053 28.56 177.413 28.56C177.947 28.56 178.547 28.5467 179.213 28.52L180.193 28.5C180.233 28.5 180.253 28.54 180.253 28.62C180.253 28.7 180.233 28.74 180.193 28.74C179.7 28.74 179.34 28.78 179.113 28.86C178.887 28.9267 178.733 29.0533 178.653 29.24C178.573 29.4267 178.533 29.72 178.533 30.12V39.02L177.873 39.2L186.533 28.36ZM182.113 27.3C182.447 27.3 182.687 27.2 182.833 27C182.993 26.7867 183.14 26.48 183.273 26.08C183.393 25.7067 183.513 25.4333 183.633 25.26C183.767 25.0733 183.973 24.98 184.253 24.98C184.533 24.98 184.747 25.0533 184.893 25.2C185.04 25.3467 185.113 25.54 185.113 25.78C185.113 26.1133 184.973 26.4267 184.693 26.72C184.413 27 184.047 27.2267 183.593 27.4C183.14 27.56 182.653 27.64 182.133 27.64C181.627 27.64 181.147 27.5533 180.693 27.38C180.24 27.2067 179.873 26.98 179.593 26.7C179.313 26.4067 179.173 26.1 179.173 25.78C179.173 25.54 179.247 25.3467 179.393 25.2C179.553 25.0533 179.773 24.98 180.053 24.98C180.36 24.98 180.573 25.0733 180.693 25.26C180.813 25.4333 180.927 25.7133 181.033 26.1C181.153 26.5133 181.28 26.82 181.413 27.02C181.56 27.2067 181.793 27.3 182.113 27.3Z" fill="#A35B5B"/>
</svg>
