<svg width="908" height="1414" viewBox="0 0 908 1414" fill="none" xmlns="http://www.w3.org/2000/svg">
<path d="M533.535 356.679L529.921 335.064C526.271 330.597 524.797 345.115 524.563 346.808C521.363 368.802 524.276 389.066 528.123 410.717L510.18 365.704C509.641 393.011 514.315 420.336 526.325 444.941C497.811 405.547 500.939 349.798 511.942 304.443C502.395 312.476 494.52 325.914 481.396 327.877C503.078 378.456 470.321 413.869 431.073 440.438C480.425 443.518 486.843 502.455 502.971 538.588C493.819 525.889 484.56 512.866 476.362 499.519C465.502 481.777 461.385 459.585 438.66 452.632C397.937 440.204 362.303 489.162 331.397 484.424C311.728 481.416 312.357 456.649 312.393 441.302C292.688 446.22 289.704 440.023 292.634 421.489C270.538 423.488 279.941 402.611 274.745 393.479C267.644 381.032 240.675 385.265 245.296 366.01C248.208 353.905 258.924 338.36 262.951 324.22C272.462 290.771 263.886 294.302 252.757 267.823C243.066 244.749 248.19 223.53 244.019 200.924C243.354 197.34 240.118 195.34 239.524 192.819C232.764 164.467 235.497 147.859 253.962 126.082C276.741 99.2072 327.28 51.8882 359.193 38.775C368.757 34.8483 379.994 32.975 389.182 29.1923C407.736 21.537 421.004 10.081 442.255 4.91134C486.142 -5.7341 512.176 0.714405 547.756 26.3283C632.779 87.5171 684.792 167.619 703.796 271.678C709.927 305.289 708.327 335.496 711.581 368.351C713.72 389.894 728.751 393.785 742.145 406.178C755.539 418.57 766.417 432.224 770.39 449.93C776.035 475.13 766.183 509.084 793.367 524.178C796.226 525.061 789.286 508.904 789.016 506.922C786.913 491.738 791.174 474.409 786.571 458.937L775.37 430.531C794.338 449.534 790.922 474.247 794.482 497.844C799.894 533.743 833.227 525.763 851.781 552.116L818.07 535.454C813.989 534.896 804.478 528.285 801.458 533.167C839.735 553.07 860.339 574.505 857.157 620.528C856.312 632.686 851.313 645.547 850.181 656.751C847.017 688.057 874.902 720.678 871.576 753.839L862.64 717.76L846.423 684.508C845.183 710.122 849.911 735.556 851.871 760.972C852.554 769.744 851.044 779.237 851.835 788.027C853.651 808.327 871.522 829.005 880.889 847.18C905.52 895.003 915.75 935.658 898.544 988.885C893.798 988.543 898.562 981.824 898.562 980.797V935.766C898.562 930.128 893.42 913.268 891.389 906.928C889.231 900.137 885.617 891.635 882.687 885.024C881.482 882.323 879.702 876.396 877.005 875.424C888.368 911.467 902.895 946.934 894.481 985.697L880.601 1032.12C890.616 986.273 891.047 941.008 874.776 896.552L850.037 846.604C857.498 873.37 872.277 898.84 874.974 926.976C877.581 954.211 874.327 992.74 853.633 1012.32C859.997 982.797 871.612 954.265 867.8 923.355L862.622 907.864C865.085 927.03 867.584 942.953 863.917 962.298C861.975 972.548 850.199 1005.17 842.899 1011.49C837.434 1016.23 821.558 1015.78 814.061 1015.9C813.072 1015.06 818.826 1005.55 814.061 1005.11L810.501 1016.97H802.339L799.984 1013.67L801.458 1006.92C794.985 1009.78 794.662 1002.63 791.569 1003.3L788.872 1012.3C786.607 988.615 800.001 969.107 804.514 946.033C817.081 881.764 816.398 756.559 808.416 691.011C798.689 611.251 727.258 530.789 653.958 501.626C646.641 498.708 637.256 498.997 629.668 493.521L627.08 494.367C617.443 509.282 603.042 518.72 588.047 527.402C563.901 541.416 537.382 552.206 511.996 563.77C545.545 534.157 592.65 525.205 625.264 494.421C625.443 490.369 621.866 490.188 619.061 489.864C598.133 487.415 575.588 500.6 556.962 483.632C565.735 483.974 571.758 486.712 581.287 486.406C583.876 486.334 592.039 485.938 592.884 482.749C576.918 477.129 567.623 461.188 558.759 447.571C558.436 442.221 560.809 446.202 562.068 447.877C565.915 453.029 568.504 458.937 574.024 462.917C576.738 459.765 570.158 456.181 568.019 452.722C559.515 438.979 554.912 421.759 549.266 406.664L533.553 326.04V356.661L533.535 356.679ZM481.378 25.2656C454.751 19.2674 427.944 19.8258 404.086 34.2719C403.691 37.6402 407.718 35.6768 409.552 35.2626C413.363 34.3979 422.694 29.1383 425.625 34.2358C420.213 34.0377 415.287 36.0551 410.325 37.8204C407.628 38.793 401.317 40.3241 400.472 43.2421C428.484 34.1278 457.897 32.9389 486.34 40.9906C497.253 44.0707 506.512 49.7086 517.318 52.2484L503.618 43.4763L486.771 37.8384C486.304 34.6681 490.853 36.0551 492.633 36.4514C495.33 37.0638 503.312 42.1434 504.715 37.8744L477.764 28.8321L481.342 25.2656H481.378ZM297.992 167.565C286.863 163.296 275.824 157.01 269.621 146.58L279.15 120.732L256.658 155.803C260.866 161.621 263.095 156.271 266.547 153.191C273.055 159.045 284.292 165.512 292.544 168.52C294.234 169.132 298.388 170.897 297.992 167.565ZM366.33 216.163C334.256 213.497 301.947 203.806 274.781 186.316C269.801 183.11 261.729 178.571 260.218 172.951C258.924 171.996 257.09 175.869 256.533 177.328C251.427 190.675 249.647 236.229 251.732 250.837C253.962 266.328 265.378 273.119 269.675 285.115C274.296 298.012 271.959 311.684 268.722 324.653C265.936 335.839 250.618 365.415 253.314 373.503C255.616 380.366 289.29 385.319 281.811 403.548L321.365 408.952C322.947 410.321 309.858 430.657 310.488 436.619C310.631 437.88 314.245 437.61 315.216 441.158C318.65 453.785 312.303 472.554 331.379 475.472C346.823 477.832 366.366 464.899 379.455 457.225C406.999 441.086 450.364 411.618 466.635 384.256C479.346 362.894 478.537 345.025 477.854 320.744C488.893 320.618 501.748 308.55 509.317 300.93C528.447 281.711 540.079 264.941 524.851 238.354C514.603 220.45 497.9 210.219 480.479 227.007C468.541 238.499 471.939 262.545 451.712 261.357L432.835 255.845C442.004 255.178 451.569 262.78 459.785 256.709C463.704 252.422 460.594 254.422 457.807 254.728C454.679 255.07 445.348 258.403 443.622 254.043C463.273 253.809 463.111 237.976 468.757 223.404C460.414 225.602 454.661 247.199 450.814 249.54C435.585 258.799 407.826 229.474 395.061 223.386L400.436 219.82C369.89 215.172 340.998 203.968 313.202 191.017C307.97 190.603 311.692 193.179 313.508 194.314C316.816 196.403 320.933 197.628 324.277 199.736L366.258 216.181L366.33 216.163ZM725.892 482.749L684.576 360.282C686.734 379.771 693.044 398.486 698.906 417.039L725.892 482.749ZM720.498 497.159L679.183 362.083C685.224 403.818 699.894 443.644 713.774 483.2L720.498 497.159ZM616.238 486.352C608.705 480.137 601.046 475.184 594.699 467.421C583.498 453.713 577.781 436.511 571.794 420.12L560.521 363.884C563.308 406.124 565.268 474.896 616.238 486.334V486.352ZM853.543 619.645C853.956 609.432 853.974 600.678 850.81 590.879C849.983 588.339 839.573 566.76 835.582 571.029L853.525 619.645H853.543ZM848.149 643.061C851.313 632.83 847.772 618.51 844.158 608.387C843.349 606.117 841.803 600.227 839.214 599.867L848.167 643.079L848.149 643.061Z" fill="#A76465"/>
<path d="M239.579 547.612C240.316 547.72 244.721 549.377 244.055 551.197C227.533 546.387 211.424 554.763 195.53 558.438C193.678 565.066 203.603 561.158 204.502 565.589L190.137 567.426C196.591 584.862 217.087 594.481 235.066 592.662L220.341 595.85C209.05 593.526 197.598 590.77 188.339 583.637C195.818 600.533 202.848 617.537 206.318 635.856C209.41 634.271 210.201 630.506 213.455 627.714C220.269 621.896 234.473 615.52 243.3 614.403C250.87 613.448 261.711 617.015 266.116 615.754C269.747 614.709 279.33 602.28 283.573 598.912C301.588 584.628 321.94 589.293 341.106 578.216C342.347 579.494 333.555 589.978 332.081 591.671C313.4 613.358 303.332 607.792 284.778 619.933C275.645 625.913 271.294 635.55 257.522 636C240.19 636.576 214.318 618.041 208.475 646.177C211.334 677.033 206.785 707.005 215.757 737.087C216.602 739.933 217.501 746.633 220.629 747.498C220.988 712.661 255.58 696.396 274.548 672.71C288.392 655.417 291.646 633.748 314.12 623.211C309.05 635.91 307.755 651.995 301.876 664.063C294.81 678.564 278.323 691.623 269.514 705.492C262.736 716.138 257.809 730.17 251.517 741.5C246.537 750.47 237.259 758.251 235.462 768.645C231.92 789.143 248.748 824.358 255.292 845.198C258.583 855.681 261.369 866.507 263.814 877.206C266.619 876.936 266.529 874.469 267.266 872.595C273.199 857.429 276.472 843.793 285.048 829.167C309.463 787.576 347.147 774.409 391.429 761.944C363.292 789.467 318.722 796.366 296.464 831.599C287.888 845.162 276.004 882.088 274.584 897.975C274.206 902.172 274.871 902.442 276.831 898.407C281.991 887.798 285.084 876.414 288.751 865.264C290.244 860.689 290.783 860.401 290.747 865.462C291.178 880.791 275.824 903.217 275.123 916.204C274.746 923.103 280.463 941.529 281.524 950.41C287.852 1003.22 265.9 1046.54 271.186 1097.66C271.833 1103.97 274.979 1124.21 283.537 1119.35C285.263 1081.51 312.016 1047.32 320.125 1012.03C324.637 992.379 320.053 978.779 319.513 959.164C359.624 858.347 404.77 758.738 451.012 660.425C460.325 640.611 470.141 617.231 481.018 598.624C482.924 595.382 486.286 588.249 490.332 588.14C443.694 712.319 384.274 830.896 333.321 953.202C329.006 974.15 336.737 995.333 333.465 1016.39C327.945 1051.82 294.379 1077.24 298.154 1115.68C299.107 1125.31 303.512 1134.35 305.112 1143.81C300.51 1140.77 297.669 1136.53 292.635 1133.81C274.116 1123.78 261.891 1131.04 243.139 1129.38C236.271 1128.77 224.566 1123.73 219.838 1124.03C214.318 1124.41 186.181 1145.32 184.869 1150.49C184.527 1155.59 189.274 1157.66 190.029 1162.87C191 1169.64 187.422 1175.51 188.339 1182.39C190.676 1199.88 211.172 1228.4 220.377 1244.05C226.256 1254.03 228.432 1267.9 242.851 1271.43L270.952 1254.61C262.682 1245.4 256.767 1234.45 261.603 1221.79C286.971 1179.12 312.142 1135.81 339.272 1094.26C348.693 1079.85 360.757 1053.5 381.145 1057.76C389.505 1059.51 412.788 1075.4 420.771 1081.11C454.14 1104.99 481.162 1135.25 506.495 1167.23C492.633 1135.04 473.575 1104.94 448.135 1080.71C440.907 1073.83 425.607 1066.61 425.445 1056.49C448.584 973.574 476.308 891.815 492.147 806.975C495.366 806.561 493.891 811.01 493.712 813.028C492.004 831.454 484.219 851.286 481.828 869.605C481.576 871.568 479.832 875.801 483.122 875.405L522.676 761.944C503.888 839.47 476.002 914.763 456.675 992.109C452.63 1008.3 445.043 1033.05 445.312 1049.14C445.636 1068.12 481.09 1111.14 492.867 1129.54C501.461 1143 537.814 1198.44 538.875 1209.56C539.288 1213.9 539.109 1225.32 533.733 1218.29C527.189 1209.7 521.669 1197.36 515.161 1188.27C492.615 1156.8 429.401 1089.79 395.007 1074.48C372.174 1064.32 367.787 1072.68 355.076 1090.26C331.361 1123.02 305.454 1164.85 284.616 1199.79C277.91 1211.05 266.565 1224.18 270.035 1237.53C274.17 1253.42 303.045 1290.52 314.21 1304.95C341.807 1340.63 376.399 1372.21 395.025 1414L380.642 1404.11C337.852 1362.59 309.823 1308.55 274.548 1260.89C250.977 1275.23 242.725 1290.52 221.51 1262.75C216.835 1256.62 209.41 1243.1 205.257 1235.8C198.137 1223.28 184.15 1196.97 181.507 1183.92C180.05 1176.74 183.215 1172.41 182.837 1166.56C182.244 1157.14 173.074 1153.54 180.302 1142.1C183.017 1137.79 212.323 1116.43 216.638 1115.35C223.344 1113.68 229.834 1119.12 237.691 1118.68C246.141 1118.21 254.537 1111.15 263.814 1113.19C261.333 1104.74 262.178 1093.41 260.129 1085.38C259.374 1082.44 228.432 1041.39 224.225 1036.69C214.085 1025.36 202.47 1021.54 187.386 1023.14C176.095 1024.35 165.577 1032.93 154.143 1031.27C178.181 1013.63 213.653 1016.8 235.983 1035.72L258.385 1066.37C257 1049.08 269.514 1029.16 259.895 1013.54C251.463 999.854 214.516 988.957 198.497 977.789C152.021 945.33 155.635 907.702 148.192 857.068C145.746 840.461 139.238 824.466 141.539 807.011L160.543 837.471C193.499 868.326 218.633 911.07 239.543 951.058C250.114 971.286 258.133 992.559 265.594 1014.12C268.255 1014.59 267.824 1010.73 268.273 1008.75C284.544 936.126 234.113 821.944 209.806 752.091C203.243 733.232 202.452 707.312 184.132 696.756C169.73 688.453 144.991 682.869 128.289 675.249C85.8944 655.904 52.4534 621.968 6.67893 610.638C7.75767 607.414 17.5203 608.567 20.1452 608.873C45.9451 611.845 65.3983 626.615 88.1597 636.18C112.395 646.357 176.976 664.64 190.82 682.815C193.768 686.687 193.894 694.379 199.018 693.496C199.989 657.849 196.717 622.076 182.819 589.041C181.075 587.726 168.148 613.79 157.199 612.151C153.208 611.557 148.138 607.342 151.374 603.451C154.826 609.089 159.195 602.875 160.363 608.837C176.167 594.103 183.394 576.522 177.443 554.799L172.05 567.39C167.771 565.733 173.11 556.763 165.901 556.636C148.497 556.33 134.653 582.484 136.128 598.011L142.42 594.427C145.459 596.246 139.813 601.938 137.224 601.524C124.567 599.47 142.87 567.012 141.503 565.607C124.945 570.362 100.961 576.955 92.9781 556.6L98.3538 554.799C97.2571 559.158 96.3761 559.987 100.188 562.815C117.627 575.82 146.124 557.537 163.06 550.296C149.144 531.797 137.296 522.196 112.755 522.358C113.186 518.972 121.996 520.449 124.244 520.773C130.842 521.692 136.829 524.754 143.319 525.961C139.777 517.513 128.954 502.761 133.431 493.574C137.386 485.451 150.403 496.33 157.702 493.574C158.206 496.564 153.262 495.592 151.356 495.43C146.825 495.051 136.092 490.89 134.456 496.492C132.28 503.932 149.989 526.916 152.327 534.985L155.887 527.798L157.684 534.121L160.381 531.401L170.252 544.01L172.949 526.015L183.754 549.413L179.277 524.196L182.909 531.401L186.433 529.581L191.071 540.371L203.531 529.6L200.852 540.407L209.806 533.202L202.632 543.109C202.344 544.46 204.376 544.28 205.293 543.974C210.021 542.443 229.906 528.231 231.83 523.709C235.498 515.117 228.953 507.696 230.481 498.978C246.95 523.079 228.755 542.424 204.43 547.63C204.771 552.385 211.478 547.612 212.502 547.612C220.611 547.612 231.956 546.567 239.471 547.612H239.579ZM195.512 702.52C181.417 667.108 134.24 658.948 102.039 646.699C102.489 649.473 105.384 650.104 107.451 651.166C129.781 662.514 168.436 672.529 185.696 689.858C189.975 694.163 190.928 699.26 195.494 702.538L195.512 702.52ZM229.672 763.745L236.864 727.738C233.807 729.035 232.297 736.294 231.434 739.374C230.248 743.553 228.971 748.254 228.396 752.541C228.072 754.937 226.005 763.223 229.672 763.727V763.745ZM195.512 916.852L192.797 906.099L179.367 879.044L185.696 897.002L195.512 916.852Z" fill="#A76465"/>
<path d="M659.404 1300.54C683.928 1235.13 718.753 1172.45 730.997 1102.99L752.859 949.293C752.032 973.592 748.688 997.891 747.412 1022.15C744.571 1075.98 749.839 1153.84 727.455 1202.1C711.328 1236.86 685.06 1272.31 659.404 1300.52V1300.54Z" fill="#A76465"/>
<path d="M256.64 902.461L236.216 864.4C210.739 833.094 186.108 785.091 146.159 770.897C97.4538 753.587 34.3476 779.705 0.457182 815.982C-1.16093 813.154 3.31583 805.967 5.27554 802.797C23.9557 772.608 84.419 747.354 118.939 751.335C160.29 756.109 222.192 825.583 241.43 860.978C248.046 873.154 254.896 888.645 256.658 902.425L256.64 902.461Z" fill="#A76465"/>
<path d="M438.225 1178.05L431.951 1172.67C430.369 1175.75 433.389 1180.81 434.126 1184.9C437.974 1206.12 438.369 1227.17 447.251 1247.4C443.242 1247.28 439.808 1240.16 437.938 1236.92C420.318 1206.21 415.051 1182.52 411.239 1148.39C409.495 1132.73 403.688 1115.51 395.094 1102.44C412.713 1106.51 415.087 1126.14 421.757 1139.65C427.726 1151.75 438.064 1162.76 438.225 1178.07V1178.05Z" fill="#A76465"/>
<path d="M650.395 648.482L669.291 644.898C690.452 643.925 712.35 645.636 723.785 665.918L751.041 716.93C733.314 701.403 722.868 665.846 701.977 655.327C698.866 653.76 682.613 648.482 680.042 648.482H650.377H650.395Z" fill="#A76465"/>
<path d="M749.265 1149.23L747.719 1141.38L770.84 987.139C766.453 1041.48 756.564 1095.27 749.265 1149.23Z" fill="#A76465"/>
<path d="M560.485 466.556C538.766 448.327 529.093 415.022 528.158 387.319L538.065 421.507L560.485 466.574V466.556Z" fill="#A76465"/>
<path d="M182.907 488.171L190.153 509.768C199.178 499.375 204.896 490.585 220.681 493.575L205.021 498.582C196.194 502.887 190.962 518.738 188.301 527.763C183.68 525.529 188.247 516.703 188.139 512.668C187.923 504.833 183.68 495.52 179.347 489.036L182.907 488.153V488.171Z" fill="#A76465"/>
<path d="M351.95 237.814C351.32 241.326 348.156 240.75 345.729 241.47C317.322 249.954 294.507 256.277 271.907 277.333C257.452 259.501 280.411 245.235 295.693 239.993C313.385 233.905 333.701 235.346 351.932 237.814H351.95Z" fill="#A76465"/>
<path d="M317.681 309.775C317.591 309.919 315.2 308.478 314.193 309.108C310.939 311.161 306.624 324.941 304.322 311.666L290.838 318.853C296.969 307.613 294.164 294.86 292.654 282.846L298.084 299.021C302.866 302.371 330.859 278.108 335.768 273.839C336.631 285.872 322.697 295.202 318.742 302.732C317.483 305.127 318.256 308.874 317.699 309.793L317.681 309.775Z" fill="#A76465"/>
<path d="M504.788 288.231C505.633 282.989 510.272 280.396 512.357 275.118C524.169 245.217 495.565 214.812 483.681 244.587C475.77 264.4 490.405 264.04 490.531 274.704C490.603 279.963 486.072 286.556 482.296 290.032C481.559 285.403 483.645 281.765 483.087 276.739C481.955 266.562 473.954 261.843 477.19 249.054C481.685 231.365 499.143 221.765 511.944 238.733C523.702 254.331 522.336 277.856 504.788 288.249V288.231Z" fill="#A76465"/>
<path d="M267.462 378.276C266.311 373.989 269.709 374.061 272.766 373.773C282.312 372.926 291.949 380.077 292.632 363.866C308.454 383.842 279.939 379.033 267.444 378.258L267.462 378.276Z" fill="#A76465"/>
</svg>
