<svg width="382" height="880" viewBox="0 0 382 880" fill="none" xmlns="http://www.w3.org/2000/svg">
<path d="M289.164 185.825L287.828 183.797C285.27 191.539 284.674 199.104 288.359 206.621C289.454 208.842 292.125 209.55 291.191 212.915C288.343 210.581 286.106 205.736 285.769 202.082C284.706 202.114 284.433 205.092 284.465 205.752C284.69 210.21 290.226 215.86 292.012 219.9C295.81 228.512 294.764 240.712 286.46 246.121C288.536 239.135 294.362 234 291.883 226.113C291.578 225.164 292.286 224.922 290.516 225.115C291.015 232.004 285.189 236.447 282.26 241.582C278.704 247.795 277.288 254.378 280.346 261.026C277.562 259.352 276.628 255.923 276.966 252.897L275.631 254.249L276.966 247.473C274.392 248.97 272.798 251.964 272.895 254.925L271.559 251.545L270.192 258.998L268.856 254.265C265.718 261.975 260.778 269.782 253.343 273.597C249.176 286.377 241.081 297.354 233.904 308.412C232.054 311.261 228.176 314.481 228.24 318.215C228.32 322.175 234.21 332.492 235.964 336.951C250.109 372.877 255.371 405.89 262.258 443.458C269.709 484.053 277.964 508.905 303.405 541.886C309.568 549.886 318.87 558.787 323.601 567.752C324.099 568.702 324.566 569.571 324.373 570.698C319.368 564.984 315.732 557.386 310.502 551.721C309.697 550.851 309.327 550.594 309.488 552.059L326.996 577.909L328.444 581.53L323.697 580.871L325.033 582.561C324.083 583.977 323.649 583.398 322.345 582.899C323.568 585.442 321.122 586.504 318.95 587.325C317.711 587.808 317.26 586.07 315.957 588.806L314.219 588.323L314.267 589.981C311.516 591.832 306.913 592.588 304.274 593.957C302.166 595.051 301.346 597.401 300.187 598.512C297.162 601.409 275.438 611.968 270.208 614.415C266.925 615.96 263.449 616.958 260.038 618.133C259.893 619.404 261.454 618.696 262.21 618.616C278.72 616.829 291.98 605.98 305.771 597.82C307.831 597.707 306.254 598.56 305.642 599.059C304.178 600.266 302.182 601.795 300.621 602.842C293.283 607.767 277.835 617.602 269.693 619.34C265.734 620.177 260.971 619.71 257.141 620.338C250.511 621.417 241.709 626.342 234.966 627.372C233.566 627.581 232.858 627.163 231.587 626.954L238.346 662.526C242.401 690.791 237.058 717.558 231.491 745.099C227.548 764.655 219.583 786.079 221.433 806.151C222.189 814.489 227.934 828.927 226.792 835.945C226.518 837.635 225.311 838.729 224.941 840.194C224.169 843.317 225.118 846.343 222.077 849.192L231.233 846.504L231.555 847.84C228.047 849.272 222.576 849.755 219.422 851.622C218.392 852.234 214.61 856.982 214.642 857.674C214.771 860.008 216.429 857.401 216.911 857.224C224.603 854.327 232.842 852.991 240.727 850.721L241.725 851.896L224.104 855.968L227.162 857.996L226.148 856.644L240.373 853.924L240.695 855.26C241.371 854.745 242.079 854.278 242.916 854.085C248.13 852.926 255.307 851.14 260.44 850.608C261.18 850.528 262.886 849.997 262.725 851.204L234.918 856.934C231.7 857.739 214.546 862.181 213.033 863.356C212.309 863.92 212.357 865.69 211.553 866.785C210.169 868.636 201.077 876.555 199.226 876.877C197.199 877.231 195.412 875.622 193.272 878.326L192.612 876.974C191.647 878.133 190.569 878.583 189.169 878.986C184.679 880.273 177.47 880.112 172.996 879.71C170.695 879.517 168.233 879.002 168.555 876.282C165.659 878.02 160.992 879.163 158.031 876.99C153.461 873.642 157.967 867.783 158.401 863.405L155.344 864.065L155.022 862.729C155.392 862.342 159.157 862.938 158.401 860.684C157.773 860.137 149.905 864.306 148.424 864.58C145.898 865.047 143.886 864.049 142.1 864.354C139.493 864.789 134.746 867.863 131.335 868.507C127.36 869.264 124.174 868.539 122.275 864.741C122.001 864.193 122.548 863.453 122.484 863.421C122.146 863.228 119.089 863.244 117.608 862.664C115.613 861.892 114.454 858.946 114.245 858.769C113.826 858.399 112.539 858.898 111.815 858.512C109.932 857.497 109.964 852.797 111.654 851.22L87.2748 856.628L111.622 850.158C114.631 846.874 116.321 842.786 120.649 840.902C133.056 835.478 144.691 824.05 151.305 811.93C159.029 797.781 155.36 779.448 152.109 764.35C146.654 738.998 137.916 713.824 132.718 688.151C129.371 671.572 129.001 655.073 125.767 638.897C124.849 634.293 125.091 630.656 119.941 629.143C112.137 626.857 102.192 626.567 94.1944 624.459C88.8519 623.042 84.2978 618.407 79.9691 615.107L81.868 611.018L80.5001 609.666L82.5277 608.314L80.4841 607.96L80.4358 575.205L81.8519 574.432L80.468 573.659C80.2749 568.734 80.7576 563.744 80.5163 558.819C77.0887 490.668 78.6818 396.683 108.806 334.424C113.408 324.927 120.215 316.428 121.808 305.419C112.443 304.743 103.463 310.762 95.2564 303.664C93.1484 301.845 90.8794 296.067 89.9461 293.234C85.5691 279.971 84.0082 263.73 85.2312 249.855C85.5852 245.734 88.7714 231.779 87.5806 229.188C86.3898 226.596 83.622 226.661 83.3484 221.172C83.2197 218.693 84.4105 217.679 84.5392 215.892C85.022 209.019 85.7139 204.448 88.6426 197.833C89.4472 196.03 89.6404 194.79 90.3162 193.277C91.4909 190.605 96.0128 188.931 96.5599 187.386C96.8174 186.694 95.9806 183.877 96.2059 182.268C96.753 178.163 99.9231 171.837 100.1 168.425C100.309 164.176 97.5576 159.798 97.3966 155.661C97.1553 149.609 99.1346 142.301 102.868 137.553C104.718 135.171 111.268 130.631 111.686 128.555C111.767 128.169 111.847 127.428 111.332 127.541C108.613 131.758 103.64 133.786 100.47 137.682C94.8059 144.635 92.4082 155.194 98.1208 162.759C96.6082 162.647 94.0817 159.315 93.5346 158.204C91.2978 153.681 91.9415 148.208 93.5346 143.589C96.4472 135.106 101.484 133.802 106.955 127.879C108.162 126.575 112.394 121.424 112.764 120.089C113.247 118.366 110.463 114.889 109.836 112.765C107.969 106.391 109.997 100.564 112.362 94.6567C115.886 85.8039 125.96 75.1483 121.969 65.3941C119.797 60.0502 117.286 59.2937 117.367 52.0826C117.463 42.8274 128.535 24.832 135.856 19.2145C143.178 13.597 151.675 10.2812 159.157 5.93523C183.553 -8.2615 209.171 4.87289 224.024 25.669C233.502 38.9483 234.339 46.3524 240.1 60.4204C248.532 81.0073 268.647 80.5888 266.828 108.886C266.185 119.01 262.628 123.42 270.24 132.595C272.943 135.847 276.596 137.859 279.316 141.142C290.081 154.132 293.283 169.455 289.18 185.809L289.164 185.825ZM180.769 21.8542C176.038 20.969 172.111 17.2186 167.236 17.1059L173.334 20.6792C175.233 20.7758 176.923 21.7899 178.709 22.2245C179.385 22.3854 180.93 23.1097 180.769 21.8542ZM200.369 63.1406C193.111 60.9033 190.923 50.3121 185.854 46.2559C182.668 43.6966 174.992 41.2017 170.84 38.9161C167.573 37.1133 161.973 33.8619 159.141 31.6407C157.725 30.53 152.737 24.5584 151.997 24.5584C148.167 33.4273 135.406 35.9383 132.751 45.3062C131.077 51.1974 131.029 58.2313 129.275 64.203C131.849 64.2674 133.459 62.9475 136.387 63.1728C138.689 63.3499 140.121 64.5249 142.148 65.2331L129.951 68.6294C131.544 72.2349 132.847 75.9209 135.776 78.7216L144.852 73.3616C143.098 77.4661 140.072 81.0717 135.357 81.1199L134.746 81.9087C135.711 85.7717 134.907 89.7796 135.84 93.5461C137.659 100.838 152.206 117.368 158.047 122.841C160.734 125.352 162.939 126.64 166.721 126.044C184.567 123.195 201.801 101.755 203.812 84.1943C205.245 82.4076 204.472 91.0673 204.327 91.8238C202.348 102.029 191.904 119.606 183.81 126.189C180.801 128.636 175.603 130.454 173.656 132.289C172.063 133.802 172.208 135.718 171.194 137.279C165.449 146.245 158.514 144.667 148.955 144.506L166.206 171.628C179.61 184.215 197.923 183.121 213.773 175.797C223.187 171.451 231.941 160.989 241.29 155.87C242.047 155.452 242.932 155.339 243.785 155.323C244.074 153.778 243.688 154.244 242.916 153.826C239.714 152.039 235.208 150.88 231.571 148.917C221.868 143.637 216.139 137.585 212.953 126.881C208.817 113.006 208.479 97.7955 206.516 83.5183L204.488 84.1943L203.893 81.9087C205.695 80.0254 207.626 80.283 209.589 78.1261C210.812 76.7579 214.353 71.0116 214.964 69.2732C216.943 63.6879 217.265 51.632 210.072 49.7326C206.934 48.9117 203.941 58.4567 202.461 60.6458C201.93 61.4184 200.417 61.7081 200.369 63.1406ZM185.516 42.1836L169.939 36.0832C174.123 39.6565 180.415 40.7349 185.194 43.5195L185.516 42.1836ZM250.27 79.7357C248.838 78.5607 247.341 77.5144 246.15 76.0658C245.651 75.9531 245.684 76.774 245.812 77.0637C246.215 77.9651 249.755 81.8282 250.833 83.5665C255.033 90.3108 261.357 99.4051 260.858 107.131L262.065 107.566L260.697 108.242C262.162 113.924 259.925 119.702 261.389 125.513L262.628 124.933L264.077 126.865C261.759 121.73 263.674 117.449 263.433 112.266C262.902 100.966 259.104 86.9467 250.254 79.7196L250.27 79.7357ZM264.093 108.58C264.688 100.902 263.32 92.7413 258.01 86.8984L261.727 96.379L264.093 108.58ZM115.066 118.736C113.424 112.507 113.408 107.373 114.695 101.095C115.194 98.6807 117.206 96.5883 116.417 93.6749L113.006 101.433C111.67 105.296 111.799 110.061 112.652 114.052C112.893 115.179 113.939 118.157 115.066 118.753V118.736ZM275.615 143.814C275.904 142.543 274.906 142.205 274.263 141.448C270.9 137.472 266.281 133.577 262.757 129.585C263.063 131.195 264.72 133.094 265.782 134.334C268.695 137.73 272.332 140.756 275.615 143.814ZM260.038 201.422C260.038 201.422 260.07 200.36 261.019 200.698C267.89 202.082 259.378 214.733 257.093 217.438C256.336 218.323 254.244 218.58 254.631 220.383C259.571 220.431 264.93 220.592 269.323 223.007L270.24 222.798C271.833 221.671 275.856 200.247 276.21 196.899C277.851 180.899 276.387 166.349 260.392 158.703C242.996 150.381 224.973 174.107 209.412 180.223C193.852 186.34 174.364 185.825 162.73 173.366C156.39 166.574 150.419 147.371 143.87 143.106C140.893 141.174 128.213 141.368 124.222 141.754C117.656 142.414 110.753 149.963 108.645 155.983C108.355 156.82 108.709 157.93 108.339 159.009C105.941 165.994 103.013 172.868 102.868 180.368C109.047 180.191 120.135 184.505 124.238 189.157C126.04 191.201 126.877 194.34 129.291 195.965L126.571 171.918C126.571 170.212 126.78 169.938 127.36 171.805C128.518 175.636 128.647 179.515 129.339 183.41C129.548 184.618 128.599 185.439 130.659 185.117C129.693 177.857 128.518 170.389 127.955 163.081C127.891 162.341 127.456 160.554 128.615 160.731L133.362 197.317L138.109 169.552C140.201 182.573 131.962 203.015 137.321 214.717C139.107 218.629 142.824 219.788 145.882 222.411C153.219 228.737 160.718 235.401 168.652 240.97C174.525 245.091 175.265 246.314 182.507 244.093C183.247 243.867 183.714 244.559 183.488 243.079C177.341 238.314 175.571 230.846 173.334 223.763C175.137 223.409 174.509 224.133 174.992 225.115C176.617 228.447 177.727 231.264 179.417 234.419C180.173 235.835 183.681 243.095 184.567 243.304C196.619 239.763 208.914 234.322 219.406 227.514C224.056 214.267 226.486 199.024 233.502 186.726C234.049 185.777 235.562 182.396 236.994 183.443C235.192 188.255 232.36 194.452 231.201 199.346C231.04 200.038 230.3 201.567 231.571 201.406C237.058 189.173 244.831 177.036 254.277 167.54C255.387 168.232 254.035 169.037 253.601 169.568C244.171 181.012 235.996 194.629 231.587 208.858L239.038 198.702L239.714 199.7C236.222 205.929 231.668 211.836 230.235 219.015C231.716 218.162 232.665 216.729 234.065 215.747C241.274 210.645 247.904 208.552 255.451 204.609C257.012 203.788 258.38 202.291 260.038 201.406C259.394 205.43 255.516 205.253 253.279 206.508C252.41 206.991 250.962 209.502 249.691 210.404C245.04 213.768 238.41 215.844 233.663 219.401C230.123 222.057 226.631 226.419 222.994 229.059C207.481 240.262 183.553 248.68 164.951 252.994C149.518 256.567 134.279 255.006 119.153 260.028C110.383 262.941 104.187 268.349 100.148 276.591C98.6679 276.574 99.7139 274.063 100.004 273.387C102.289 268.221 106.907 261.637 112.089 259.046C115.822 257.179 120.295 257.372 123.852 255.231C116.369 254.04 108.951 255.955 102.385 259.513C100.84 260.35 99.038 262.941 97.4449 262.024C103.254 254.555 109.787 251.448 119.443 252.205C121.679 252.382 124.093 253.477 126.249 253.541C127.263 253.573 128.197 254.024 127.923 252.543C126.539 251.014 124.431 249.404 123.643 247.457C123.128 246.185 123.948 244.849 123.224 243.722C120.923 240.052 102.868 229.751 98.2817 227.997C96.1254 227.176 94.3392 226.918 92.038 227.143C91.7967 231.184 90.5898 235.079 90.0909 239.087C88.2564 254.008 87.6932 287.391 96.2059 299.865C99.9231 305.306 105.394 303.954 111.171 302.859C137.546 297.87 169.199 282.128 192.983 269.508C197.134 267.303 208.543 259.255 211.907 258.611C220.95 256.873 228.288 258.338 237.396 258.837C240.92 259.03 245.217 258.531 248.854 258.998C251.155 259.287 260.81 262.362 261.389 262.072C265.67 259.979 259.651 254.957 257.576 253.67C256.256 252.833 253.858 252.929 253.279 251.545C257.27 250.756 261.872 253.058 265.461 254.925C268.727 248.342 263.69 245.863 259.378 242.064C263.336 241.904 269.226 241.855 270.9 246.121C274.987 242.644 268.084 236.077 265.123 233.92C263.964 233.067 260.697 232.874 260.038 230.556C265.251 231.296 269.58 231.328 273.571 235.288C274.375 232.825 274.038 230.009 272.525 227.884C267.279 220.496 239.022 221.88 239.022 220.045C242.111 219.16 245.619 220.367 248.661 218.983C249.111 218.773 255.644 213.558 256.304 212.931C259.04 210.291 263.031 205.478 261.293 201.744L260.038 201.406V201.422ZM281.842 152.474C281.231 151.943 280.812 149.11 279.364 147.87C278.463 147.114 276.757 147.001 275.952 145.858C274.472 148.933 279.461 151.041 280.169 152.136C280.828 153.182 281.021 157.045 281.874 158.912C283.033 161.472 286.348 164.948 286.992 168.039C287.941 172.626 286.316 176.006 285.865 180.175C285.785 180.916 285.254 182.622 286.46 182.461C288.665 175.507 288.44 158.059 283.403 152.603C282.856 152.023 282.003 152.603 281.842 152.49V152.474ZM91.3622 195.998H102.884C100.76 202.13 92.199 194.565 88.6909 201.808L90.3323 204.029L98.8288 203.466L97.4771 205.832L98.8288 206.846C94.1622 205.945 86.776 205.945 86.6473 212.271C88.6427 211.498 95.3369 211.176 96.7691 212.335C96.9139 212.448 96.1898 214.685 97.4932 215.651C92.2311 216.311 86.084 213.285 85.9714 221.075C88.4978 221.284 91.2978 220.802 93.7599 221.075C99.5208 221.735 106.939 228.946 112.362 231.602C117.447 234.097 122.87 234.548 127.521 238.137C131.898 241.517 133.603 246.443 136.774 249.952C137.594 250.869 138.334 250.241 138.672 250.434C139.01 250.628 139.059 251.835 139.911 252.141C140.684 252.414 146.815 252.624 148.199 252.559C154.217 252.221 164.886 249.855 170.647 247.827C171.291 247.602 172.208 247.746 171.999 246.829C171.21 246.765 170.422 246.443 169.746 246.024C162.875 241.726 138.463 222.154 134.714 216.005C128.422 205.687 129.146 194.13 116.675 186.614C112.571 184.135 110.109 184.135 106.102 182.96C104.799 182.573 103.849 180.916 102.224 181.093L101.532 186.517L112.121 188.481L119.153 193.969C111.751 194.71 103.656 188.352 96.3024 191.12C95.53 191.41 90.2519 195.064 91.3783 196.014L91.3622 195.998ZM244.686 280.244C244.863 279.906 245.989 279.633 246.376 278.924C247.293 277.25 251.541 269.718 251.799 268.671C252.989 263.891 241.757 264.1 239.359 263.746C231.008 262.506 220.017 258.386 214.578 266.772C213.13 269.009 216.091 269.895 212.599 271.874C221.015 271.585 227.95 277.814 232.231 284.429C232.327 286.506 231.507 284.896 231.008 284.301C226.148 278.57 220.918 274.546 213.275 273.243C219.679 278.957 220.773 286.168 222.077 294.232C220.274 296.179 218.553 286.667 218.343 286.119C216.654 281.661 212.019 275.898 207.803 273.629C205.502 272.389 204.15 273.001 202.235 272.534C201.688 272.406 201.849 271.392 201.447 271.343C196.555 270.603 191.872 277.621 186.369 277.154L166.56 290.53C172.433 295.23 178.468 301.491 184.631 305.644C189.104 308.654 207.385 318.955 211.939 320.34C213.564 320.839 215.366 320.645 216.96 321.37C225.408 310.795 233.599 301.024 240.502 289.29C242.159 286.457 243.061 283.206 244.686 280.244ZM178.484 309.443C172.755 306.223 166.35 302.779 159.785 301.717L174.686 309.153L159.109 303.745L159.801 305.097C156.229 304.099 149.728 304.904 146.22 306.095C145.045 306.497 144.111 307.688 142.84 308.139C137.031 310.215 129.597 310.923 128.615 317.974L126.925 315.269L125.171 317.265L123.224 316.621L113.215 340.846C106.231 353.417 101.758 370.672 97.815 385.062C93.1645 402.059 89.6564 418.831 89.3346 436.553L87.999 433.849L88.707 439.515L87.3231 440.255C88.2886 445.921 87.9346 454.452 87.6128 460.617C86.5346 481.413 82.3507 511.995 85.4404 531.89C85.6013 532.969 86.599 533.532 86.6633 534.482C86.6955 534.932 85.376 534.466 85.2151 535.785C84.1047 545.282 86.2128 557.998 86.5185 567.784C86.8565 578.424 86.9208 589.031 86.5668 599.526C86.4702 602.439 87.1139 605.642 86.6151 608.685L85.2634 607.992C85.7944 609.747 84.2496 609.908 83.7829 610.954C83.091 612.564 84.0082 614.543 81.868 615.107C82.1737 615.751 89.8495 620.242 91.0886 620.789C102.208 625.666 115.806 622.672 128.068 627.098C133.523 629.062 139.268 632.941 145.013 634.615C169.537 641.746 206.902 629.899 229.704 619.34C237.155 615.896 243.624 610.954 250.543 606.64L248.532 604.95C249.449 603.019 251.187 603.904 252.281 603.308C263.304 597.353 273.442 587.84 285.785 584.283L283.757 582.947C284.642 582.255 286.702 582.899 287.008 582.754C287.136 582.689 287.185 581.659 287.973 581.386C297.677 578.15 308.796 575.8 318.966 576.83C316.536 571.857 313.752 567.028 310.711 562.392C302.504 549.853 292.559 539.906 284.385 527.737L276.95 511.786C275.695 511.625 276.355 513.203 276.596 513.83C277.867 517.339 280.41 520.752 281.713 524.309L276.789 518.418C265.139 499.086 262.049 476.262 257.817 455.386C253.794 435.571 249.642 415.709 245.812 395.911L247.003 395.75C241.178 374.986 235.127 354.174 226.84 334.263C225.537 334.15 226.325 335.615 226.502 336.291C227.628 340.476 229.833 344.773 230.75 348.991C230.895 349.667 231.442 351.373 230.235 351.196L224.12 332.911C222.624 333.49 224.169 336.725 221.417 336.291C221.433 335.55 221.642 334.778 220.999 334.198C220.435 333.683 208.399 328.178 207.192 327.776C206.516 327.551 205.808 327.857 205.196 328.13C205.035 324.782 203.072 325.442 200.417 324.75L200.755 323.414C201.061 324.734 206.291 325.168 203.78 323.752C200.449 321.885 196.764 320.565 193.465 318.682C188.831 316.042 189.909 316.734 184.824 314.947C183.376 314.448 180.511 313.193 179.176 312.469C178.484 312.098 177.132 311.02 179.079 311.213L184.164 312.903C183.022 311.278 180.608 311.261 179.288 310.473C178.773 310.167 178.645 309.555 178.484 309.459V309.443ZM85.2473 476.52L86.599 449.43L85.2312 457.864C85.7783 462.886 84.5553 467.812 84.5553 472.769C84.5553 473.655 84.0404 476.488 85.2473 476.52ZM306.785 584.927L306.463 583.591L286.477 595.775C290.902 594.633 294.603 591.381 298.449 589.128C299.817 588.323 306.237 585.587 306.785 584.927ZM297.982 595.116L285.109 601.2C289.534 600.138 294.667 598.335 297.982 595.116ZM293.235 599.864C288.488 601.055 283.483 603.614 279.686 606.624L284.449 604.95L293.235 599.864ZM216.686 834.979C216.847 829.442 217.185 823.937 217.362 818.384C217.523 813.33 216.96 811.93 216.686 807.535C215.254 784.164 224.185 759.553 228.674 736.874C233.679 711.554 236.399 682.163 232.054 656.651L227.194 633.746C223.766 636.949 229.383 641.617 226.518 644.563C225.472 644.563 225.134 638.736 224.845 637.432C224.651 636.547 225.408 635.404 223.831 635.774C222.012 636.209 216.557 644.048 214.674 642.535L215.35 640.506C213.838 639.251 205.148 648.393 202.477 648.619L218.054 636.434L214.417 637.191C207.208 643.227 198.148 646.897 192.983 655.057C194.737 655.54 193.771 656.184 194.318 657.069C195.573 659.081 197.939 661.045 198.406 663.524L189.941 652.691C188.461 653.609 189.217 655.106 188.895 656.264C188.734 656.876 186.819 656.796 187.576 658.775L188.911 657.423C188.911 660.723 189.957 664.007 190.263 667.258C190.987 674.694 190.907 682.823 191.631 690.276C195.799 733.155 204.343 776.583 193.079 819.124C187.978 838.407 174.445 846.649 164.242 861.441C161.861 864.886 160.219 868.797 158.417 872.579C158.337 876.99 167.316 873.771 169.231 872.531C171.661 870.97 172.819 864.049 176.714 862.745C178.902 864.644 171.419 872.998 172.659 876.298C179.723 876.41 179.24 869.344 183.15 865.465C184.261 867.364 178.693 876.346 179.417 876.974C180.56 876.813 182.394 877.36 183.327 876.829C184.518 876.153 188.927 866.801 189.571 864.789C190.746 864.757 191.019 864.419 190.875 865.755C190.488 869.264 188.429 872.917 187.527 876.314C192.291 877.183 191.904 873.754 193.852 870.761C195.139 868.781 197.504 867.107 197.698 864.113L199.725 865.191L196.33 873.594C197.939 875.107 206.999 866.431 208.141 864.741C210.78 860.813 211.295 855.067 214.739 850.335C216.541 847.872 220.387 845.297 221.53 842.898C221.948 842.029 223.911 833.788 223.831 833.241C223.67 832.082 219.357 827.527 220.693 824.79L216.638 834.947L216.686 834.979ZM192.162 805.089C199.741 768.792 191.695 732.479 187.56 696.408C185.967 682.582 185.677 669.351 183.279 655.299C182.394 650.148 180.592 644.981 180.447 639.846L175.362 641.891C182.877 664.425 184.55 687.652 184.196 711.361C183.907 731.063 182.346 750.426 183.504 770.273C184.277 783.6 186.723 796.944 189.603 809.917C191.309 809.708 190.086 805.346 190.279 805.201L192.178 805.105L192.162 805.089ZM142.84 659.484C143.114 659.709 143.307 660.353 143.918 660.755C144.98 661.447 146.847 661.013 146.911 662.188C141.488 663.202 138.64 655.943 135.744 653.995C135.18 653.609 134.633 653.802 134.07 654.043L133.346 650.003C132.107 650.196 132.606 653.496 132.686 654.397C136.21 696.022 151.707 737.324 158.884 777.951C160.219 785.5 161.185 795.222 159.705 802.739C157.387 814.521 142.856 831.776 132.879 838.247C128.985 840.774 121.245 842.963 118.67 845.377C117.286 846.681 117.705 848.258 117.029 849.417C115.935 851.3 113.231 852.476 113.714 855.292L121.518 847.856L125.22 845.812C126.137 846.697 115.854 855.92 117.093 858.672C119.7 858.27 119.571 855.18 121.889 853.586C122.935 852.862 124.141 853.103 124.56 852.814C126.426 851.51 128.052 848.773 130.643 848.516C130.272 850.48 119.443 857.723 121.164 859.349C127.247 858.689 131.447 853.232 137.417 851.896C139.622 854.101 126.217 859.252 125.316 862.503C124.656 864.869 128.47 865.529 130.224 865.417C131.721 865.304 145.141 858.769 146.863 857.61C153.123 853.345 159.206 842.898 166.19 839.663C170.341 837.731 177.293 837.442 180.737 834.561C185.983 830.182 186.417 820.589 186.208 814.28L184.856 817.322V806.489L182.153 811.221C185.822 795.013 180.624 778.401 179.449 762.096C178.033 742.604 180.817 723.24 180.817 703.861C180.817 698.259 179.659 692.77 180.109 687.233L178.773 689.937C179.578 678.879 177.631 668.272 176.054 657.423C174.445 658.116 175.555 661.657 176.054 662.832C173.286 664.795 172.916 656.796 172.433 655.283C172.208 654.558 171.452 652.144 170.631 651.999L171.645 657.053L170.631 664.876C170.084 662.204 170.76 658.18 170.486 655.717C170.454 655.46 167.718 653.56 169.295 651.13L166.576 649.295C166.141 652.627 162.44 653.415 161.716 657.005L157.773 661.48L161.829 652.675L157.098 655.379V651.983L158.337 652.562L165.208 643.178C161.491 644.128 161.233 649.858 157.436 650.019C156.084 650.084 154.619 649.134 153.493 649.391C152.479 649.617 148.424 653.544 146.557 653.866L144.53 651.999L144.192 653.351L142.18 653.689C142.615 654.188 142.647 654.8 142.84 655.395C142.615 655.186 142.003 655.154 141.81 654.703C141.859 656.812 139.718 654.639 140.121 656.409C140.523 658.18 141.682 658.518 142.84 659.451V659.484ZM141.488 654.059L135.406 643.903C135.647 646.494 136.79 649.343 138.785 651.017L137.417 651.677L139.606 654.591L141.488 654.059ZM223.461 858.689L223.123 856.677C223.091 857.964 212.084 860.282 213.983 862.101L223.461 858.689Z" fill="#3A3A3A"/>
<path d="M143.518 656.779C142.488 656.827 143.003 655.91 142.842 655.427C143.132 655.701 143.856 655.508 143.518 656.779Z" fill="#3A3A3A"/>
<path d="M145.561 654.735L148.265 655.073L142.842 659.484C142.809 658.969 143.373 656.924 143.518 656.779C143.856 656.441 146.044 656.683 145.545 654.751L145.561 654.735Z" fill="#3A3A3A"/>
<path d="M144.869 654.058C144.869 654.058 144.082 654.139 144.194 653.383C144.949 653.255 144.837 654.026 144.869 654.058Z" fill="#3A3A3A"/>
<path d="M145.56 654.735C145.303 654.542 145.11 654.285 144.885 654.06C145.094 654.269 145.495 654.349 145.56 654.735Z" fill="#3A3A3A"/>
<path d="M24.9851 91.6476C25.9667 91.6476 26.3046 89.5712 26.5299 88.7986C27.6081 85.0965 27.2701 79.978 30.392 77.4187L27.0127 93.6757L39.1942 84.8712C40.5781 86.4164 29.8448 93.6274 29.0402 95.0278C35.8793 92.8065 43.1207 90.9072 50.4103 91.6154C53.8861 91.9534 58.6333 94.062 55.1574 97.7802C54.1919 98.8104 44.0379 104.83 42.1551 105.78C38.5988 107.567 35.0908 109.385 31.0517 108.194C29.8609 112.524 28.6058 120.041 23.6012 121.763C15.861 124.435 15.9092 115.196 16.1667 109.933C14.5575 110.239 13.0127 114.617 11.4357 112.299L14.815 107.905C9.39202 108.919 -1.6953 112.267 0.219636 103.108C1.29779 97.909 6.02881 93.6918 11.4357 93.6596C10.1322 92.0017 7.73455 91.4545 6.31846 89.6356C2.84261 85.1609 7.33225 80.5092 8.41041 75.4067C9.26328 71.4471 8.15294 58.5863 14.3805 61.9182C20.6081 65.2501 27.238 84.3883 24.9851 91.6315V91.6476ZM13.7529 65.5398C13.3184 65.0891 13.7368 64.3004 12.7874 64.5419C12.3047 67.1816 12.0633 70.3686 11.4035 72.9118C9.52075 80.0746 3.4702 87.3983 12.5782 91.5028L21.5897 95.0117L16.8587 94.3518L18.2104 96.3638C16.4886 97.6193 7.42881 92.6456 4.12997 99.5669C-1.56657 111.542 12.0311 106.617 17.1805 102.448C27.5437 94.0459 21.8472 73.7971 13.769 65.5237L13.7529 65.5398ZM52.7436 95.0439C40.9804 93.4343 24.8885 95.0761 19.5138 107.534C18.0977 110.802 16.4725 120.395 21.8633 120.122C27.5437 119.832 30.3437 107.019 28.3644 102.496L30.5046 106.44C35.6862 107.518 39.4356 105.088 43.4908 102.368C46.4678 100.372 49.9597 97.3617 52.7436 95.0278V95.0439Z" fill="#3A3A3A"/>
<path d="M351.489 207.86C351.988 202.999 355.046 193.068 357.476 188.77C359.053 185.986 363.092 180.094 366.616 181.704C368.257 182.815 372.843 204.818 372.522 207.86C371.974 212.866 369.303 213.333 365.924 215.474C365.232 215.908 364.717 215.425 365.055 216.987C372.827 213.784 382.08 219.659 382 228.189C381.919 236.72 370.397 234.274 365.554 232.407C363.172 231.489 361.289 229.928 358.956 229.187C359.922 230.781 366.761 238.282 365.731 239.344C359.745 239.28 358.457 233.727 355.577 230.201C353.26 227.369 344.248 218.983 341.142 217.534C338.407 216.262 335.237 215.763 332.549 214.266L332.887 212.914C337.844 214.572 343.283 215.763 347.434 219.015C345.552 213.317 341.352 209.228 337.618 204.786C337.168 204.255 335.848 203.434 336.942 202.758C341.384 205.591 344.715 210.258 347.338 214.733C348.126 216.085 348.287 217.711 349.156 219.015C350.46 220.962 349.703 217.309 351.522 219.015C351.779 215.409 351.168 211.385 351.522 207.828L351.489 207.86ZM364.025 185.165C356.832 191.7 354.611 205.269 354.209 214.637C354.161 215.699 353.807 220.319 355.207 220.383C358.425 217.035 368.386 213.252 369.786 209.164C371.476 204.206 365.86 190.412 364.025 185.181V185.165ZM356.237 221.751C355.062 223.071 363.623 228.415 364.83 229.059C371.588 232.729 382.547 234.032 377.494 223.168C373.358 214.266 362.947 219.884 356.22 221.751H356.237Z" fill="#3A3A3A"/>
<path d="M337.264 55.0442C344.892 52.662 352.938 56.7665 352.149 65.4906C351.521 72.5728 338.696 67.567 335.236 65.2169L337.94 68.2752L336.588 68.5971C334.818 71.1242 340.482 82.7456 331.873 77.0475C327.947 74.4561 325.259 66.9392 324.648 66.5046C323.859 65.9574 319.354 64.9594 317.648 64.1707C314.623 62.7703 304.694 58.2634 304.774 54.6901C305.37 51.487 309.988 52.1469 312.531 52.3401C317.181 52.7103 321.558 54.5291 325.742 56.3802C323.328 53.9819 320.705 51.5675 320.319 47.9298L321.671 47.5917C323.377 50.4247 325.565 53.6117 327.577 56.2192C328.011 56.7826 327.577 57.4586 329.121 57.0723C327.915 51.149 329.202 43.5838 331.326 37.9341C332.34 35.2139 336.379 26.9244 339.613 27.2141C340.45 27.2463 340.836 27.697 341.271 28.3409C342.381 29.9344 342.269 42.5215 341.995 45.2095C341.593 49.2818 340.016 52.1308 337.264 55.0281V55.0442ZM339.292 30.6587C335.784 32.9282 333.563 37.7731 332.34 41.6523C331.777 43.4229 328.832 55.5915 331.503 55.7203C342.301 50.8593 341.11 40.59 339.292 30.6587ZM308.138 55.0603C311.903 58.36 317.02 61.7241 321.703 63.5107C324.423 64.5409 327.528 66.3276 329.813 63.5107C324.278 57.2011 316.425 54.6257 308.154 55.0442L308.138 55.0603ZM335.912 57.0884L331.857 58.4405C329.636 60.9515 340.144 65.2974 341.85 65.7159C345.439 66.6012 351.087 67.8084 350.025 62.3196C348.754 55.8329 339.597 55.849 335.253 59.1004L335.928 57.0723L335.912 57.0884ZM335.236 76.0496C334.705 72.09 333.193 68.3718 330.859 65.1365L326.434 65.893C325.694 66.6817 332.243 76.9188 335.236 76.0496Z" fill="#3A3A3A"/>
<path d="M253.941 843.124C253.909 843.623 252.3 844.975 252.042 845.072C246.651 847.277 231.38 852.557 226.005 853.474C224.976 853.651 224.461 853.571 223.463 853.265L253.941 843.124Z" fill="#3A3A3A"/>
<path d="M108.293 848.532C108.647 850.56 107.746 849.595 106.7 849.949C98.4609 852.782 87.8242 853.57 79.1667 855.293C78.9897 854.295 80.438 854.456 81.1782 854.279C90.1736 852.266 99.2655 850.448 108.277 848.532H108.293Z" fill="#3A3A3A"/>
<path d="M91.3649 850.576L77.1396 853.955L88.5488 850.254L91.3649 850.576Z" fill="#3A3A3A"/>
<path d="M178.485 309.443C178.662 309.539 178.775 310.151 179.29 310.457C180.625 311.245 183.023 311.262 184.165 312.887L179.08 311.197C177.149 311.004 178.485 312.082 179.177 312.453C180.529 313.177 183.393 314.416 184.825 314.931C189.91 316.702 188.832 316.01 193.467 318.666C196.765 320.549 200.45 321.869 203.781 323.736C206.292 325.152 201.046 324.718 200.756 323.398L200.418 324.734C203.057 325.426 205.021 324.766 205.198 328.114C205.809 327.84 206.517 327.535 207.193 327.76C208.4 328.146 220.437 333.667 221 334.182C221.643 334.762 221.45 335.534 221.418 336.275C224.154 336.709 222.609 333.474 224.122 332.895L230.237 351.18C231.427 351.357 230.896 349.651 230.751 348.975C229.834 344.773 227.614 340.476 226.503 336.275C226.326 335.583 225.538 334.118 226.841 334.247C235.128 354.158 241.179 374.986 247.004 395.734L245.814 395.895C249.643 415.677 253.811 435.539 257.818 455.37C262.05 476.246 265.124 499.07 276.79 518.402L281.715 524.293C280.411 520.752 277.869 517.323 276.597 513.814C276.372 513.17 275.696 511.609 276.951 511.77L284.386 527.721C292.561 539.89 302.505 549.837 310.712 562.376C313.737 567.012 316.537 571.841 318.967 576.814C308.797 575.784 297.678 578.118 287.974 581.37C287.186 581.643 287.138 582.673 287.009 582.738C286.703 582.883 284.643 582.239 283.758 582.931L285.786 584.267C273.443 587.84 263.305 597.353 252.282 603.292C251.188 603.888 249.466 603.019 248.533 604.934L250.545 606.624C243.625 610.938 237.156 615.88 229.706 619.324C206.919 629.883 169.538 641.73 145.014 634.599C139.285 632.925 133.524 629.046 128.069 627.082C115.807 622.656 102.209 625.65 91.0898 620.773C89.8507 620.225 82.1749 615.735 81.8691 615.091C84.0094 614.527 83.0921 612.548 83.7841 610.938C84.2347 609.876 85.7795 609.731 85.2645 607.976L86.6162 608.668C87.1151 605.642 86.4714 602.423 86.568 599.51C86.922 589.015 86.8415 578.392 86.5197 567.768C86.214 557.982 84.1059 545.266 85.2163 535.769C85.3772 534.449 86.6806 534.9 86.6645 534.466C86.6002 533.532 85.6025 532.969 85.4415 531.874C82.3519 511.996 86.5358 481.397 87.6139 460.601C87.9358 454.436 88.2737 445.921 87.3243 440.239L88.7082 439.499L88.0002 433.833L89.3358 436.537C89.6576 418.815 93.1657 402.043 97.8162 385.046C101.759 370.656 106.232 353.401 113.216 340.83L123.225 316.605L125.172 317.249L126.926 315.253L128.616 317.957C129.598 310.923 137.032 310.215 142.841 308.123C144.113 307.672 145.03 306.481 146.221 306.079C149.729 304.887 156.23 304.083 159.802 305.081L159.11 303.729L174.687 309.137L159.786 301.7C166.352 302.763 172.74 306.207 178.485 309.427V309.443ZM177.391 312.549C171.775 311.004 166.947 306.304 161.138 305.773L175.331 312.903L177.375 312.549H177.391ZM121.841 334.231L127.264 320.002L121.504 332.186L121.841 334.231ZM125.913 348.459C124.303 348.186 124.625 348.62 124.239 349.795C122.952 353.836 122.115 359.002 121.375 363.236C118.897 377.609 117.802 392.289 115.743 406.727C117.625 407.001 117.014 406.405 117.094 405.053C117.995 389.537 121.166 373.682 123.579 358.31C123.789 356.942 125.076 356.089 123.869 353.884L125.221 354.576L125.897 348.476L125.913 348.459ZM211.94 395.895L203.83 362.704C204.779 372.105 207.724 381.151 209.735 390.325L211.94 395.911V395.895ZM128.616 439.933C127.989 432.867 126.959 425.656 126.766 418.558C126.621 413.327 127.506 407.709 127.264 402.317C127.232 401.496 127.779 399.806 126.589 399.951C125.977 412.715 125.446 425.527 127.281 438.227C127.458 439.483 126.589 440.239 128.616 439.933ZM124.545 606.624L117.239 577.635C117.706 570.006 114.133 562.263 112.556 554.586C104.8 516.792 103.143 476.922 103.529 438.211C103.883 431.467 105.138 424.61 105.589 417.898C105.653 416.964 106.168 413.713 104.929 413.504C104.72 420.988 102.644 428.779 102.242 436.183C99.8438 480.624 104.993 530.409 115.582 573.241C117.931 582.738 119.428 592.46 122.195 601.86L124.561 606.592L124.545 606.624ZM213.292 524.631C204.264 506.04 195.639 487.288 188.398 467.876L173.336 416.884C178.002 447.466 188.526 477.244 200.981 505.428C210.122 526.112 220.887 547.471 237.349 563.245C238.282 561.829 235.354 560.155 234.324 558.819C230.22 553.62 226.455 547.906 222.094 543.077C217.331 534.176 210.846 524.969 207.048 515.617C206.791 514.989 205.777 513.026 207.193 513.106L213.292 524.615V524.631ZM235.66 466.363L236.915 464.158L225.473 434.831L221.45 423.676C224.637 438.404 230.961 452.134 235.676 466.363H235.66ZM232.94 471.112L231.894 465.027L219.391 431.821L232.94 473.832L234.276 470.435L232.924 471.128L232.94 471.112ZM139.446 496.849L127.94 441.961C128.439 448.416 129.372 454.983 130.531 461.341C131.69 467.699 134.313 475.345 134.989 481.284L139.446 496.849ZM162.007 531.279C161.444 530.747 161.154 523.939 160.671 522.072C155.586 502.756 149.648 482.926 143.71 463.82C142.713 460.617 141.538 456.722 140.331 453.647C139.993 452.794 139.929 451.651 138.786 451.474L140.138 460.279L141.474 458.927C140.299 461.695 142.616 462.999 142.777 463.514C148.103 480.753 152.11 498.459 157.582 515.665L157.051 516.857C152.03 501.082 146.317 485.485 143.501 469.099C142.294 468.939 142.825 470.629 142.906 471.385C143.308 475.248 144.901 479.481 145.834 483.264C146.044 484.133 145.674 484.986 145.851 485.662C152.577 510.643 170.31 563.632 185.227 583.542C187.641 586.762 190.908 589.884 193.981 592.411C194.48 592.524 194.448 591.703 194.319 591.413C193.129 588.774 185.549 580.355 183.2 576.782C174.027 562.795 169.618 551.222 165.225 535.142C164.115 531.053 163.069 532.341 161.991 531.311L162.007 531.279ZM249.869 505.67L240.391 486.016C241.066 492.712 245.315 500.696 249.869 505.67ZM108.292 557.161C105.556 536.606 101.678 515.923 102.885 495.159L102.209 492.793C100.536 510.74 103.593 528.687 105.782 546.457L108.292 557.161ZM284.724 553.491C273.685 539.793 264.77 524.695 254.101 511.271C253.457 510.466 253.328 509.42 251.928 509.726C251.14 510.595 257.802 520.623 258.816 522.168C260.023 524.019 261.584 526.675 262.774 528.333C269.71 537.958 278.657 547.23 286.14 556.469C287.347 555.149 285.206 554.071 284.724 553.475V553.491ZM154.347 516.502L153.011 516.824C155.715 523.81 157.308 531.327 159.834 538.345C160.365 539.793 161.251 541.918 161.975 543.769C163.552 547.825 165.434 552.107 167.317 556.034C168.765 559.076 170.326 562.923 172.628 565.273C165.096 549.612 159.126 533.21 154.331 516.486L154.347 516.502ZM157.742 544.284L152.336 530.055C153.011 533.822 154.444 537.54 155.876 541.065C156.246 541.982 156.697 544.123 157.742 544.284ZM91.3473 582.239L88.5634 550.819L87.2921 545.652C85.5703 558.368 87.9841 571.197 88.676 583.897C88.9657 589.257 87.9358 596.065 88.5956 600.91C88.7726 602.198 89.9473 601.812 90.0277 602.327C90.2691 603.807 88.2576 607.027 90.6714 607.976C90.9933 589.611 87.7427 571.422 87.2921 553.089L88.5634 558.256L90.076 575.704L91.3473 582.223V582.239ZM122.517 585.619L115.083 555.809C115.228 561.893 117.207 567.801 118.51 573.724L122.533 585.619H122.517ZM129.292 610.697L121.182 586.987C121.053 591.478 123.306 595.534 124.255 599.832L129.308 610.697H129.292Z" fill="#F1EBE4"/>
<path d="M260.038 201.422C258.38 202.307 257.029 203.821 255.452 204.625C247.905 208.569 241.275 210.661 234.066 215.764C232.666 216.762 231.716 218.178 230.236 219.031C231.668 211.853 236.222 205.945 239.714 199.716L239.038 198.718L231.588 208.875C235.997 194.63 244.171 181.013 253.601 169.584C254.052 169.053 255.388 168.232 254.277 167.556C244.831 177.069 237.059 189.205 231.572 201.422C230.316 201.583 231.04 200.054 231.201 199.362C232.36 194.485 235.192 188.272 236.994 183.459C235.546 182.397 234.034 185.793 233.503 186.743C226.503 199.04 224.073 214.283 219.406 227.53C208.898 234.355 196.604 239.795 184.567 243.32C183.666 243.111 180.158 235.852 179.418 234.435C177.728 231.281 176.618 228.464 174.992 225.132C174.51 224.15 175.137 223.426 173.335 223.78C175.572 230.862 177.342 238.315 183.489 243.095C183.714 244.592 183.247 243.884 182.507 244.109C175.266 246.33 174.526 245.107 168.652 240.986C160.719 235.417 153.22 228.753 145.882 222.428C142.825 219.788 139.107 218.629 137.321 214.734C131.946 203.032 140.202 182.59 138.11 169.568L133.363 197.334L128.615 160.748C127.457 160.587 127.891 162.357 127.956 163.098C128.519 170.405 129.694 177.874 130.659 185.133C128.583 185.455 129.549 184.634 129.34 183.427C128.648 179.532 128.519 175.669 127.36 171.822C126.781 169.938 126.588 170.228 126.572 171.934L129.291 195.982C126.878 194.356 126.041 191.217 124.238 189.173C120.135 184.521 109.048 180.208 102.868 180.385C103.013 172.884 105.942 165.995 108.34 159.025C108.71 157.947 108.34 156.852 108.645 155.999C110.753 149.979 117.673 142.43 124.222 141.77C128.197 141.368 140.878 141.175 143.871 143.122C150.436 147.388 156.39 166.574 162.73 173.383C174.365 185.841 194.447 186.131 209.413 180.24C224.378 174.349 242.981 150.398 260.392 158.719C276.371 166.365 277.852 180.916 276.21 196.915C275.873 200.263 271.833 221.687 270.24 222.814L269.323 223.023C264.93 220.593 259.571 220.448 254.631 220.4C254.245 218.597 256.353 218.339 257.093 217.454C259.378 214.75 267.891 202.082 261.02 200.714C260.07 200.376 260.102 201.406 260.038 201.438L261.293 201.776C263.031 205.511 259.04 210.323 256.305 212.963C255.661 213.591 249.112 218.822 248.661 219.015C245.62 220.416 242.112 219.192 239.022 220.078C239.022 221.913 267.263 220.528 272.525 227.916C274.038 230.057 274.376 232.874 273.571 235.321C269.581 231.361 265.236 231.313 260.038 230.588C260.682 232.922 263.965 233.115 265.123 233.952C268.084 236.109 274.987 242.693 270.9 246.153C269.227 241.888 263.337 241.936 259.378 242.097C263.707 245.912 268.728 248.391 265.461 254.958C261.873 253.091 257.27 250.789 253.279 251.578C253.875 252.962 256.256 252.865 257.576 253.702C259.652 255.006 265.67 260.012 261.39 262.105C260.81 262.394 251.155 259.32 248.854 259.03C245.201 258.563 240.921 259.062 237.397 258.869C228.289 258.37 220.967 256.889 211.907 258.644C208.56 259.288 197.151 267.336 192.983 269.541C169.199 282.176 137.546 297.902 111.172 302.892C105.395 303.986 99.9397 305.339 96.2064 299.898C87.6777 287.424 88.2409 254.04 90.0914 239.119C90.5903 235.111 91.7972 231.216 92.0385 227.176C94.3397 226.951 96.142 227.208 98.2822 228.029C102.868 229.784 120.924 240.101 123.225 243.755C123.933 244.898 123.128 246.218 123.643 247.489C124.432 249.437 126.54 251.047 127.924 252.576C128.197 254.056 127.264 253.606 126.25 253.574C124.11 253.509 121.68 252.415 119.443 252.238C109.772 251.481 103.239 254.588 97.4454 262.056C99.0385 262.974 100.841 260.382 102.386 259.545C108.951 256.004 116.37 254.089 123.852 255.264C120.296 257.404 115.822 257.211 112.089 259.078C106.907 261.67 102.273 268.237 100.004 273.42C99.7144 274.08 98.6684 276.591 100.149 276.623C104.188 268.382 110.383 262.974 119.153 260.06C134.28 255.022 149.519 256.6 164.951 253.026C183.553 248.713 207.466 240.294 222.995 229.091C226.631 226.468 230.139 222.106 233.663 219.434C238.394 215.877 245.024 213.8 249.691 210.436C250.962 209.519 252.411 207.024 253.279 206.541C255.516 205.285 259.394 205.462 260.038 201.438L260.038 201.422Z" fill="#F1EBE4"/>
<path d="M216.687 834.98L220.743 824.823C219.407 827.559 223.72 832.098 223.88 833.273C223.961 833.805 221.998 842.046 221.579 842.931C220.437 845.313 216.575 847.889 214.789 850.367C211.345 855.084 210.83 860.846 208.191 864.773C207.048 866.464 197.989 875.139 196.379 873.626L199.775 865.224L197.747 864.146C197.554 867.14 195.172 868.814 193.901 870.793C191.954 873.787 192.34 877.216 187.577 876.346C188.478 872.966 190.538 869.312 190.924 865.787C191.069 864.452 190.795 864.789 189.621 864.822C188.961 866.85 184.552 876.186 183.377 876.862C182.444 877.393 180.609 876.862 179.467 877.006C178.743 876.379 184.31 867.397 183.2 865.498C179.274 869.377 179.773 876.443 172.708 876.33C171.453 873.031 178.952 864.677 176.763 862.778C172.885 864.081 171.71 871.003 169.281 872.564C167.366 873.787 158.386 877.006 158.467 872.612C160.253 868.846 161.911 864.934 164.292 861.474C174.494 846.698 188.012 838.44 193.129 819.157C204.393 776.615 195.848 733.172 191.681 690.308C190.956 682.856 191.021 674.711 190.313 667.291C190.007 664.039 188.961 660.756 188.961 657.456L187.625 658.808C186.869 656.812 188.768 656.893 188.945 656.297C189.267 655.138 188.51 653.641 189.991 652.724L198.455 663.557C197.989 661.078 195.639 659.114 194.368 657.102C193.805 656.217 194.77 655.573 193.032 655.09C198.214 646.929 207.258 643.259 214.467 637.223L218.103 636.467L202.526 648.652C205.198 648.41 213.887 639.268 215.4 640.539L214.724 642.567C216.607 644.08 222.062 636.241 223.88 635.807C225.457 635.437 224.701 636.58 224.894 637.465C225.184 638.769 225.538 644.595 226.568 644.595C229.448 641.65 223.816 636.982 227.244 633.779L232.103 656.683C236.448 682.196 233.745 711.587 228.724 736.906C224.234 759.586 215.303 784.196 216.736 807.568C217.009 811.978 217.572 813.363 217.411 818.417C217.234 823.97 216.897 829.459 216.736 835.012L216.687 834.98Z" fill="#F1EBE4"/>
<path d="M142.842 655.412C143.003 655.895 142.504 656.812 143.518 656.764C143.373 656.909 142.81 658.969 142.842 659.468C141.683 658.534 140.508 658.148 140.122 656.426C139.736 654.704 141.86 656.812 141.812 654.72C142.005 655.154 142.616 655.203 142.842 655.412Z" fill="#F1EBE4"/>
<path d="M144.194 653.383C144.081 654.14 144.821 654.01 144.869 654.058C145.094 654.284 145.288 654.542 145.545 654.735C146.044 656.666 143.856 656.424 143.518 656.762C143.856 655.491 143.132 655.668 142.842 655.411C142.649 654.831 142.617 654.204 142.182 653.705L144.194 653.367L144.194 653.383Z" fill="#F1EBE4"/>
<path d="M144.194 653.383L144.531 652.032L146.559 653.899C148.426 653.577 152.465 649.666 153.495 649.424C154.621 649.167 156.085 650.116 157.437 650.052C161.235 649.891 161.492 644.161 165.209 643.211L158.338 652.595L157.099 652.016V655.412L161.83 652.708L157.775 661.512L161.718 657.037C162.442 653.448 166.143 652.659 166.577 649.327L169.297 651.162C167.72 653.609 170.455 655.492 170.488 655.75C170.777 658.212 170.101 662.22 170.632 664.908L171.646 657.086L170.632 652.032C171.437 652.16 172.209 654.591 172.435 655.315C172.901 656.828 173.288 664.844 176.055 662.864C175.557 661.689 174.446 658.148 176.055 657.456C177.649 668.305 179.58 678.912 178.775 689.97L180.111 687.266C179.66 692.803 180.819 698.292 180.819 703.893C180.819 723.273 178.035 742.636 179.451 762.129C180.626 778.45 185.823 795.045 182.154 811.254L184.858 806.522V817.354L186.226 814.312C186.451 820.622 186.016 830.215 180.754 834.593C177.294 837.474 170.359 837.764 166.207 839.696C159.239 842.931 153.141 853.377 146.881 857.643C145.159 858.818 131.754 865.353 130.242 865.449C128.488 865.578 124.674 864.902 125.334 862.536C126.235 859.284 139.639 854.118 137.435 851.929C131.481 853.248 127.265 858.721 121.182 859.381C119.476 857.771 130.29 850.512 130.66 848.548C128.069 848.806 126.444 851.542 124.577 852.846C124.159 853.136 122.952 852.878 121.906 853.619C119.605 855.212 119.734 858.303 117.111 858.705C115.872 855.937 126.138 846.714 125.237 845.844L121.536 847.888L113.731 855.325C113.249 852.492 115.952 851.317 117.046 849.45C117.722 848.291 117.304 846.697 118.688 845.41C121.262 842.995 129.003 840.79 132.897 838.279C142.874 831.808 157.405 814.553 159.722 802.771C161.203 795.254 160.237 785.532 158.901 777.983C151.724 737.357 136.228 696.054 132.704 654.43C132.623 653.529 132.125 650.229 133.364 650.036L134.088 654.076C134.635 653.834 135.182 653.657 135.761 654.027C138.658 655.975 141.506 663.234 146.929 662.22C146.865 661.045 144.998 661.48 143.936 660.788C143.324 660.385 143.147 659.742 142.858 659.516L148.281 655.106L145.577 654.768C145.497 654.382 145.111 654.301 144.901 654.092C144.869 654.06 144.982 653.287 144.226 653.416L144.194 653.383ZM176.715 818.722C179.885 812.751 181.173 805.846 180.786 799.085L176.345 816.662L176.715 818.722Z" fill="#F1EBE4"/>
<path d="M200.37 63.1409C200.418 61.7083 201.947 61.4186 202.462 60.646C203.942 58.473 206.935 48.9119 210.073 49.7328C217.266 51.6161 216.945 63.6881 214.965 69.2734C214.354 70.9957 210.814 76.7581 209.591 78.1263C207.643 80.2832 205.696 80.0417 203.894 81.9089L204.489 84.1945L206.517 83.5185C208.48 97.7957 208.834 113.006 212.954 126.881C216.14 137.585 221.869 143.637 231.572 148.917C235.193 150.897 239.715 152.039 242.917 153.826C243.673 154.261 244.076 153.778 243.786 155.323C242.933 155.323 242.048 155.452 241.292 155.87C231.942 160.989 223.188 171.451 213.775 175.797C197.924 183.121 179.595 184.215 166.207 171.628L148.956 144.506C158.531 144.684 165.451 146.261 171.195 137.279C172.209 135.702 172.064 133.786 173.657 132.29C175.604 130.455 180.818 128.636 183.811 126.189C191.906 119.606 202.349 102.029 204.329 91.824C204.473 91.0514 205.246 82.3917 203.814 84.1945C201.802 101.755 184.568 123.195 166.722 126.044C162.94 126.64 160.736 125.352 158.048 122.841C152.207 117.385 137.66 100.838 135.841 93.5463C134.908 89.7798 135.713 85.7558 134.747 81.9089L135.359 81.1202C140.09 81.0719 143.099 77.4663 144.853 73.3618L135.777 78.7218C132.848 75.9211 131.529 72.2351 129.952 68.6296L142.149 65.2333C140.106 64.5251 138.69 63.3501 136.389 63.173C133.46 62.9477 131.867 64.2515 129.276 64.2032C131.014 58.2315 131.078 51.1976 132.752 45.3064C135.407 35.9385 148.168 33.4275 151.998 24.5586C152.754 24.5586 157.726 30.5141 159.142 31.6409C161.959 33.8621 167.575 37.1135 170.841 38.9163C175.009 41.2019 182.669 43.6968 185.855 46.2561C190.908 50.3123 193.096 60.9035 200.37 63.1409ZM183.49 53.0325C175.846 49.7167 170.133 46.6746 161.685 49.8455C159.834 50.5376 151.467 56.461 153.028 58.4569C159.883 54.7709 167.671 51.4873 175.669 52.4209C177.23 52.5979 178.678 53.4832 180.464 53.7246C181.124 53.8051 183.65 54.2075 183.506 53.0486L183.49 53.0325ZM207.885 57.7648C207.145 57.0887 211.57 52.5013 210.25 50.9883C206.968 54.0949 204.168 58.5213 205.487 63.2052C205.841 64.4607 207.595 66.2796 207.627 66.9073C207.724 68.3077 205.198 71.0279 205.165 72.6697C206.404 73.9413 209.671 67.7604 209.752 66.7947C210.009 64.0422 205.004 62.9477 207.289 59.8733C208.915 59.5031 211.135 59.9216 212.31 61.1127C214.096 62.8994 212.423 64.8953 213.952 65.8933C215.174 61.3864 212.745 57.5072 207.869 57.7648H207.885ZM178.742 61.161C172.499 63.8169 167.044 69.0642 159.786 66.5693C159.899 67.7121 158.982 68.8389 159.416 69.9334C160.317 72.2512 161.637 70.1587 162.86 69.9817C163.938 69.8207 165.209 70.1265 166.159 69.8851C171.099 68.6618 175.701 65.185 178.758 61.1449L178.742 61.161ZM143.533 67.2453C147.234 74.6817 144.901 84.0335 143.678 91.8884C146.462 95.6549 151.257 99.5019 155.023 94.6891L146.977 89.8442C147.798 82.5366 149.165 72.9916 143.533 67.2453ZM158.37 89.6833L152.062 88.8946C149.584 90.7778 155.377 92.7576 157.34 92.2586L158.37 89.6833ZM176.715 95.7032C176.763 88.5726 172.805 95.6549 169.747 97.2162C165.354 99.4536 159.641 101.836 155.039 103.51C153.06 104.234 150.63 104.975 148.94 106.214C148.972 109.127 159.352 105.828 160.816 105.232C163.873 103.993 168.009 100.934 170.825 98.9868C172.869 97.5864 173.738 95.172 176.699 95.7032H176.715ZM153.687 109.932C158.611 110.962 165.74 112.33 167.221 105.876L153.687 109.932ZM193.434 163.307C194.352 162.598 197.361 155.065 197.699 153.311L189.572 165.174L191.584 165.48C191.069 162.759 192.742 163.838 193.434 163.323V163.307ZM176.715 161.439L157.759 156.015C157.533 157.11 158.418 156.337 158.933 157.029C158.998 157.126 158.515 157.979 159.062 158.381C161.685 160.248 170.97 161.858 174.365 162.116C175.106 162.18 176.892 162.615 176.715 161.456V161.439ZM230.912 162.775L230.574 161.439C222.496 165.496 212.439 164.836 204.039 167.443C202.945 167.781 202.124 166.896 202.462 168.876C207.499 168.409 212.552 167.717 217.492 166.639C219.262 166.252 230.365 163.339 230.912 162.775Z" fill="#F1EBE4"/>
<path d="M244.687 280.245C243.062 283.19 242.161 286.458 240.503 289.291C233.6 301.041 225.409 310.795 216.961 321.37C215.368 320.646 213.565 320.839 211.94 320.34C207.386 318.956 189.106 308.654 184.632 305.644C178.469 301.491 172.435 295.23 166.561 290.53L186.37 277.154C191.874 277.621 196.54 270.603 201.448 271.344C201.851 271.408 201.69 272.406 202.237 272.535C204.152 273.001 205.52 272.39 207.805 273.629C212.021 275.899 216.655 281.661 218.345 286.12C218.554 286.667 220.276 296.18 222.078 294.232C220.759 286.152 219.68 278.957 213.276 273.243C220.92 274.547 226.133 278.571 231.009 284.301C231.524 284.896 232.329 286.506 232.232 284.43C227.936 277.814 221.016 271.585 212.6 271.875C216.092 269.895 213.131 269.01 214.579 266.772C220.018 258.37 231.009 262.507 239.361 263.746C241.742 264.1 252.975 263.891 251.8 268.672C251.542 269.718 247.294 277.251 246.377 278.925C245.991 279.633 244.864 279.907 244.687 280.245Z" fill="#F1EBE4"/>
<path d="M91.3622 195.998C90.2518 195.048 95.5146 191.394 96.2871 191.104C103.641 188.336 111.735 194.694 119.138 193.953L112.105 188.465L101.517 186.501L102.209 181.077C103.834 180.899 104.8 182.557 106.087 182.944C110.078 184.135 112.556 184.135 116.659 186.597C129.131 194.114 128.39 205.671 134.698 215.989C138.448 222.138 162.859 241.71 169.731 246.008C170.406 246.427 171.195 246.748 171.983 246.813C172.177 247.73 171.275 247.569 170.632 247.811C164.871 249.839 154.202 252.205 148.183 252.543C146.8 252.624 140.669 252.398 139.896 252.125C139.027 251.819 138.979 250.611 138.657 250.418C138.335 250.225 137.595 250.837 136.758 249.935C133.588 246.427 131.866 241.501 127.505 238.121C122.855 234.532 117.432 234.081 112.347 231.586C106.924 228.93 99.5055 221.719 93.7446 221.059C91.2664 220.769 88.4664 221.268 85.9561 221.059C86.0526 213.269 92.2158 216.295 97.4779 215.635C96.1905 214.653 96.8986 212.432 96.7537 212.319C95.3216 211.16 88.6434 211.482 86.6319 212.255C86.7767 205.929 94.1629 205.929 98.8135 206.83L97.4618 205.816L98.8135 203.45L90.317 204.013L88.6756 201.792C92.1836 194.565 100.745 202.13 102.869 195.981H91.3469L91.3622 195.998Z" fill="#F1EBE4"/>
<path d="M192.163 805.089L190.264 805.186C190.071 805.331 191.278 809.693 189.588 809.902C186.708 796.929 184.262 783.585 183.489 770.258C182.331 750.411 183.891 731.048 184.181 711.346C184.535 687.636 182.846 664.41 175.347 641.875L180.432 639.831C180.577 644.966 182.379 650.133 183.264 655.283C185.662 669.335 185.967 682.566 187.544 696.393C191.68 732.448 199.726 768.761 192.147 805.073L192.163 805.089Z" fill="#F1EBE4"/>
<path d="M250.27 79.7357C259.12 86.9789 262.919 100.998 263.45 112.281C263.691 117.464 261.776 121.73 264.093 126.881L262.645 124.949L261.406 125.529C259.942 119.702 262.178 113.923 260.714 108.257L262.082 107.581L260.875 107.147C261.358 99.4046 255.034 90.3265 250.85 83.5822C249.772 81.8438 246.231 77.9808 245.829 77.0794C245.7 76.7897 245.652 75.9688 246.167 76.0814C247.358 77.5301 248.87 78.5763 250.287 79.7514L250.27 79.7357Z" fill="#F1EBE4"/>
<path d="M281.844 152.474C281.989 152.603 282.858 152.008 283.405 152.587C288.442 158.044 288.683 175.492 286.462 182.445C285.271 182.606 285.786 180.916 285.867 180.16C286.317 175.991 287.943 172.627 286.993 168.023C286.366 164.949 283.035 161.472 281.876 158.897C281.039 157.03 280.846 153.167 280.17 152.12C279.462 151.01 274.474 148.917 275.954 145.843C276.759 146.986 278.465 147.098 279.366 147.855C280.814 149.094 281.232 151.927 281.844 152.458V152.474Z" fill="#F1EBE4"/>
<path d="M115.068 118.737C113.957 118.141 112.895 115.164 112.654 114.037C111.801 110.045 111.656 105.281 113.008 101.417L116.42 93.6592C117.208 96.5887 115.197 98.6651 114.698 101.079C113.41 107.357 113.41 112.508 115.068 118.721V118.737Z" fill="#F1EBE4"/>
<path d="M306.786 584.927C306.223 585.587 299.819 588.323 298.451 589.128C294.605 591.397 290.904 594.633 286.479 595.776L306.465 583.591L306.786 584.927Z" fill="#F1EBE4"/>
<path d="M264.093 108.58L261.727 96.379L258.01 86.8984C263.32 92.7413 264.688 100.902 264.093 108.58Z" fill="#F1EBE4"/>
<path d="M85.2489 476.52C84.042 476.488 84.5569 473.655 84.5569 472.77C84.5569 467.812 85.7799 462.887 85.2328 457.865L86.6006 449.43L85.2489 476.52Z" fill="#F1EBE4"/>
<path d="M275.616 143.815C272.35 140.773 268.697 137.747 265.784 134.334C264.722 133.095 263.065 131.196 262.759 129.586C266.283 133.562 270.917 137.457 274.264 141.449C274.908 142.205 275.906 142.559 275.616 143.815Z" fill="#F1EBE4"/>
<path d="M141.491 654.059L139.608 654.59L137.42 651.676L138.787 651.017C136.808 649.343 135.65 646.494 135.408 643.902L141.491 654.059Z" fill="#F1EBE4"/>
<path d="M185.518 42.1835L185.197 43.5194C180.433 40.7348 174.141 39.6564 169.941 36.083L185.518 42.1835Z" fill="#F1EBE4"/>
<path d="M180.769 21.8542C180.93 23.1097 179.385 22.3854 178.709 22.2245C176.923 21.7899 175.217 20.7758 173.334 20.6792L167.236 17.1059C172.111 17.2186 176.054 20.969 180.769 21.8542Z" fill="#F1EBE4"/>
<path d="M293.237 599.865L284.451 604.951L279.688 606.625C283.486 603.615 288.49 601.056 293.237 599.865Z" fill="#F1EBE4"/>
<path d="M297.983 595.116C294.685 598.335 289.535 600.138 285.11 601.201L297.983 595.116Z" fill="#F1EBE4"/>
<path d="M223.463 858.689L213.985 862.101C212.086 860.298 223.093 857.964 223.126 856.677L223.463 858.689Z" fill="#F1EBE4"/>
<path d="M13.7516 65.5394C21.8298 73.8127 27.5102 94.0616 17.1631 102.464C12.0137 106.633 -1.58396 111.558 4.11257 99.5825C7.41141 92.6612 16.4712 97.6188 18.193 96.3794L16.8413 94.3674L21.5723 95.0273L12.5608 91.5184C3.45281 87.4139 9.50336 80.0741 11.3861 72.9274C12.062 70.3843 12.3034 67.1973 12.77 64.5575C13.7194 64.3161 13.301 65.1209 13.7355 65.5555L13.7516 65.5394Z" fill="#F1EBE4"/>
<path d="M52.7432 95.0426C49.9432 97.3765 46.4513 100.386 43.4904 102.382C39.4352 105.103 35.6858 107.517 30.5042 106.455L28.364 102.511C30.3433 107.034 27.5433 119.847 21.8628 120.136C16.1824 120.426 18.0973 110.817 19.5134 107.549C24.8881 95.0909 40.98 93.4652 52.7432 95.0587V95.0426Z" fill="#F1EBE4"/>
<path d="M364.024 185.165C365.858 190.396 371.474 204.207 369.785 209.148C368.385 213.236 358.424 217.003 355.205 220.367C353.805 220.303 354.159 215.699 354.208 214.621C354.61 205.269 356.831 191.684 364.024 185.149V185.165Z" fill="#F1EBE4"/>
<path d="M356.238 221.752C362.965 219.901 373.36 214.267 377.512 223.168C382.564 234.033 371.606 232.729 364.847 229.059C363.64 228.399 355.063 223.072 356.254 221.752H356.238Z" fill="#F1EBE4"/>
<path d="M339.292 30.6598C341.11 40.591 342.301 50.8442 331.503 55.7213C328.832 55.5926 331.777 43.4239 332.34 41.6534C333.579 37.7742 335.784 32.9454 339.292 30.6598Z" fill="#F1EBE4"/>
<path d="M335.911 57.0894L335.235 59.1175C339.58 55.8661 348.737 55.8661 350.008 62.3368C351.086 67.8255 345.438 66.6022 341.833 65.733C340.143 65.3145 329.619 60.9686 331.84 58.4576L335.895 57.1055L335.911 57.0894Z" fill="#F1EBE4"/>
<path d="M308.139 55.0608C316.41 54.6423 324.279 57.2176 329.798 63.5273C327.529 66.328 324.408 64.5574 321.688 63.5273C317.005 61.7406 311.888 58.3604 308.123 55.0769L308.139 55.0608Z" fill="#F1EBE4"/>
<path d="M335.237 76.0505C332.244 76.9197 325.695 66.6826 326.435 65.8939L330.86 65.1374C333.21 68.3727 334.722 72.0909 335.237 76.0505Z" fill="#F1EBE4"/>
<path d="M213.292 524.631L207.193 513.123C205.777 513.042 206.807 515.022 207.048 515.634C210.846 524.986 217.331 534.193 222.094 543.094C226.455 547.923 230.22 553.621 234.324 558.836C235.37 560.156 238.298 561.846 237.349 563.262C220.887 547.488 210.122 526.128 200.981 505.445C188.526 477.261 178.002 447.483 173.335 416.901L188.397 467.893C195.623 487.305 204.248 506.041 213.292 524.648L213.292 524.631Z" fill="#3A3A3A"/>
<path d="M162.007 531.279C163.085 532.309 164.115 531.037 165.241 535.109C169.634 551.189 174.044 562.763 183.216 576.75C185.565 580.323 193.129 588.758 194.335 591.381C194.464 591.671 194.512 592.492 193.997 592.379C190.924 589.852 187.657 586.73 185.243 583.51C170.342 563.6 152.593 510.611 145.867 485.63C145.69 484.954 146.06 484.085 145.85 483.232C144.917 479.449 143.324 475.216 142.922 471.353C142.841 470.597 142.31 468.906 143.517 469.067C146.333 485.453 152.062 501.066 157.067 516.824L157.598 515.633C152.126 498.427 148.119 480.721 142.793 463.482C142.632 462.967 140.315 461.663 141.49 458.895L140.154 460.247L138.802 451.442C139.945 451.635 140.009 452.762 140.347 453.615C141.538 456.706 142.729 460.585 143.726 463.788C149.664 482.894 155.602 502.724 160.687 522.039C161.186 523.923 161.476 530.715 162.023 531.246L162.007 531.279Z" fill="#3A3A3A"/>
<path d="M124.545 606.624L122.18 601.892C119.428 592.476 117.915 582.77 115.566 573.273C104.977 530.426 99.8279 480.656 102.226 436.215C102.628 428.811 104.704 421.021 104.913 413.536C106.152 413.745 105.637 416.997 105.573 417.93C105.138 424.642 103.867 431.483 103.513 438.243C103.127 476.971 104.8 516.824 112.54 554.618C114.117 562.296 117.674 570.038 117.223 577.667L124.529 606.656L124.545 606.624Z" fill="#3A3A3A"/>
<path d="M125.914 348.46L125.238 354.56L123.886 353.868C125.093 356.073 123.806 356.927 123.597 358.295C121.183 373.666 118.013 389.521 117.111 405.038C117.031 406.406 117.626 406.985 115.76 406.712C117.82 392.273 118.898 377.594 121.392 363.22C122.132 358.987 122.953 353.82 124.256 349.78C124.626 348.605 124.321 348.17 125.93 348.444L125.914 348.46Z" fill="#3A3A3A"/>
<path d="M232.941 471.112L234.293 470.42L232.958 473.816L219.408 431.805L231.912 465.028L232.941 471.112Z" fill="#3A3A3A"/>
<path d="M108.292 557.161L105.782 546.457C103.593 528.671 100.536 510.74 102.209 492.793L102.885 495.159C101.678 515.939 105.556 536.606 108.292 557.161Z" fill="#3A3A3A"/>
<path d="M154.348 516.503C159.128 533.243 165.114 549.629 172.645 565.29C170.344 562.94 168.783 559.077 167.335 556.051C165.452 552.124 163.585 547.842 161.992 543.786C161.268 541.935 160.367 539.81 159.852 538.361C157.325 531.344 155.732 523.827 153.029 516.841L154.364 516.519L154.348 516.503Z" fill="#3A3A3A"/>
<path d="M284.724 553.491C285.206 554.087 287.346 555.165 286.139 556.485C278.657 547.245 269.71 537.974 262.774 528.349C261.583 526.691 260.022 524.019 258.815 522.184C257.802 520.623 251.139 510.611 251.928 509.742C253.344 509.436 253.473 510.482 254.1 511.287C264.769 524.695 273.684 539.793 284.723 553.507L284.724 553.491Z" fill="#3A3A3A"/>
<path d="M91.3483 582.239L90.077 575.721L88.5644 558.272L87.2931 553.106C87.7437 571.423 90.9943 589.628 90.6724 607.993C88.2587 607.043 90.2701 603.824 90.0287 602.343C89.9483 601.828 88.7575 602.215 88.5966 600.927C87.9529 596.066 88.9667 589.257 88.677 583.913C87.9851 571.198 85.5713 558.385 87.2931 545.669L88.5644 550.836L91.3483 582.255V582.239Z" fill="#3A3A3A"/>
<path d="M235.66 466.364C230.945 452.135 224.621 438.421 221.435 423.677L225.458 434.832L236.899 464.159L235.644 466.364H235.66Z" fill="#3A3A3A"/>
<path d="M139.446 496.849L134.989 481.284C134.313 475.345 131.754 467.973 130.531 461.341C129.308 454.71 128.439 448.432 127.94 441.961L139.446 496.849Z" fill="#3A3A3A"/>
<path d="M249.869 505.67C245.315 500.696 241.082 492.712 240.391 486.016L249.869 505.67Z" fill="#3A3A3A"/>
<path d="M211.94 395.895L209.736 390.309C207.708 381.134 204.779 372.105 203.83 362.688L211.94 395.878L211.94 395.895Z" fill="#3A3A3A"/>
<path d="M122.517 585.619L118.494 573.724C117.207 567.801 115.227 561.91 115.066 555.809L122.501 585.619L122.517 585.619Z" fill="#3A3A3A"/>
<path d="M128.616 439.933C126.605 440.239 127.474 439.483 127.281 438.227C125.446 425.544 125.977 412.715 126.589 399.951C127.779 399.79 127.216 401.48 127.264 402.317C127.49 407.693 126.605 413.327 126.766 418.558C126.959 425.656 128.005 432.867 128.616 439.933Z" fill="#3A3A3A"/>
<path d="M129.292 610.697L124.24 599.832C123.307 595.534 121.038 591.478 121.166 586.987L129.277 610.697L129.292 610.697Z" fill="#3A3A3A"/>
<path d="M177.391 312.549L175.347 312.904L161.154 305.773C166.947 306.304 171.791 311.004 177.407 312.55L177.391 312.549Z" fill="#3A3A3A"/>
<path d="M121.841 334.231L121.488 332.187L127.264 320.002L121.841 334.231Z" fill="#3A3A3A"/>
<path d="M157.742 544.284C156.713 544.123 156.262 541.982 155.876 541.065C154.444 537.54 153.011 533.822 152.336 530.055L157.742 544.284Z" fill="#3A3A3A"/>
<path d="M176.715 818.722L176.345 816.662L180.786 799.085C181.173 805.846 179.885 812.767 176.715 818.722Z" fill="#3A3A3A"/>
<path d="M183.49 53.0325C183.634 54.1914 181.108 53.7889 180.449 53.7084C178.662 53.467 177.214 52.5817 175.653 52.4046C167.656 51.4871 159.867 54.7707 153.012 58.4406C151.451 56.4447 159.835 50.5214 161.669 49.8292C170.118 46.6583 175.83 49.7005 183.474 53.0163L183.49 53.0325Z" fill="#3A3A3A"/>
<path d="M143.535 67.2454C149.183 72.9917 147.815 82.5366 146.978 89.8443L155.024 94.6892C151.259 99.518 146.463 95.6549 143.68 91.8885C144.903 84.0175 147.236 74.6818 143.535 67.2454Z" fill="#3A3A3A"/>
<path d="M176.716 95.7032C173.755 95.1559 172.886 97.5703 170.842 98.9868C168.01 100.918 163.875 103.993 160.833 105.232C159.369 105.828 148.99 109.127 148.958 106.214C150.631 104.975 153.061 104.234 155.056 103.51C159.659 101.836 165.371 99.4536 169.764 97.2162C172.822 95.6549 176.764 88.5726 176.732 95.7032H176.716Z" fill="#3A3A3A"/>
<path d="M207.885 57.7648C212.761 57.5072 215.191 61.3868 213.968 65.8937C212.439 64.9118 214.113 62.8998 212.327 61.1132C211.136 59.9382 208.915 59.5036 207.306 59.8738C205.037 62.9481 210.026 64.0427 209.768 66.7951C209.688 67.7608 206.421 73.9256 205.182 72.6701C205.214 71.0444 207.74 68.3242 207.644 66.9078C207.596 66.28 205.858 64.4612 205.504 63.2057C204.184 58.5217 206.984 54.0953 210.267 50.9887C211.586 52.5018 207.161 57.0891 207.901 57.7652L207.885 57.7648Z" fill="#3A3A3A"/>
<path d="M178.744 61.1608C175.702 65.2009 171.1 68.6777 166.144 69.901C165.194 70.1424 163.923 69.8366 162.845 69.9975C161.638 70.1746 160.319 72.2671 159.401 69.9493C158.967 68.8386 159.884 67.7119 159.771 66.5852C167.029 69.0801 172.5 63.8328 178.728 61.1769L178.744 61.1608Z" fill="#3A3A3A"/>
<path d="M167.221 105.876L153.687 109.932C158.611 110.962 165.74 112.33 167.221 105.876Z" fill="#3A3A3A"/>
<path d="M158.37 89.6833L157.341 92.2577C155.378 92.7405 149.568 90.7773 152.062 88.8946L158.37 89.6833Z" fill="#3A3A3A"/>
<path d="M230.912 162.775C230.365 163.339 219.262 166.252 217.492 166.639C212.552 167.717 207.499 168.409 202.462 168.876C202.124 166.896 202.945 167.781 204.039 167.443C212.439 164.836 222.496 165.496 230.574 161.439L230.912 162.775Z" fill="#3A3A3A"/>
<path d="M176.715 161.439C176.876 162.598 175.105 162.164 174.365 162.099C170.97 161.842 161.685 160.232 159.062 158.365C158.514 157.979 158.997 157.109 158.933 157.013C158.418 156.321 157.533 157.093 157.758 155.999L176.714 161.423L176.715 161.439Z" fill="#3A3A3A"/>
<path d="M193.436 163.306C192.76 163.837 191.071 162.743 191.586 165.463L189.574 165.157L197.701 153.294C197.347 155.049 194.354 162.582 193.436 163.29V163.306Z" fill="#3A3A3A"/>
</svg>
